<svg width="15" height="12" viewBox="0 0 15 12" fill="none" xmlns="http://www.w3.org/2000/svg">
<path d="M7.77479 0.251184C7.9506 0.0903511 8.18902 0 8.43761 0C8.68621 0 8.92462 0.0903511 9.10043 0.251184L14.7255 5.39864C14.9013 5.55952 15 5.77769 15 6.00518C15 6.23267 14.9013 6.45084 14.7255 6.61172L9.10043 11.7592C8.92362 11.9155 8.6868 12.0019 8.44099 12C8.19517 11.998 7.96003 11.9078 7.78621 11.7487C7.61239 11.5897 7.51379 11.3745 7.51166 11.1495C7.50952 10.9246 7.60402 10.7079 7.77479 10.5461L11.7995 6.86309H0.937513C0.688869 6.86309 0.450409 6.7727 0.274591 6.61181C0.0987735 6.45092 0 6.23271 0 6.00518C0 5.77765 0.0987735 5.55944 0.274591 5.39855C0.450409 5.23766 0.688869 5.14727 0.937513 5.14727H11.7995L7.77479 1.46427C7.59904 1.30339 7.5003 1.08521 7.5003 0.857726C7.5003 0.630239 7.59904 0.412066 7.77479 0.251184Z" fill="#2C353E"/>
</svg>
