<svg width="1512" height="573" viewBox="0 0 1512 573" fill="none" xmlns="http://www.w3.org/2000/svg">
<line x1="244.5" y1="2.18557e-08" x2="244.5" y2="573" stroke="#FDE49C" stroke-opacity="0.49"/>
<line y1="363.5" x2="1512" y2="363.5" stroke="#FDE49C"/>
<line y1="417.5" x2="1512" y2="417.5" stroke="#FDE49C"/>
<line y1="87.5" x2="1512" y2="87.5" stroke="#FDE49C"/>
<line x1="608.5" y1="1" x2="608.5" y2="573" stroke="#FDE49C" stroke-opacity="0.49"/>
<line x1="1380.5" y1="1" x2="1380.5" y2="573" stroke="#FDE49C"/>
<path fill-rule="evenodd" clip-rule="evenodd" d="M608.5 535C608.467 525.899 601.092 518.531 592 518.531C601.113 518.531 608.5 511.129 608.5 502C608.533 511.101 615.908 518.469 625 518.469C615.887 518.469 608.5 525.871 608.5 535Z" fill="#FAD372"/>
<path fill-rule="evenodd" clip-rule="evenodd" d="M608.5 380C608.467 370.899 601.092 363.531 592 363.531C601.113 363.531 608.5 356.129 608.5 347C608.533 356.101 615.908 363.469 625 363.469C615.887 363.469 608.5 370.871 608.5 380Z" fill="#FAD372"/>
<path fill-rule="evenodd" clip-rule="evenodd" d="M1380.5 104C1380.47 94.8985 1373.09 87.5306 1364 87.5306C1373.11 87.5306 1380.5 80.1295 1380.5 71C1380.53 80.1015 1387.91 87.4694 1397 87.4694C1387.89 87.4694 1380.5 94.8705 1380.5 104Z" fill="#FDE49C"/>
<path fill-rule="evenodd" clip-rule="evenodd" d="M244.5 411C244.467 401.899 237.092 394.531 228 394.531C237.113 394.531 244.5 387.129 244.5 378C244.533 387.101 251.908 394.469 261 394.469C251.887 394.469 244.5 401.871 244.5 411Z" fill="#FDE49C"/>
</svg>
