<svg width="32" height="33" viewBox="0 0 32 33" fill="none" xmlns="http://www.w3.org/2000/svg">
<path d="M28.1875 24.0837C27.195 23.0837 24.7912 21.6244 23.625 21.0362C22.1062 20.2712 21.9812 20.2087 20.7875 21.0956C19.9912 21.6875 19.4619 22.2162 18.53 22.0175C17.5981 21.8187 15.5731 20.6981 13.8 18.9306C12.0269 17.1631 10.8412 15.0794 10.6419 14.1506C10.4425 13.2219 10.98 12.6987 11.5662 11.9006C12.3925 10.7756 12.33 10.5881 11.6237 9.06937C11.0731 7.88812 9.57124 5.50687 8.56749 4.51937C7.49374 3.45874 7.49374 3.64624 6.80187 3.93374C6.2386 4.17073 5.69822 4.45881 5.18749 4.79437C4.18749 5.45874 3.63249 6.01062 3.24437 6.83999C2.85624 7.66937 2.68187 9.61374 4.68624 13.255C6.69062 16.8962 8.09687 18.7581 11.0075 21.6606C13.9181 24.5631 16.1562 26.1237 19.4281 27.9587C23.4756 30.2256 25.0281 29.7837 25.86 29.3962C26.6919 29.0087 27.2462 28.4587 27.9119 27.4587C28.2483 26.9489 28.537 26.4091 28.7744 25.8462C29.0625 25.1569 29.25 25.1569 28.1875 24.0837Z" stroke="#F0F0F0" stroke-width="2.5" stroke-miterlimit="10"/>
</svg>
