<svg width="22" height="17" viewBox="0 0 22 17" fill="none" xmlns="http://www.w3.org/2000/svg">
<path d="M21.6608 2.05846C21.2373 1.33286 20.4582 0.839996 19.5556 0.839996H11V2.05846H21.6608ZM0 13.0246H22V14.2431H0V13.0246ZM11 8.15076H22V9.36923H11V8.15076ZM11 5.71384H22V6.9323H11V5.71384ZM0 10.5877H22V11.8061H0V10.5877ZM2.44444 16.68H19.5556C20.4582 16.68 21.2373 16.1871 21.6608 15.4615H0.339167C0.762667 16.1871 1.54183 16.68 2.44444 16.68ZM11 3.27692H22V4.49538H11V3.27692Z" fill="#B22334"/>
<path d="M0.0415556 14.6568C0.0519444 14.7134 0.0635556 14.7701 0.0776111 14.8255C0.0935 14.887 0.113056 14.9461 0.133833 15.0058C0.188222 15.1636 0.254222 15.3159 0.337333 15.4585L0.339167 15.4615H21.6608L21.6621 15.4591C21.7446 15.3172 21.8106 15.1649 21.8649 15.0077C21.8857 14.9474 21.9059 14.887 21.9218 14.8243C21.9358 14.7695 21.9474 14.7134 21.9578 14.6568C21.9829 14.5227 22 14.385 22 14.2431H0C0 14.385 0.0171111 14.5221 0.0415556 14.6568ZM0 11.8062H22V13.0246H0V11.8062ZM0 9.36924V10.5877H22V9.36924H11H0ZM11 6.93232H22V8.15078H11V6.93232ZM11 4.49539H22V5.71386H11V4.49539ZM0 3.27693C0 3.13498 0.0183333 2.99851 0.0415556 2.86327C0.0171111 2.99791 0 3.13498 0 3.27693ZM0.0782222 2.69451C0.0935 2.63237 0.114889 2.57327 0.134444 2.51357C0.113667 2.57327 0.0941111 2.63298 0.0782222 2.69451ZM11 3.27693H22C22 3.13498 21.9829 2.9973 21.9578 2.86266C21.9474 2.80661 21.9364 2.75056 21.9218 2.69573C21.9053 2.63298 21.8857 2.57205 21.8643 2.51174C21.8099 2.35456 21.7439 2.20286 21.6614 2.06091C21.6621 2.0603 21.6614 2.05908 21.6608 2.05847H11V3.27693Z" fill="#EEEEEE"/>
<path d="M11 0.839996H2.44444C1.0945 0.839996 0 1.93113 0 3.27692V9.36922H11V0.839996Z" fill="#3C3B6E"/>
<path d="M1.2229 2.50077L1.60057 2.77432L1.45634 3.21601L1.8334 2.94307L2.21107 3.21601L2.06684 2.77432L2.44451 2.50077H1.97762L1.8334 2.05847L1.68979 2.50077H1.2229ZM2.44512 3.71923L2.82279 3.99278L2.67857 4.43447L3.05562 4.16154L3.43329 4.43447L3.28907 3.99278L3.66673 3.71923H3.19984L3.05562 3.27693L2.91201 3.71923H2.44512ZM4.88957 3.71923L5.26723 3.99278L5.12301 4.43447L5.50007 4.16154L5.87773 4.43447L5.73351 3.99278L6.11118 3.71923H5.64429L5.50007 3.27693L5.35646 3.71923H4.88957ZM7.33401 3.71923L7.71168 3.99278L7.56745 4.43447L7.94451 4.16154L8.32218 4.43447L8.17795 3.99278L8.55562 3.71923H8.08873L7.94451 3.27693L7.8009 3.71923H7.33401ZM2.44512 6.15616L2.82279 6.4297L2.67857 6.87139L3.05562 6.59846L3.43329 6.87139L3.28907 6.4297L3.66673 6.15616H3.19984L3.05562 5.71386L2.91201 6.15616H2.44512ZM4.88957 6.15616L5.26723 6.4297L5.12301 6.87139L5.50007 6.59846L5.87773 6.87139L5.73351 6.4297L6.11118 6.15616H5.64429L5.50007 5.71386L5.35646 6.15616H4.88957ZM7.33401 6.15616L7.71168 6.4297L7.56745 6.87139L7.94451 6.59846L8.32218 6.87139L8.17795 6.4297L8.55562 6.15616H8.08873L7.94451 5.71386L7.8009 6.15616H7.33401ZM3.66734 2.50077L4.04501 2.77432L3.90079 3.21601L4.27784 2.94307L4.65551 3.21601L4.51129 2.77432L4.88896 2.50077H4.42207L4.27784 2.05847L4.13423 2.50077H3.66734ZM6.11179 2.50077L6.48945 2.77432L6.34523 3.21601L6.72229 2.94307L7.09996 3.21601L6.95573 2.77432L7.3334 2.50077H6.86651L6.72229 2.05847L6.57868 2.50077H6.11179ZM8.55623 2.50077L8.9339 2.77432L8.78968 3.21601L9.16673 2.94307L9.5444 3.21601L9.40018 2.77432L9.77784 2.50077H9.31096L9.16673 2.05847L9.02312 2.50077H8.55623ZM1.2229 4.9377L1.60057 5.21124L1.45634 5.65293L1.8334 5.38L2.21107 5.65293L2.06684 5.21124L2.44451 4.9377H1.97762L1.8334 4.49539L1.68979 4.9377H1.2229ZM3.90079 5.65293L4.27784 5.38L4.65551 5.65293L4.51129 5.21124L4.88896 4.9377H4.42207L4.27784 4.49539L4.13423 4.9377H3.66734L4.04501 5.21124L3.90079 5.65293ZM6.11179 4.9377L6.48945 5.21124L6.34523 5.65293L6.72229 5.38L7.09996 5.65293L6.95573 5.21124L7.3334 4.9377H6.86651L6.72229 4.49539L6.57868 4.9377H6.11179ZM8.55623 4.9377L8.9339 5.21124L8.78968 5.65293L9.16673 5.38L9.5444 5.65293L9.40018 5.21124L9.77784 4.9377H9.31096L9.16673 4.49539L9.02312 4.9377H8.55623ZM1.2229 7.37462L1.60057 7.64816L1.45634 8.08985L1.8334 7.81692L2.21107 8.08985L2.06684 7.64816L2.44451 7.37462H1.97762L1.8334 6.93232L1.68979 7.37462H1.2229ZM3.90079 8.08985L4.27784 7.81692L4.65551 8.08985L4.51129 7.64816L4.88896 7.37462H4.42207L4.27784 6.93232L4.13423 7.37462H3.66734L4.04501 7.64816L3.90079 8.08985ZM6.11179 7.37462L6.48945 7.64816L6.34523 8.08985L6.72229 7.81692L7.09996 8.08985L6.95573 7.64816L7.3334 7.37462H6.86651L6.72229 6.93232L6.57868 7.37462H6.11179ZM8.55623 7.37462L8.9339 7.64816L8.78968 8.08985L9.16673 7.81692L9.5444 8.08985L9.40018 7.64816L9.77784 7.37462H9.31096L9.16673 6.93232L9.02312 7.37462H8.55623Z" fill="white"/>
</svg>
