<svg width="178" height="176" viewBox="0 0 178 176" fill="none" xmlns="http://www.w3.org/2000/svg">
<path d="M177 131.719C118.327 108.308 59.6636 155.468 1 132.065V41.133C59.6636 64.5354 118.327 17.3755 177 40.787V131.719Z" fill="#E3B005" stroke="#263238" stroke-linecap="round" stroke-linejoin="round"/>
<path d="M166.768 62.3955C158.395 60.1645 151.616 52.9071 151.616 44.5113C151.616 44.1016 151.616 43.7009 151.68 43.2911C110.181 39.0569 68.682 59.9369 27.192 56.0395C27.192 56.4402 27.2558 56.85 27.2558 57.2688C27.2558 65.5917 20.4683 71.9477 12.1047 69.7896C11.5393 69.642 10.9827 69.4627 10.4375 69.2523V108.572C10.9841 108.672 11.5399 108.781 12.1047 108.927C20.4683 111.076 27.2558 118.288 27.2558 126.684C27.2542 127.675 27.1535 128.663 26.9551 129.634C68.6091 133.668 110.263 112.615 151.908 116.968C151.715 115.978 151.617 114.971 151.616 113.963C151.616 105.631 158.395 99.3294 166.768 101.56C167.068 101.642 167.36 101.752 167.679 101.852V62.5958C167.314 62.5321 167.023 62.4774 166.768 62.3955Z" fill="white" stroke="#263238" stroke-linecap="round" stroke-linejoin="round"/>
<path d="M110.846 82.8111C110.846 94.8401 101.071 106.305 88.9809 108.809C76.891 111.313 67.1152 103.209 67.1152 91.1158C67.1152 79.023 76.9001 67.6314 88.9809 65.1182C101.062 62.6049 110.846 70.7184 110.846 82.8111Z" fill="#E3B005" stroke="#263238" stroke-linecap="round" stroke-linejoin="round"/>
<path d="M88.6175 103.4V100.231C86.4219 100.577 84.7728 100.231 83.6796 99.1017C82.5863 97.9726 81.985 96.115 81.8574 93.4014L86.7498 91.6894C86.7413 92.5716 86.8361 93.4518 87.0323 94.312C87.1225 94.8268 87.39 95.2939 87.7885 95.6323C87.9636 95.7483 88.1609 95.8268 88.3678 95.8629C88.5748 95.8989 88.787 95.8918 88.9911 95.8418C89.2401 95.8106 89.477 95.7164 89.6794 95.5683C89.8819 95.4201 90.0432 95.2227 90.1481 94.9949C90.3257 94.574 90.4186 94.1222 90.4214 93.6654C90.4713 92.7552 90.2076 91.8554 89.6744 91.1158C89.0903 90.3988 88.3915 89.7834 87.6063 89.2946L85.3832 87.8103C84.767 87.3829 84.1852 86.9079 83.6431 86.3898C83.1122 85.8679 82.6855 85.2499 82.3858 84.5686C82.0396 83.7006 81.8753 82.7708 81.903 81.8368C81.8437 79.9793 82.4621 78.1637 83.6431 76.7283C84.8679 75.3034 86.5036 74.292 88.326 73.8326V70.8003L89.9568 70.4725V73.4775C90.9523 73.2625 91.9893 73.3481 92.936 73.7233C93.6408 74.0371 94.2278 74.5664 94.6124 75.2349C94.9896 75.9115 95.2484 76.6476 95.3777 77.4113C95.5099 78.1514 95.5891 78.9 95.6145 79.6513L90.6583 81.254C90.6467 80.5904 90.6011 79.9278 90.5217 79.2689C90.4862 78.8249 90.3286 78.3995 90.0661 78.0396C89.9297 77.9024 89.7557 77.8085 89.5661 77.7696C89.3765 77.7308 89.1797 77.7486 89.0002 77.821C88.7445 77.8675 88.5035 77.9744 88.2975 78.1328C88.0915 78.2912 87.9263 78.4965 87.8158 78.7316C87.5776 79.1682 87.4464 79.6551 87.4331 80.1522C87.4006 80.5706 87.4532 80.9913 87.5879 81.3888C87.7226 81.7864 87.9365 82.1525 88.2167 82.4651C88.7411 82.9947 89.3146 83.4734 89.9295 83.8947L92.0978 85.3426C92.8163 85.8481 93.4872 86.4181 94.1022 87.0454C94.712 87.6882 95.2025 88.4344 95.5508 89.249C95.9386 90.2213 96.1245 91.2623 96.0974 92.3087C96.0975 93.4269 95.8583 94.5322 95.3959 95.5504C94.9242 96.5791 94.2376 97.495 93.3824 98.2366C92.468 99.0165 91.4004 99.5965 90.2483 99.9395V103.136L88.6175 103.4Z" fill="#263238"/>
<path d="M144.475 141.863C133.02 154.363 117.893 162.908 101.27 166.267C84.6478 169.627 67.3874 167.628 51.974 160.558L56.2651 153.792L32.2676 152.791L43.3917 174.062L47.7739 167.169C64.7537 175.219 83.8679 177.617 102.312 174.011C120.755 170.406 137.557 160.987 150.251 147.136L144.475 141.863Z" fill="#263238"/>
<path d="M123.668 17.503L118.939 23.8772L142.818 26.5361L133.179 4.59071L128.323 11.1925C110.567 1.25749 89.9114 -2.2108 69.8816 1.37957C49.8519 4.96995 31.6895 15.3965 18.4941 30.8797L24.407 35.9244C36.3267 21.9239 52.7046 12.4504 70.7886 9.0958C88.8727 5.74119 107.561 8.70986 123.713 17.503H123.668Z" fill="#263238"/>
</svg>
