<svg width="32" height="33" viewBox="0 0 32 33" fill="none" xmlns="http://www.w3.org/2000/svg">
<path d="M22.6667 3.37549H9.33332C5.65142 3.37549 2.66666 6.36026 2.66666 10.0422V23.3755C2.66666 27.0574 5.65142 30.0422 9.33332 30.0422H22.6667C26.3486 30.0422 29.3333 27.0574 29.3333 23.3755V10.0422C29.3333 6.36026 26.3486 3.37549 22.6667 3.37549Z" stroke="#F0F0F0" stroke-width="2" stroke-linecap="round" stroke-linejoin="round"/>
<path d="M21.3333 15.8689C21.4979 16.9786 21.3083 18.1119 20.7917 19.1076C20.275 20.1033 19.4575 20.9108 18.4555 21.4151C17.4535 21.9195 16.3179 22.095 15.2104 21.9168C14.1028 21.7386 13.0797 21.2157 12.2864 20.4224C11.4932 19.6292 10.9703 18.6061 10.7921 17.4985C10.6139 16.391 10.7894 15.2554 11.2938 14.2534C11.7981 13.2514 12.6056 12.4339 13.6013 11.9172C14.597 11.4006 15.7303 11.211 16.84 11.3756C17.9719 11.5434 19.0198 12.0708 19.8289 12.88C20.638 13.6891 21.1655 14.737 21.3333 15.8689Z" stroke="#F0F0F0" stroke-width="2" stroke-linecap="round" stroke-linejoin="round"/>
<path d="M23.3333 9.37549H23.3467" stroke="#F0F0F0" stroke-width="2" stroke-linecap="round" stroke-linejoin="round"/>
</svg>
