<svg width="23" height="22" viewBox="0 0 23 22" fill="none" xmlns="http://www.w3.org/2000/svg">
<path d="M11.016 7.94444C12.7027 7.94444 14.0715 9.31333 14.0715 11C14.0715 12.6867 12.7027 14.0556 11.016 14.0556C9.32932 14.0556 7.96044 12.6867 7.96044 11C7.96044 9.31333 9.32932 7.94444 11.016 7.94444ZM11.016 6.11111C8.31488 6.11111 6.1271 8.29889 6.1271 11C6.1271 13.7011 8.31488 15.8889 11.016 15.8889C13.7171 15.8889 15.9049 13.7011 15.9049 11C15.9049 8.29889 13.7171 6.11111 11.016 6.11111ZM3.3771 11.9167C3.87821 11.9167 4.29377 11.5011 4.29377 11C4.29377 10.4989 3.87821 10.0833 3.3771 10.0833H0.932658C0.431547 10.0833 0.0159912 10.4989 0.0159912 11C0.0159912 11.5011 0.431547 11.9167 0.932658 11.9167H3.3771ZM21.0993 11.9167C21.6004 11.9167 22.016 11.5011 22.016 11C22.016 10.4989 21.6004 10.0833 21.0993 10.0833H18.6549C18.1538 10.0833 17.7382 10.4989 17.7382 11C17.7382 11.5011 18.1538 11.9167 18.6549 11.9167H21.0993ZM10.0993 3.36111C10.0993 3.86222 10.5149 4.27778 11.016 4.27778C11.5171 4.27778 11.9327 3.86222 11.9327 3.36111V0.916667C11.9327 0.415556 11.5171 0 11.016 0C10.5149 0 10.0993 0.415556 10.0993 0.916667V3.36111ZM15.7704 4.95C15.416 5.30444 15.416 5.89111 15.7704 6.24556C16.1249 6.6 16.7115 6.6 17.066 6.24556L18.3615 4.95C18.716 4.59556 18.716 4.00889 18.3615 3.65444C18.0071 3.3 17.4204 3.3 17.066 3.65444L15.7704 4.95ZM3.67044 17.05C3.31599 17.4044 3.31599 17.9911 3.67044 18.3456C4.02488 18.7 4.61155 18.7 4.96599 18.3456L6.26155 17.05C6.61599 16.6956 6.61599 16.1089 6.26155 15.7544C5.9071 15.4 5.32044 15.4 4.96599 15.7544L3.67044 17.05ZM4.96599 6.24556C5.32044 6.6 5.9071 6.6 6.26155 6.24556C6.61599 5.89111 6.61599 5.30444 6.26155 4.95L4.96599 3.65444C4.61155 3.3 4.02488 3.3 3.67044 3.65444C3.31599 4.00889 3.31599 4.59556 3.67044 4.95L4.96599 6.24556ZM17.066 18.3456C17.4204 18.7 18.0071 18.7 18.3615 18.3456C18.716 17.9911 18.716 17.4044 18.3615 17.05L17.066 15.7544C16.7115 15.4 16.1249 15.4 15.7704 15.7544C15.416 16.1089 15.416 16.6956 15.7704 17.05L17.066 18.3456ZM10.0993 21.0833C10.0993 21.5844 10.5149 22 11.016 22C11.5171 22 11.9327 21.5844 11.9327 21.0833V18.6389C11.9327 18.1378 11.5171 17.7222 11.016 17.7222C10.5149 17.7222 10.0993 18.1378 10.0993 18.6389V21.0833Z" fill="url(#paint0_linear_283_303)"/>
<defs>
<linearGradient id="paint0_linear_283_303" x1="19.0114" y1="1.43762" x2="0.63882" y2="3.53844" gradientUnits="userSpaceOnUse">
<stop stop-color="#EA9C14"/>
<stop offset="1" stop-color="#FFD765"/>
</linearGradient>
</defs>
</svg>
