<svg width="49" height="58" viewBox="0 0 49 58" fill="none" xmlns="http://www.w3.org/2000/svg">
<path d="M19.8981 0L30.5278 2.60889L28.0972 13.4262L26.2176 10.4037L8.39352 20.5211V39.0378L24.5648 48.2326L40.5741 39.1015V27.1388H49V44.0965L24.5648 58L0 44.0329V15.5261L21.8102 3.14975L19.8981 0Z" fill="url(#paint0_linear_126_3294)"/>
<path d="M13.125 24.4026H12.5417V26.3116H11.5694V35.6654H12.5417V37.3834H13.125V35.6654H14.0972V26.3116H13.125V24.4026Z" fill="url(#paint1_linear_126_3294)"/>
<path d="M16.8194 24.4663H16.2361V26.3752H15.2639V33.2474H16.2361V34.8382H16.8194V33.2474H17.7917V26.3752H16.8194V24.4663Z" fill="url(#paint2_linear_126_3294)"/>
<path d="M20.7731 29.3659H20.1898V31.4021H19.2176V38.847H20.1898V40.6286H20.7731V38.847H21.7454V31.4021H20.7731V29.3659Z" fill="url(#paint3_linear_126_3294)"/>
<path d="M24.5972 27.0115H24.0139V30.4476H23.0417V35.5381H24.0139V37.2562H24.5972V35.5381H25.5694V30.4476H24.5972V27.0115Z" fill="url(#paint4_linear_126_3294)"/>
<path d="M28.3565 17.785H27.7731V19.8212H26.8009V29.175H27.7731V30.8294H28.3565V29.175H29.3287V19.8212H28.3565V17.785Z" fill="url(#paint5_linear_126_3294)"/>
<path d="M32.1157 17.7213H31.5324V19.8848H30.5602V24.9753H31.5324V26.8206H32.1157V24.9753H33.088V19.8848H32.1157V17.7213Z" fill="url(#paint6_linear_126_3294)"/>
<path d="M35.9398 23.4482H35.4213V25.3571H34.4491V33.5019H35.4213V35.3472H35.9398V33.5019H36.912V25.3571H35.9398V23.4482Z" fill="url(#paint7_linear_126_3294)"/>
<path d="M39.7639 17.2123H39.2454V21.6029H38.2731V25.3571H39.2454V26.757H39.8287V25.3571H40.7361V21.6029H39.7639V17.2123Z" fill="url(#paint8_linear_126_3294)"/>
<path d="M43.6528 10.2765H43.0694V12.3127H42.0972V21.921H43.0694V23.4482H43.6528V21.921H44.625V12.3127H43.6528V10.2765Z" fill="url(#paint9_linear_126_3294)"/>
<path d="M47.412 10.2128H46.8287V12.3763H45.8565V19.0576H46.8287V21.2211H47.412V19.0576H48.3843V12.3763H47.412V10.2128Z" fill="url(#paint10_linear_126_3294)"/>
<defs>
<linearGradient id="paint0_linear_126_3294" x1="42.3079" y1="3.79009" x2="1.23546" y2="7.75778" gradientUnits="userSpaceOnUse">
<stop stop-color="#EA9C14"/>
<stop offset="1" stop-color="#FFD765"/>
</linearGradient>
<linearGradient id="paint1_linear_126_3294" x1="42.3079" y1="3.79009" x2="1.23546" y2="7.75778" gradientUnits="userSpaceOnUse">
<stop stop-color="#EA9C14"/>
<stop offset="1" stop-color="#FFD765"/>
</linearGradient>
<linearGradient id="paint2_linear_126_3294" x1="42.3079" y1="3.79009" x2="1.23546" y2="7.75778" gradientUnits="userSpaceOnUse">
<stop stop-color="#EA9C14"/>
<stop offset="1" stop-color="#FFD765"/>
</linearGradient>
<linearGradient id="paint3_linear_126_3294" x1="42.3079" y1="3.79009" x2="1.23546" y2="7.75778" gradientUnits="userSpaceOnUse">
<stop stop-color="#EA9C14"/>
<stop offset="1" stop-color="#FFD765"/>
</linearGradient>
<linearGradient id="paint4_linear_126_3294" x1="42.3079" y1="3.79009" x2="1.23546" y2="7.75778" gradientUnits="userSpaceOnUse">
<stop stop-color="#EA9C14"/>
<stop offset="1" stop-color="#FFD765"/>
</linearGradient>
<linearGradient id="paint5_linear_126_3294" x1="42.3079" y1="3.79009" x2="1.23546" y2="7.75778" gradientUnits="userSpaceOnUse">
<stop stop-color="#EA9C14"/>
<stop offset="1" stop-color="#FFD765"/>
</linearGradient>
<linearGradient id="paint6_linear_126_3294" x1="42.3079" y1="3.79009" x2="1.23546" y2="7.75778" gradientUnits="userSpaceOnUse">
<stop stop-color="#EA9C14"/>
<stop offset="1" stop-color="#FFD765"/>
</linearGradient>
<linearGradient id="paint7_linear_126_3294" x1="42.3079" y1="3.79009" x2="1.23546" y2="7.75778" gradientUnits="userSpaceOnUse">
<stop stop-color="#EA9C14"/>
<stop offset="1" stop-color="#FFD765"/>
</linearGradient>
<linearGradient id="paint8_linear_126_3294" x1="42.3079" y1="3.79009" x2="1.23546" y2="7.75778" gradientUnits="userSpaceOnUse">
<stop stop-color="#EA9C14"/>
<stop offset="1" stop-color="#FFD765"/>
</linearGradient>
<linearGradient id="paint9_linear_126_3294" x1="42.3079" y1="3.79009" x2="1.23546" y2="7.75778" gradientUnits="userSpaceOnUse">
<stop stop-color="#EA9C14"/>
<stop offset="1" stop-color="#FFD765"/>
</linearGradient>
<linearGradient id="paint10_linear_126_3294" x1="42.3079" y1="3.79009" x2="1.23546" y2="7.75778" gradientUnits="userSpaceOnUse">
<stop stop-color="#EA9C14"/>
<stop offset="1" stop-color="#FFD765"/>
</linearGradient>
</defs>
</svg>
