<svg width="505" height="503" viewBox="0 0 505 503" fill="none" xmlns="http://www.w3.org/2000/svg">
<path d="M27.6235 209.781C30.1762 184.728 38.9386 160.699 53.1233 139.854C67.3079 119.009 86.4703 102.001 108.888 90.3591C148.585 69.8003 191.897 57.0759 236.441 52.8856C357.54 41.5681 391.628 103.397 412.08 159.19C432.533 214.982 499.132 309.234 492.325 401.978C492.325 401.978 487.022 453.284 467.337 476.623H26.7549C26.7549 476.623 1.01002 441.936 28.28 376.345C55.55 310.754 19.19 307.725 26.0075 227.054C26.5226 220.898 27.068 215.153 27.6235 209.781Z" fill="#FFD765"/>
<path opacity="0.7" d="M27.6235 209.781C30.1762 184.728 38.9386 160.699 53.1233 139.854C67.3079 119.009 86.4703 102.001 108.888 90.3591C148.585 69.8003 191.897 57.0759 236.441 52.8856C357.54 41.5681 391.628 103.397 412.08 159.19C432.533 214.982 499.132 309.234 492.325 401.978C492.325 401.978 487.022 453.284 467.337 476.623H26.7549C26.7549 476.623 1.01002 441.936 28.28 376.345C55.55 310.754 19.19 307.725 26.0075 227.054C26.5226 220.898 27.068 215.153 27.6235 209.781Z" fill="white"/>
<g opacity="0.3">
<path d="M106.909 28.9832H39.6223V124.915H106.909V28.9832Z" stroke="#F0F0F0" stroke-width="1.50998" stroke-linecap="round" stroke-linejoin="round"/>
<path d="M178.82 28.9832H111.534V124.915H178.82V28.9832Z" stroke="#F0F0F0" stroke-width="1.50998" stroke-linecap="round" stroke-linejoin="round"/>
<path d="M250.722 28.9832H183.436V124.915H250.722V28.9832Z" stroke="#F0F0F0" stroke-width="1.50998" stroke-linecap="round" stroke-linejoin="round"/>
<path d="M106.909 129.513H39.6223V225.445H106.909V129.513Z" stroke="#F0F0F0" stroke-width="1.50998" stroke-linecap="round" stroke-linejoin="round"/>
<path d="M178.82 129.513H111.534V225.445H178.82V129.513Z" stroke="#F0F0F0" stroke-width="1.50998" stroke-linecap="round" stroke-linejoin="round"/>
<path d="M250.722 129.513H183.436V225.445H250.722V129.513Z" stroke="#F0F0F0" stroke-width="1.50998" stroke-linecap="round" stroke-linejoin="round"/>
<path d="M106.909 230.052H39.6223V325.985H106.909V230.052Z" stroke="#F0F0F0" stroke-width="1.50998" stroke-linecap="round" stroke-linejoin="round"/>
<path d="M178.82 230.052H111.534V325.985H178.82V230.052Z" stroke="#F0F0F0" stroke-width="1.50998" stroke-linecap="round" stroke-linejoin="round"/>
<path d="M250.722 230.052H183.436V325.985H250.722V230.052Z" stroke="#F0F0F0" stroke-width="1.50998" stroke-linecap="round" stroke-linejoin="round"/>
</g>
<path d="M450.985 43.4391V348.71C450.985 352.734 449.381 356.594 446.525 359.441C443.669 362.287 439.795 363.888 435.754 363.89H303.323C299.283 363.888 295.409 362.287 292.553 359.441C289.697 356.594 288.092 352.734 288.092 348.71V43.4291C288.092 39.4083 289.696 35.5522 292.55 32.709C295.405 29.8659 299.276 28.2686 303.313 28.2686H360.156L360.206 28.4397C361.62 33.52 364.883 36.8196 368.499 36.8196H370.519C374.144 36.8196 377.397 33.52 378.821 28.4397L378.871 28.2686H435.704C437.708 28.262 439.694 28.6495 441.548 29.409C443.402 30.1684 445.087 31.2848 446.506 32.6941C447.926 34.1035 449.052 35.7781 449.821 37.622C450.59 39.4658 450.985 41.4427 450.985 43.4391Z" fill="white"/>
<path d="M450.985 262.335V43.439C450.985 39.4156 449.381 35.5569 446.524 32.7119C443.668 29.8669 439.794 28.2686 435.754 28.2686H378.922L378.871 28.4396C377.447 33.5199 374.195 36.8196 370.569 36.8196H368.549C364.933 36.8196 361.671 33.5199 360.257 28.4396L360.206 28.2686H303.313C299.276 28.2686 295.405 29.8658 292.55 32.7089C289.696 35.5521 288.092 39.4082 288.092 43.429V262.335H450.985Z" fill="#FFD765"/>
<path d="M378.871 28.4396C377.447 33.5199 374.195 36.8196 370.569 36.8196H368.549C364.933 36.8196 361.671 33.5199 360.257 28.4396L360.206 28.2686H312.252C306.503 28.2685 300.943 30.3091 296.569 34.0242C292.195 37.7393 289.293 42.8857 288.385 48.5395H450.682C449.774 42.8874 446.874 37.7424 442.502 34.0275C438.131 30.3126 432.573 28.2708 426.826 28.2686H378.922L378.871 28.4396Z" fill="#D4D4D4"/>
<path d="M461.338 116.354V85.8621H458.54V46.8293C458.54 40.4472 455.995 34.3266 451.464 29.8138C446.933 25.301 440.788 22.7657 434.381 22.7657H304.656C301.484 22.7657 298.342 23.3882 295.411 24.5975C292.48 25.8068 289.817 27.5793 287.573 29.8138C285.33 32.0483 283.55 34.701 282.336 37.6206C281.122 40.5401 280.497 43.6692 280.497 46.8293V357.009C280.497 360.169 281.122 363.298 282.336 366.218C283.55 369.137 285.33 371.79 287.573 374.025C289.817 376.259 292.48 378.032 295.411 379.241C298.342 380.45 301.484 381.073 304.656 381.073H434.411C440.813 381.065 446.95 378.526 451.475 374.014C455.999 369.502 458.54 363.386 458.54 357.009V142.339H461.307V124.321H458.54V116.354H461.338ZM450.985 339.827C450.983 346.208 448.436 352.327 443.906 356.839C439.376 361.351 433.233 363.888 426.826 363.89H312.252C309.079 363.89 305.937 363.268 303.006 362.059C300.075 360.849 297.412 359.077 295.168 356.842C292.925 354.608 291.146 351.955 289.931 349.035C288.717 346.116 288.092 342.987 288.092 339.827V52.312C288.098 45.9334 290.645 39.8179 295.176 35.3095C299.706 30.8011 305.848 28.2686 312.252 28.2686H360.156L360.206 28.4396C361.62 33.5199 364.883 36.8196 368.499 36.8196H370.519C374.144 36.8196 377.397 33.5199 378.821 28.4396L378.871 28.2686H426.826C433.229 28.2712 439.369 30.8046 443.899 35.3124C448.429 39.8203 450.977 45.9342 450.985 52.312V339.827Z" fill="#707070" stroke="#263238" stroke-width="1.50998" stroke-linejoin="round"/>
<path d="M432.482 26.0858H306.596C303.535 26.0845 300.505 26.6839 297.677 27.8498C294.85 29.0156 292.281 30.7251 290.117 32.8805C287.953 35.0358 286.236 37.5948 285.066 40.4112C283.895 43.2276 283.294 46.2461 283.295 49.2942V354.555C283.295 357.602 283.898 360.62 285.069 363.435C286.24 366.25 287.956 368.808 290.12 370.962C292.284 373.116 294.853 374.825 297.68 375.99C300.507 377.156 303.536 377.755 306.596 377.753H432.482C435.541 377.753 438.569 377.153 441.395 375.987C444.221 374.822 446.788 373.113 448.951 370.959C451.114 368.804 452.829 366.247 454 363.433C455.17 360.618 455.773 357.601 455.773 354.555V49.2942C455.774 46.2469 455.173 43.2292 454.003 40.4135C452.833 37.5978 451.117 35.0392 448.955 32.884C446.792 30.7288 444.224 29.0191 441.397 27.8526C438.571 26.6862 435.541 26.0858 432.482 26.0858ZM450.985 340.682C450.985 346.837 448.53 352.741 444.161 357.093C439.791 361.445 433.864 363.891 427.685 363.891H311.393C305.213 363.891 299.287 361.445 294.917 357.093C290.547 352.741 288.092 346.837 288.092 340.682V51.4672C288.092 45.3146 290.546 39.414 294.914 35.0635C299.282 30.7129 305.206 28.2688 311.383 28.2688H360.156L360.206 28.4399C361.62 33.5202 364.883 36.8198 368.499 36.8198H370.519C374.144 36.8198 377.397 33.5202 378.821 28.4399L378.871 28.2688H427.634C433.814 28.2688 439.74 30.714 444.11 35.0664C448.48 39.4189 450.935 45.322 450.935 51.4773L450.985 340.682Z" fill="#263238" stroke="#263238" stroke-width="1.50998" stroke-linejoin="round"/>
<path d="M371.306 29.4155C371.306 28.9678 371.173 28.5302 370.923 28.1579C370.674 27.7857 370.319 27.4956 369.903 27.3243C369.488 27.153 369.031 27.1081 368.59 27.1955C368.15 27.2828 367.745 27.4984 367.427 27.8149C367.109 28.1315 366.893 28.5348 366.805 28.9739C366.717 29.413 366.762 29.8681 366.934 30.2817C367.106 30.6953 367.397 31.0488 367.771 31.2975C368.145 31.5462 368.584 31.679 369.034 31.679C369.333 31.6803 369.629 31.6227 369.905 31.5094C370.181 31.3961 370.432 31.2294 370.644 31.019C370.855 30.8085 371.022 30.5585 371.136 30.2833C371.25 30.008 371.308 29.7131 371.306 29.4155Z" fill="white"/>
<path d="M302.566 38.0771C302.566 40.3607 299.99 41.1856 299.98 42.926V43.0467H302.485V43.8113H299.142V43.1674C299.142 40.7228 301.717 40.24 301.717 38.1374C301.717 37.3628 301.455 36.9503 300.828 36.9503C300.202 36.9503 299.94 37.393 299.94 38.067V38.731H299.142V38.1173C299.142 36.9604 299.677 36.1858 300.849 36.1858C302.02 36.1858 302.566 36.9202 302.566 38.0771Z" fill="#263238"/>
<path d="M306.737 38.067V38.228C306.773 38.5531 306.701 38.8809 306.534 39.1622C306.366 39.4434 306.111 39.6628 305.808 39.7873C306.113 39.9123 306.369 40.1332 306.537 40.4165C306.705 40.6998 306.775 41.03 306.737 41.3567V41.9401C306.737 43.1071 306.191 43.8616 305.02 43.8616C303.848 43.8616 303.313 43.1071 303.313 41.9401V41.4271H304.101V42.0005C304.101 42.6846 304.384 43.097 304.99 43.097C305.596 43.097 305.888 42.6946 305.888 41.92V41.3365C305.888 40.5921 305.565 40.2299 304.929 40.2098H304.474V39.4553H305.02C305.149 39.456 305.276 39.4296 305.394 39.3781C305.512 39.3265 305.618 39.2509 305.704 39.156C305.791 39.0612 305.856 38.9493 305.897 38.8275C305.937 38.7058 305.952 38.5769 305.939 38.4493V38.0972C305.939 37.3226 305.666 36.9202 305.04 36.9202C304.414 36.9202 304.151 37.3427 304.151 38.0268V38.4091H303.363V38.067C303.363 36.9101 303.899 36.1556 305.07 36.1556C306.242 36.1556 306.737 36.9101 306.737 38.067Z" fill="#263238"/>
<path d="M308.373 38.6405V39.6465H307.565V38.6405H308.373ZM308.373 42.7651V43.7711H307.565V42.7651H308.373Z" fill="#263238"/>
<path d="M310.07 39.3245C310.182 39.1253 310.346 38.9606 310.546 38.8488C310.746 38.7369 310.972 38.6822 311.201 38.6907C312.211 38.6907 312.615 39.405 312.615 40.4915V41.9703C312.615 43.1372 312.07 43.8917 310.898 43.8917C309.727 43.8917 309.191 43.1372 309.191 41.9703V41.4673H309.989V42.0306C309.989 42.7147 310.272 43.1272 310.878 43.1272C311.484 43.1272 311.767 42.7147 311.767 42.0306V40.5518C311.767 39.8778 311.484 39.4653 310.878 39.4653C310.768 39.4613 310.659 39.479 310.556 39.5174C310.454 39.5558 310.36 39.6141 310.28 39.689C310.2 39.7639 310.136 39.8538 310.091 39.9536C310.046 40.0533 310.022 40.1609 310.019 40.2701V40.4512H309.232L309.434 36.2361H312.464V36.9906H310.221L310.07 39.3245Z" fill="#263238"/>
<path d="M316.867 38.057V38.228H316.13V38.0268C316.13 37.3528 315.847 36.9504 315.221 36.9504C314.595 36.9504 314.302 37.3628 314.302 38.1676V39.8376C314.391 39.5882 314.56 39.3747 314.783 39.2294C315.005 39.0842 315.269 39.0152 315.534 39.0328C316.544 39.0328 316.948 39.737 316.948 40.8235V41.9703C316.948 43.1373 316.362 43.8918 315.201 43.8918C314.039 43.8918 313.453 43.1373 313.453 41.9703V38.1073C313.453 36.9101 313.999 36.1556 315.201 36.1556C316.403 36.1556 316.867 36.9001 316.867 38.057ZM314.251 40.8939V42.0307C314.251 42.7148 314.534 43.1272 315.15 43.1272C315.766 43.1272 316.059 42.7148 316.059 42.0307V40.8939C316.059 40.2098 315.766 39.7974 315.15 39.7974C314.534 39.7974 314.251 40.24 314.251 40.8939Z" fill="#263238"/>
<path d="M399.97 38.389H397.819V43.741H399.97V38.389Z" fill="#263238"/>
<path d="M402.838 37.3125H400.687V43.7408H402.838V37.3125Z" fill="#263238"/>
<path d="M405.697 36.558H403.545V43.7408H405.697V36.558Z" fill="#263238"/>
<path d="M408.565 35.2301H406.414V43.7409H408.565V35.2301Z" fill="#263238"/>
<path d="M435.159 43.59H422.261V35.7432H435.159V43.59ZM422.978 42.8757H434.441V36.4574H422.978V42.8757Z" fill="#263238"/>
<path d="M430.866 37.2322H424.058V42.1012H430.866V37.2322Z" fill="#263238"/>
<path d="M436.34 38.7412H434.714V40.5923H436.34V38.7412Z" fill="#263238"/>
<path d="M417.534 41.89C417.449 41.8869 417.365 41.8627 417.292 41.8196C414.666 40.2603 412.928 41.7089 412.858 41.8196C412.81 41.8612 412.755 41.8929 412.695 41.9129C412.635 41.9329 412.572 41.9408 412.509 41.9362C412.446 41.9315 412.384 41.9143 412.328 41.8856C412.272 41.857 412.222 41.8174 412.181 41.7693C412.093 41.6791 412.043 41.5582 412.043 41.4323C412.043 41.3063 412.093 41.1854 412.181 41.0952C412.272 41.0148 414.494 39.0832 417.746 41.0952C417.8 41.1273 417.847 41.1697 417.885 41.2201C417.922 41.2704 417.949 41.3277 417.964 41.3885C417.979 41.4494 417.982 41.5126 417.972 41.5745C417.963 41.6364 417.941 41.6958 417.908 41.7491C417.859 41.7972 417.8 41.8345 417.736 41.8588C417.671 41.883 417.603 41.8937 417.534 41.89Z" fill="#263238"/>
<path d="M418.504 40.24C418.419 40.2404 418.336 40.2197 418.261 40.1796C414.464 37.9262 411.918 40.0992 411.888 40.1193C411.841 40.1609 411.786 40.1929 411.727 40.2134C411.667 40.2339 411.604 40.2425 411.541 40.2387C411.479 40.235 411.417 40.219 411.36 40.1916C411.304 40.1642 411.253 40.1259 411.211 40.079C411.17 40.0321 411.137 39.9775 411.117 39.9182C411.096 39.859 411.088 39.7963 411.091 39.7337C411.095 39.6711 411.111 39.6099 411.139 39.5535C411.166 39.4971 411.205 39.4466 411.252 39.405C411.252 39.405 414.363 36.7492 418.756 39.3547C418.81 39.3868 418.857 39.4292 418.895 39.4795C418.932 39.5299 418.959 39.5872 418.974 39.648C418.989 39.7088 418.992 39.772 418.982 39.834C418.973 39.8959 418.951 39.9552 418.918 40.0086C418.874 40.0793 418.814 40.1377 418.741 40.1783C418.668 40.2188 418.587 40.24 418.504 40.24Z" fill="#263238"/>
<path d="M419.392 38.4092C419.304 38.4062 419.217 38.382 419.14 38.3388C414.332 35.4918 411.141 38.1678 411.009 38.3388C410.962 38.3804 410.907 38.4121 410.847 38.4322C410.787 38.4522 410.723 38.4601 410.66 38.4554C410.597 38.4507 410.536 38.4335 410.48 38.4049C410.423 38.3762 410.373 38.3367 410.333 38.2885C410.288 38.2445 410.252 38.1921 410.228 38.1342C410.203 38.0763 410.191 38.0142 410.191 37.9515C410.191 37.8888 410.203 37.8267 410.228 37.7688C410.252 37.7109 410.288 37.6585 410.333 37.6145C410.333 37.6145 414.161 34.345 419.594 37.5642C419.703 37.6291 419.782 37.734 419.814 37.8562C419.846 37.9785 419.829 38.1084 419.766 38.2181C419.722 38.2753 419.665 38.3221 419.601 38.3551C419.536 38.3881 419.465 38.4066 419.392 38.4092Z" fill="#263238"/>
<path d="M416.12 42.6847C416.122 42.9239 416.052 43.1582 415.92 43.3581C415.788 43.5579 415.6 43.7142 415.379 43.8071C415.157 43.9001 414.913 43.9254 414.678 43.88C414.442 43.8345 414.225 43.7204 414.054 43.5519C413.884 43.3835 413.767 43.1684 413.72 42.934C413.672 42.6995 413.696 42.4563 413.787 42.2351C413.879 42.014 414.034 41.8248 414.233 41.6917C414.433 41.5586 414.668 41.4876 414.908 41.4875C415.227 41.4875 415.534 41.6133 415.761 41.8376C415.988 42.0618 416.117 42.3663 416.12 42.6847Z" fill="#263238"/>
<path d="M442.269 110.851H298.384V202.568H442.269V110.851Z" fill="white" stroke="#263238" stroke-width="1.50998" stroke-linecap="round" stroke-linejoin="round"/>
<path d="M442.269 192.357H298.384V202.578H442.269V192.357Z" fill="white" stroke="#263238" stroke-width="1.50998" stroke-linecap="round" stroke-linejoin="round"/>
<path d="M442.269 195.979H298.384V198.957H442.269V195.979Z" fill="white" stroke="#263238" stroke-width="1.50998" stroke-linecap="round" stroke-linejoin="round"/>
<path d="M300.697 100.962L300.919 88.1357H303.697L305.293 96.1837L306.989 88.1357H309.686L309.908 100.962H308.05L307.838 92.2704L306.202 100.962H304.515L302.798 92.2L302.616 100.962H300.697Z" fill="#263238"/>
<path d="M313.393 100.962V95.9322L310.878 88.186H313.342L314.726 92.6929L316.009 88.186H318.402L315.918 95.9322V100.962H313.393Z" fill="#263238"/>
<path d="M326.957 101.143C326.163 101.184 325.374 100.995 324.685 100.6C324.136 100.248 323.726 99.7188 323.523 99.101C323.292 98.3831 323.182 97.6316 323.2 96.8778V92.2703C323.183 91.4926 323.296 90.7176 323.533 89.9766C323.737 89.3758 324.144 88.8639 324.685 88.528C325.378 88.145 326.165 87.9638 326.957 88.0049C327.708 87.9673 328.456 88.1233 329.129 88.4576C329.641 88.7506 330.034 89.2134 330.24 89.7654C330.469 90.3864 330.579 91.0452 330.563 91.7069V92.7532H328.018V91.546C328.034 91.2679 328.034 90.9891 328.018 90.711C327.998 90.4778 327.906 90.2565 327.755 90.0772C327.653 89.9893 327.534 89.9226 327.406 89.8811C327.277 89.8397 327.142 89.8242 327.008 89.8358C326.871 89.8242 326.733 89.8406 326.603 89.8838C326.472 89.927 326.352 89.9963 326.25 90.0873C326.082 90.268 325.976 90.4968 325.947 90.7412C325.905 91.0378 325.885 91.337 325.886 91.6365V97.4713C325.884 97.785 325.911 98.0982 325.967 98.4069C326.008 98.645 326.125 98.8637 326.301 99.0306C326.504 99.1823 326.754 99.2572 327.008 99.2419C327.139 99.2555 327.272 99.241 327.397 99.1993C327.523 99.1577 327.638 99.0899 327.735 99.0004C327.887 98.8093 327.982 98.5791 328.007 98.3365C328.028 98.0485 328.028 97.7593 328.007 97.4713V96.2239H330.553V97.2902C330.567 97.974 330.461 98.655 330.24 99.3022C330.037 99.8659 329.649 100.345 329.139 100.66C328.471 101.022 327.715 101.19 326.957 101.143Z" fill="#263238"/>
<path d="M335.764 101.143C334.984 101.182 334.208 101.004 333.522 100.63C332.974 100.295 332.557 99.7841 332.34 99.1815C332.09 98.4569 331.97 97.694 331.987 96.928V92.1395C331.97 91.3734 332.09 90.6105 332.34 89.886C332.558 89.2917 332.976 88.7907 333.522 88.4676C334.212 88.1059 334.986 87.9356 335.764 87.9746C336.552 87.9336 337.337 88.1038 338.037 88.4676C338.585 88.7958 339.005 89.2994 339.229 89.8961C339.487 90.6152 339.611 91.3757 339.592 92.1395V96.928C339.61 97.695 339.487 98.4588 339.229 99.1815C339.011 99.7868 338.59 100.299 338.037 100.63C337.341 101.006 336.555 101.184 335.764 101.143ZM335.764 99.2519C335.9 99.2662 336.037 99.253 336.167 99.2133C336.297 99.1735 336.418 99.1079 336.522 99.0205C336.686 98.8523 336.795 98.6383 336.835 98.4068C336.889 98.1317 336.916 97.8521 336.916 97.5719V91.5459C336.916 91.269 336.889 90.9927 336.835 90.721C336.791 90.4909 336.683 90.278 336.522 90.1073C336.306 89.9411 336.036 89.862 335.764 89.886C335.509 89.8679 335.256 89.947 335.057 90.1073C334.89 90.2746 334.777 90.4886 334.734 90.721C334.68 90.9927 334.653 91.269 334.653 91.5459V97.5819C334.655 97.8617 334.679 98.1408 334.724 98.4169C334.759 98.6498 334.869 98.8652 335.037 99.0306C335.241 99.1959 335.502 99.2753 335.764 99.2519Z" fill="#263238"/>
<path d="M344.965 101.143C344.176 101.187 343.39 101.013 342.693 100.64C342.151 100.313 341.746 99.8023 341.552 99.2017C341.318 98.4602 341.208 97.6852 341.228 96.9081V88.1357H343.814V97.2702C343.817 97.5833 343.84 97.8959 343.885 98.2058C343.921 98.479 344.033 98.7367 344.208 98.9502C344.304 99.0522 344.422 99.1314 344.553 99.1819C344.684 99.2324 344.825 99.2529 344.965 99.242C345.107 99.2496 345.248 99.2276 345.38 99.1774C345.513 99.1271 345.633 99.0497 345.733 98.9502C345.909 98.7381 346.017 98.4792 346.046 98.2058C346.087 97.8956 346.107 97.5831 346.107 97.2702V88.1357H348.702V96.9081C348.718 97.6849 348.609 98.4592 348.379 99.2017C348.173 99.7857 347.77 100.28 347.238 100.6C346.544 100.984 345.758 101.172 344.965 101.143Z" fill="#263238"/>
<path d="M350.53 100.962V88.1356H353.873C354.628 88.1165 355.381 88.215 356.106 88.4274C356.687 88.5852 357.195 88.9412 357.54 89.4334C357.896 90.0424 358.068 90.7412 358.035 91.4454C358.042 91.9148 357.998 92.3837 357.903 92.8437C357.816 93.2079 357.654 93.5503 357.429 93.8497C357.161 94.1749 356.813 94.4247 356.419 94.574L358.206 100.831H355.52L354.035 95.0167H353.116V100.831L350.53 100.962ZM353.156 93.5982H353.914C354.263 93.6161 354.611 93.5433 354.924 93.3869C355.169 93.2519 355.353 93.0288 355.439 92.7632C355.545 92.4385 355.596 92.0986 355.591 91.7572C355.619 91.2827 355.507 90.8103 355.267 90.3991C355.117 90.2283 354.927 90.0968 354.714 90.0162C354.501 89.9355 354.271 89.9081 354.045 89.9364H353.156V93.5982Z" fill="#263238"/>
<path d="M363.095 101.143C362.394 101.173 361.698 101.02 361.075 100.701C360.543 100.405 360.121 99.9467 359.873 99.3928C359.581 98.6799 359.423 97.9193 359.408 97.1495L361.671 96.7672C361.679 97.2108 361.733 97.6525 361.832 98.085C361.892 98.3838 362.035 98.6595 362.247 98.8798C362.437 99.0522 362.686 99.1458 362.943 99.1413C363.076 99.1569 363.21 99.1361 363.331 99.0811C363.452 99.0261 363.555 98.9391 363.63 98.8295C363.754 98.6047 363.817 98.3515 363.812 98.0951C363.827 97.617 363.693 97.1461 363.428 96.747C363.136 96.3404 362.797 95.969 362.418 95.6405L361.085 94.4835C360.62 94.1003 360.224 93.641 359.913 93.1255C359.596 92.5538 359.439 91.9074 359.459 91.2543C359.431 90.806 359.499 90.3568 359.659 89.9369C359.819 89.5169 360.068 89.1361 360.388 88.8198C361.101 88.2255 362.015 87.9234 362.943 87.9747C363.489 87.9515 364.033 88.0585 364.529 88.2866C364.939 88.4731 365.288 88.7691 365.539 89.1417C365.765 89.4963 365.926 89.888 366.014 90.2986C366.101 90.7064 366.158 91.1199 366.186 91.536L363.933 91.868C363.919 91.531 363.885 91.1951 363.832 90.862C363.809 90.6079 363.71 90.3665 363.549 90.1678C363.46 90.0784 363.353 90.0089 363.235 89.964C363.117 89.9192 362.991 89.8999 362.865 89.9075C362.738 89.9151 362.615 89.9495 362.503 90.0082C362.392 90.067 362.294 90.1488 362.216 90.2483C362.073 90.4744 361.996 90.7356 361.994 91.0028C361.981 91.3982 362.09 91.7879 362.307 92.1195C362.558 92.4521 362.843 92.7588 363.156 93.0349L364.458 94.1717C364.999 94.6305 365.469 95.1661 365.852 95.7612C366.262 96.4255 366.466 97.1953 366.438 97.9744C366.445 98.5443 366.302 99.1061 366.024 99.6041C365.752 100.084 365.354 100.48 364.873 100.751C364.324 101.032 363.712 101.167 363.095 101.143Z" fill="#263238"/>
<path d="M367.579 100.962V88.1357H373.195V89.9365H370.165V93.3468H372.478V95.1677H370.165V99.1917H373.195V100.962H367.579Z" fill="#263238"/>
<path d="M300.091 220.244V210.123H301.485V220.244H300.091Z" fill="#263238"/>
<path d="M303.131 220.244V210.123H304.091L306.979 216.843V210.123H308.161V220.244H307.252L304.333 213.332V220.244H303.131Z" fill="#263238"/>
<path d="M310.868 220.243V211.189H309.151V210.183H313.958V211.189H312.292V220.243H310.868Z" fill="#263238"/>
<path d="M314.938 220.244V210.123H316.958C317.533 210.106 318.105 210.198 318.645 210.395C319.077 210.544 319.437 210.849 319.655 211.25C319.888 211.736 319.998 212.271 319.978 212.809C319.984 213.169 319.939 213.528 319.847 213.876C319.779 214.173 319.644 214.452 319.453 214.69C319.258 214.913 319.007 215.08 318.726 215.173L320.16 220.203H318.796L317.463 215.455H316.362V220.203L314.938 220.244ZM316.352 214.479H316.887C317.23 214.498 317.573 214.45 317.897 214.338C318.142 214.246 318.342 214.062 318.453 213.825C318.584 213.507 318.642 213.163 318.625 212.819C318.664 212.369 318.55 211.919 318.301 211.542C318.127 211.388 317.921 211.273 317.698 211.205C317.475 211.138 317.24 211.119 317.009 211.149H316.382L316.352 214.479Z" fill="#263238"/>
<path d="M324.048 220.314C323.473 220.342 322.902 220.206 322.402 219.922C321.987 219.65 321.677 219.245 321.523 218.775C321.334 218.215 321.245 217.625 321.261 217.035V213.272C321.25 212.688 321.339 212.106 321.523 211.552C321.686 211.099 321.995 210.713 322.402 210.455C322.905 210.18 323.475 210.048 324.048 210.073C324.617 210.045 325.182 210.181 325.674 210.465C326.081 210.722 326.387 211.108 326.543 211.562C326.737 212.111 326.83 212.69 326.816 213.272V217.125C326.826 217.71 326.734 218.292 326.543 218.845C326.389 219.313 326.083 219.716 325.674 219.992C325.176 220.257 324.61 220.369 324.048 220.314ZM324.048 219.207C324.349 219.227 324.648 219.146 324.897 218.976C325.096 218.807 325.234 218.577 325.291 218.322C325.357 217.991 325.388 217.654 325.382 217.316V212.88C325.389 212.542 325.358 212.205 325.291 211.874C325.231 211.629 325.093 211.41 324.897 211.25C324.643 211.093 324.346 211.019 324.048 211.039C323.744 211.019 323.441 211.093 323.18 211.25C322.984 211.41 322.845 211.629 322.786 211.874C322.714 212.204 322.68 212.542 322.685 212.88V217.316C322.681 217.654 322.715 217.992 322.786 218.322C322.842 218.577 322.98 218.807 323.18 218.976C323.431 219.16 323.737 219.255 324.048 219.248V219.207Z" fill="#263238"/>
<path d="M328.25 220.244V210.123H330.462C331.077 210.095 331.689 210.212 332.25 210.465C332.671 210.681 333.004 211.037 333.189 211.471C333.39 212.019 333.486 212.599 333.472 213.182V216.904C333.485 217.519 333.389 218.132 333.189 218.715C333.021 219.181 332.696 219.575 332.27 219.831C331.75 220.112 331.163 220.245 330.573 220.214L328.25 220.244ZM329.664 219.238H330.472C330.864 219.276 331.256 219.168 331.573 218.936C331.81 218.704 331.951 218.391 331.967 218.061C332.02 217.6 332.043 217.136 332.037 216.672V213.383C332.047 212.955 332.013 212.527 331.936 212.105C331.918 211.964 331.87 211.828 331.795 211.707C331.72 211.585 331.621 211.481 331.502 211.401C331.174 211.227 330.803 211.147 330.432 211.17H329.664V219.238Z" fill="#263238"/>
<path d="M337.441 220.314C336.847 220.354 336.255 220.202 335.754 219.881C335.351 219.577 335.066 219.144 334.946 218.654C334.796 218.045 334.725 217.42 334.734 216.793V210.083H336.088V216.853C336.085 217.251 336.115 217.648 336.179 218.04C336.216 218.358 336.35 218.656 336.562 218.896C336.679 219.005 336.818 219.09 336.969 219.143C337.12 219.197 337.281 219.219 337.441 219.207C337.604 219.219 337.768 219.197 337.922 219.143C338.077 219.089 338.219 219.005 338.34 218.896C338.545 218.653 338.675 218.356 338.714 218.04C338.773 217.648 338.8 217.251 338.794 216.853V210.083H340.138V216.793C340.147 217.42 340.076 218.045 339.926 218.654C339.81 219.143 339.528 219.576 339.128 219.881C338.627 220.203 338.035 220.355 337.441 220.314Z" fill="#263238"/>
<path d="M344.178 220.314C343.589 220.348 343.005 220.193 342.511 219.871C342.107 219.569 341.815 219.14 341.683 218.654C341.518 218.103 341.44 217.529 341.451 216.954V213.383C341.437 212.777 341.516 212.174 341.683 211.592C341.814 211.116 342.107 210.7 342.511 210.415C342.997 210.15 343.54 210.005 344.093 209.993C344.647 209.981 345.195 210.101 345.693 210.344C346.07 210.578 346.355 210.933 346.501 211.35C346.674 211.855 346.756 212.387 346.743 212.92V213.715H345.42V213C345.424 212.664 345.403 212.328 345.359 211.994C345.341 211.741 345.234 211.502 345.056 211.32C344.816 211.141 344.517 211.058 344.218 211.089C343.904 211.059 343.59 211.149 343.339 211.34C343.144 211.537 343.017 211.791 342.976 212.065C342.92 212.428 342.892 212.794 342.895 213.161V217.185C342.881 217.589 342.925 217.992 343.026 218.382C343.076 218.639 343.225 218.867 343.44 219.016C343.674 219.157 343.945 219.224 344.218 219.207C344.367 219.22 344.516 219.204 344.658 219.159C344.8 219.114 344.932 219.042 345.046 218.946C345.223 218.75 345.333 218.504 345.359 218.242C345.401 217.908 345.421 217.572 345.42 217.236V216.481H346.763V217.236C346.769 217.787 346.694 218.336 346.541 218.865C346.413 219.31 346.135 219.697 345.753 219.962C345.278 220.242 344.727 220.365 344.178 220.314Z" fill="#263238"/>
<path d="M349.217 220.243V211.189H347.49V210.183H352.298V211.189H350.631V220.243H349.217Z" fill="#263238"/>
<path d="M353.348 220.244V210.123H354.742V220.244H353.348Z" fill="#263238"/>
<path d="M358.984 220.314C358.412 220.343 357.844 220.207 357.348 219.922C356.933 219.65 356.623 219.245 356.469 218.775C356.28 218.215 356.191 217.626 356.207 217.035V213.272C356.191 212.688 356.28 212.105 356.469 211.552C356.632 211.099 356.941 210.713 357.348 210.455C357.846 210.177 358.414 210.044 358.984 210.073C359.556 210.044 360.124 210.18 360.62 210.465C361.024 210.725 361.33 211.11 361.489 211.562C361.683 212.111 361.776 212.69 361.762 213.272V217.125C361.772 217.71 361.68 218.292 361.489 218.845C361.332 219.311 361.027 219.713 360.62 219.992C360.119 220.257 359.55 220.369 358.984 220.314ZM358.984 219.208C359.288 219.228 359.591 219.147 359.843 218.976C360.043 218.809 360.178 218.578 360.227 218.322C360.303 217.993 360.337 217.655 360.328 217.316V212.88C360.338 212.542 360.304 212.203 360.227 211.874C360.175 211.628 360.039 211.408 359.843 211.25C359.586 211.091 359.286 211.017 358.984 211.039C358.683 211.02 358.384 211.094 358.126 211.25C357.93 211.41 357.791 211.629 357.732 211.874C357.655 212.203 357.621 212.542 357.631 212.88V217.316C357.622 217.655 357.656 217.993 357.732 218.322C357.788 218.577 357.926 218.807 358.126 218.976C358.374 219.158 358.676 219.254 358.984 219.248V219.208Z" fill="#263238"/>
<path d="M363.156 220.244V210.123H364.115L367.004 216.843V210.123H368.185V220.244H367.276L364.357 213.332V220.244H363.156Z" fill="#263238"/>
<path d="M305.323 129.563V119.976H307.535C307.917 119.971 308.297 120.018 308.666 120.117C308.962 120.201 309.235 120.353 309.464 120.559C309.688 120.763 309.852 121.024 309.939 121.314C310.055 121.657 310.11 122.018 310.1 122.38C310.105 122.721 310.054 123.061 309.949 123.386C309.863 123.649 309.706 123.882 309.494 124.06C309.271 124.238 309.001 124.35 308.716 124.382C309.063 124.445 309.387 124.598 309.656 124.825C309.899 125.044 310.083 125.321 310.191 125.629C310.311 126.01 310.369 126.407 310.363 126.806C310.365 127.187 310.317 127.565 310.221 127.933C310.132 128.25 309.977 128.545 309.767 128.798C309.559 129.041 309.296 129.23 308.999 129.352C308.644 129.484 308.267 129.549 307.888 129.543L305.323 129.563ZM306.666 123.98H307.464C307.769 123.99 308.072 123.935 308.353 123.819C308.563 123.712 308.722 123.528 308.797 123.306C308.896 123.007 308.94 122.694 308.929 122.38C308.969 122.032 308.898 121.68 308.727 121.374C308.655 121.271 308.562 121.185 308.454 121.121C308.346 121.057 308.225 121.016 308.1 121.002C307.733 120.943 307.361 120.916 306.989 120.921H306.666V123.98ZM306.666 128.607H307.565C307.786 128.637 308.011 128.614 308.222 128.541C308.433 128.467 308.623 128.345 308.777 128.185C309.012 127.772 309.117 127.299 309.08 126.827C309.087 126.484 309.032 126.144 308.918 125.821C308.822 125.563 308.641 125.347 308.403 125.207C308.115 125.053 307.791 124.98 307.464 124.996H306.666V128.607Z" fill="#263238"/>
<path d="M314.029 129.663C313.463 129.702 312.9 129.558 312.423 129.251C312.04 128.964 311.771 128.55 311.666 128.084C311.524 127.512 311.456 126.923 311.464 126.334V119.976H312.746V126.394C312.745 126.768 312.772 127.141 312.827 127.511C312.866 127.809 312.993 128.089 313.191 128.315C313.301 128.422 313.433 128.504 313.577 128.556C313.722 128.608 313.876 128.629 314.029 128.617C314.184 128.629 314.34 128.609 314.486 128.557C314.632 128.505 314.765 128.422 314.878 128.315C315.072 128.087 315.195 127.808 315.231 127.511C315.286 127.141 315.313 126.768 315.312 126.394V119.976H316.584V126.334C316.592 126.923 316.524 127.512 316.382 128.084C316.277 128.55 316.009 128.964 315.625 129.251C315.153 129.56 314.592 129.705 314.029 129.663Z" fill="#263238"/>
<path d="M320.261 129.664C319.775 129.683 319.294 129.561 318.877 129.311C318.504 129.066 318.213 128.716 318.039 128.305C317.846 127.842 317.736 127.348 317.716 126.847L318.897 126.525C318.924 126.864 318.978 127.2 319.059 127.531C319.128 127.82 319.271 128.087 319.473 128.305C319.575 128.409 319.698 128.49 319.834 128.542C319.97 128.594 320.115 128.617 320.261 128.607C320.407 128.619 320.554 128.599 320.692 128.549C320.83 128.499 320.955 128.419 321.059 128.316C321.247 128.079 321.341 127.782 321.321 127.481C321.33 127.123 321.227 126.772 321.028 126.475C320.804 126.188 320.554 125.922 320.281 125.68L318.665 124.251C318.367 124.008 318.125 123.702 317.958 123.356C317.798 122.971 317.722 122.556 317.736 122.139C317.717 121.84 317.761 121.541 317.865 121.26C317.97 120.979 318.132 120.723 318.342 120.509C318.563 120.307 318.823 120.152 319.106 120.052C319.389 119.951 319.688 119.909 319.988 119.925C320.331 119.918 320.672 119.969 320.998 120.076C321.27 120.169 321.515 120.324 321.715 120.529C321.927 120.749 322.086 121.014 322.18 121.304C322.307 121.657 322.385 122.026 322.412 122.4L321.271 122.702C321.252 122.41 321.205 122.12 321.129 121.837C321.069 121.591 320.939 121.368 320.756 121.193C320.54 121.018 320.265 120.932 319.988 120.952C319.847 120.943 319.705 120.963 319.572 121.01C319.438 121.056 319.316 121.129 319.21 121.223C319.111 121.327 319.036 121.451 318.989 121.586C318.942 121.722 318.924 121.865 318.938 122.008C318.931 122.257 318.979 122.504 319.079 122.732C319.203 122.952 319.368 123.146 319.564 123.306L321.18 124.744C321.557 125.068 321.88 125.448 322.139 125.871C322.431 126.338 322.579 126.88 322.564 127.43C322.575 127.856 322.47 128.276 322.261 128.647C322.074 128.982 321.793 129.255 321.453 129.432C321.08 129.603 320.671 129.683 320.261 129.664Z" fill="#263238"/>
<path d="M323.685 129.563V119.976H325.008V129.563H323.685Z" fill="#263238"/>
<path d="M326.563 129.563V119.976H327.472L330.209 126.344V119.976H331.28V129.563H330.432L327.664 123.024V129.563H326.563Z" fill="#263238"/>
<path d="M332.835 129.563V119.976H336.562V120.982H334.179V124.151H336.108V125.096H334.179V128.617H336.582V129.573L332.835 129.563Z" fill="#263238"/>
<path d="M339.936 129.664C339.45 129.685 338.968 129.563 338.552 129.311C338.179 129.066 337.888 128.716 337.714 128.305C337.512 127.844 337.399 127.349 337.38 126.847L338.572 126.525C338.588 126.865 338.643 127.202 338.734 127.531C338.8 127.819 338.939 128.086 339.138 128.305C339.241 128.411 339.365 128.492 339.503 128.544C339.641 128.597 339.789 128.618 339.936 128.607C340.08 128.618 340.226 128.597 340.361 128.547C340.497 128.497 340.621 128.418 340.723 128.316C340.919 128.083 341.017 127.783 340.996 127.481C341.006 127.122 340.9 126.769 340.693 126.475C340.474 126.183 340.224 125.916 339.946 125.68L338.33 124.251C338.037 124.005 337.8 123.7 337.633 123.356C337.469 122.971 337.39 122.556 337.401 122.139C337.383 121.839 337.429 121.539 337.535 121.259C337.641 120.978 337.805 120.722 338.017 120.509C338.238 120.307 338.498 120.152 338.781 120.052C339.063 119.951 339.363 119.909 339.663 119.925C340.006 119.918 340.347 119.969 340.673 120.076C340.949 120.166 341.198 120.322 341.4 120.529C341.608 120.752 341.766 121.016 341.865 121.304C341.987 121.658 342.065 122.027 342.097 122.4L340.956 122.702C340.937 122.41 340.89 122.12 340.814 121.837C340.75 121.593 340.621 121.371 340.441 121.193C340.224 121.02 339.95 120.934 339.673 120.952C339.532 120.94 339.389 120.958 339.255 121.005C339.121 121.052 338.999 121.126 338.895 121.223C338.795 121.326 338.717 121.45 338.669 121.585C338.62 121.72 338.601 121.865 338.613 122.008C338.604 122.258 338.656 122.506 338.764 122.732C338.888 122.952 339.053 123.146 339.249 123.306L340.875 124.734C341.252 125.058 341.575 125.438 341.834 125.861C342.118 126.331 342.262 126.872 342.249 127.42C342.259 127.844 342.158 128.264 341.956 128.637C341.764 128.972 341.48 129.244 341.138 129.422C340.763 129.601 340.35 129.683 339.936 129.664Z" fill="#263238"/>
<path d="M345.551 129.664C345.065 129.684 344.584 129.562 344.168 129.311C343.795 129.066 343.503 128.716 343.329 128.305C343.128 127.844 343.015 127.349 342.996 126.847L344.188 126.525C344.209 126.865 344.263 127.201 344.349 127.531C344.419 127.818 344.558 128.083 344.753 128.305C344.856 128.411 344.981 128.492 345.119 128.544C345.257 128.597 345.404 128.618 345.551 128.607C345.696 128.618 345.841 128.597 345.977 128.547C346.113 128.497 346.236 128.418 346.339 128.316C346.535 128.083 346.632 127.783 346.612 127.481C346.621 127.122 346.515 126.769 346.309 126.475C346.09 126.183 345.839 125.916 345.561 125.68L343.945 124.251C343.653 124.005 343.416 123.7 343.248 123.356C343.088 122.971 343.012 122.556 343.026 122.139C343.007 121.84 343.052 121.541 343.156 121.26C343.26 120.979 343.423 120.723 343.632 120.509C343.854 120.307 344.114 120.152 344.396 120.052C344.679 119.951 344.979 119.909 345.279 119.925C345.621 119.918 345.963 119.969 346.289 120.076C346.56 120.169 346.806 120.324 347.006 120.529C347.213 120.752 347.372 121.016 347.47 121.304C347.597 121.657 347.676 122.026 347.703 122.4L346.561 122.702C346.543 122.41 346.495 122.12 346.42 121.837C346.359 121.591 346.23 121.368 346.046 121.193C345.83 121.02 345.556 120.934 345.279 120.952C345.137 120.943 344.996 120.963 344.862 121.01C344.729 121.056 344.606 121.129 344.501 121.223C344.402 121.327 344.326 121.451 344.279 121.586C344.232 121.722 344.215 121.865 344.228 122.008C344.216 122.257 344.265 122.506 344.37 122.732C344.494 122.952 344.658 123.146 344.854 123.306L346.48 124.734C346.857 125.058 347.181 125.438 347.44 125.861C347.729 126.329 347.873 126.871 347.854 127.42C347.869 127.845 347.768 128.266 347.561 128.637C347.369 128.972 347.085 129.244 346.743 129.422C346.372 129.599 345.962 129.682 345.551 129.664Z" fill="#263238"/>
<path d="M307.737 143.858C307.175 143.895 306.616 143.743 306.151 143.426C305.77 143.139 305.493 142.737 305.363 142.279C305.212 141.756 305.137 141.213 305.141 140.669V137.289C305.135 136.718 305.209 136.149 305.363 135.599C305.487 135.147 305.766 134.752 306.151 134.482C306.613 134.227 307.13 134.087 307.657 134.075C308.185 134.063 308.708 134.178 309.181 134.412C309.533 134.636 309.802 134.968 309.949 135.357C310.112 135.833 310.191 136.334 310.181 136.836V137.601H308.908V136.927C308.911 136.611 308.891 136.294 308.848 135.981C308.832 135.743 308.732 135.519 308.565 135.347C308.336 135.177 308.052 135.098 307.767 135.126C307.47 135.099 307.174 135.185 306.939 135.367C306.749 135.549 306.627 135.791 306.596 136.052C306.542 136.384 306.515 136.721 306.515 137.058V140.86C306.504 141.243 306.545 141.625 306.636 141.997C306.69 142.236 306.83 142.447 307.03 142.591C307.252 142.722 307.509 142.786 307.767 142.772C307.907 142.787 308.048 142.774 308.182 142.732C308.315 142.691 308.439 142.622 308.545 142.53C308.716 142.348 308.823 142.115 308.848 141.866C308.891 141.533 308.911 141.197 308.908 140.86V140.146H310.181V140.86C310.192 141.382 310.117 141.902 309.959 142.399C309.831 142.806 309.572 143.16 309.222 143.405C308.787 143.708 308.267 143.866 307.737 143.858Z" fill="#263238"/>
<path d="M313.898 143.858C313.353 143.884 312.813 143.751 312.343 143.476C311.953 143.22 311.661 142.84 311.514 142.399C311.334 141.865 311.249 141.303 311.262 140.739V137.118C311.248 136.567 311.334 136.019 311.514 135.498C311.677 135.081 311.971 134.728 312.353 134.492C312.832 134.251 313.361 134.125 313.898 134.125C314.435 134.125 314.964 134.251 315.443 134.492C315.821 134.73 316.112 135.083 316.271 135.498C316.452 136.019 316.538 136.567 316.524 137.118V140.77C316.537 141.323 316.451 141.875 316.271 142.399C316.118 142.84 315.828 143.22 315.443 143.486C314.976 143.757 314.438 143.887 313.898 143.858ZM313.898 142.852C314.185 142.874 314.47 142.795 314.706 142.631C314.898 142.477 315.028 142.259 315.07 142.017C315.143 141.714 315.177 141.403 315.17 141.091V136.816C315.177 136.508 315.143 136.2 315.07 135.9C315.023 135.666 314.894 135.455 314.706 135.307C314.457 135.175 314.18 135.106 313.898 135.106C313.616 135.106 313.339 135.175 313.09 135.307C312.897 135.455 312.762 135.665 312.706 135.9C312.641 136.201 312.611 136.508 312.615 136.816V141.021C312.611 141.332 312.641 141.642 312.706 141.947C312.759 142.189 312.895 142.406 313.09 142.56C313.316 142.75 313.602 142.854 313.898 142.852Z" fill="#263238"/>
<path d="M317.817 143.758L317.998 134.18H319.311L321.018 141.947L322.725 134.18H324.028L324.21 143.758H323.129L323.018 136.806L321.392 143.758H320.635L319.019 136.806L318.907 143.758H317.817Z" fill="#263238"/>
<path d="M325.654 143.758L325.836 134.18H327.159L328.856 141.947L330.563 134.18H331.866L332.047 143.758H330.967L330.856 136.806L329.26 143.758H328.502L326.886 136.806L326.785 143.758H325.654Z" fill="#263238"/>
<path d="M336.007 143.858C335.441 143.892 334.879 143.748 334.401 143.445C334.017 143.158 333.749 142.745 333.643 142.279C333.496 141.703 333.429 141.111 333.441 140.518V134.17H334.724V140.578C334.718 140.956 334.745 141.333 334.805 141.705C334.84 142.004 334.967 142.285 335.168 142.51C335.406 142.699 335.702 142.802 336.007 142.802C336.311 142.802 336.607 142.699 336.845 142.51C337.04 142.282 337.163 142.002 337.199 141.705C337.262 141.333 337.292 140.956 337.289 140.578V134.17H338.562V140.518C338.572 141.112 338.5 141.704 338.35 142.279C338.241 142.741 337.977 143.152 337.603 143.445C337.128 143.748 336.569 143.893 336.007 143.858Z" fill="#263238"/>
<path d="M339.966 143.758V134.18H340.885L343.622 140.538V134.18H344.733V143.758H343.875L341.107 137.219V143.758H339.966Z" fill="#263238"/>
<path d="M346.319 143.758V134.18H347.632V143.758H346.319Z" fill="#263238"/>
<path d="M351.601 143.858C351.039 143.895 350.48 143.743 350.015 143.426C349.636 143.137 349.36 142.735 349.227 142.279C349.076 141.756 349.001 141.214 349.005 140.669V137.289C348.999 136.718 349.074 136.149 349.227 135.599C349.356 135.149 349.634 134.755 350.015 134.482C350.488 134.185 351.043 134.044 351.601 134.08C352.101 134.055 352.598 134.17 353.035 134.412C353.379 134.642 353.644 134.972 353.793 135.358C353.956 135.833 354.035 136.334 354.025 136.836V137.601H352.752V136.927C352.753 136.611 352.736 136.295 352.702 135.981C352.676 135.744 352.573 135.521 352.409 135.347C352.18 135.177 351.896 135.098 351.611 135.126C351.314 135.099 351.018 135.185 350.783 135.368C350.593 135.549 350.471 135.791 350.439 136.052C350.386 136.384 350.359 136.721 350.359 137.058V140.86C350.348 141.243 350.389 141.625 350.48 141.997C350.534 142.236 350.674 142.447 350.874 142.591C351.096 142.723 351.353 142.786 351.611 142.772C351.895 142.798 352.179 142.711 352.399 142.53C352.563 142.344 352.665 142.112 352.692 141.866C352.735 141.533 352.755 141.197 352.752 140.86V140.146H354.025V140.86C354.034 141.381 353.962 141.9 353.813 142.4C353.68 142.804 353.422 143.156 353.076 143.406C352.642 143.702 352.127 143.86 351.601 143.858Z" fill="#263238"/>
<path d="M354.783 143.758L356.803 134.18H358.106L360.126 143.758H358.853L358.419 141.343H356.53L356.065 143.758H354.783ZM356.681 140.387H358.287L357.479 136.072L356.681 140.387Z" fill="#263238"/>
<path d="M361.822 143.757V135.166H360.196V134.16H364.751V135.166H363.166V143.757H361.822Z" fill="#263238"/>
<path d="M365.751 143.758V134.18H367.064V143.758H365.751Z" fill="#263238"/>
<path d="M371.084 143.858C370.536 143.883 369.993 143.751 369.519 143.476C369.132 143.217 368.841 142.839 368.69 142.399C368.515 141.864 368.43 141.303 368.438 140.739V137.118C368.427 136.567 368.516 136.018 368.7 135.498C368.857 135.081 369.148 134.727 369.529 134.492C370.002 134.228 370.542 134.102 371.084 134.13C371.621 134.105 372.154 134.234 372.619 134.502C372.997 134.74 373.288 135.093 373.447 135.508C373.628 136.029 373.714 136.577 373.7 137.128V140.78C373.713 141.334 373.627 141.885 373.447 142.409C373.294 142.85 373.004 143.231 372.619 143.496C372.155 143.765 371.62 143.891 371.084 143.858ZM371.084 142.852C371.368 142.874 371.65 142.796 371.882 142.631C372.078 142.479 372.211 142.26 372.256 142.017C372.32 141.713 372.351 141.402 372.347 141.092V136.816C372.351 136.508 372.32 136.201 372.256 135.901C372.207 135.665 372.074 135.454 371.882 135.307C371.644 135.158 371.365 135.088 371.084 135.106C370.797 135.087 370.511 135.158 370.266 135.307C370.074 135.454 369.941 135.665 369.892 135.901C369.827 136.201 369.797 136.508 369.801 136.816V141.021C369.797 141.332 369.827 141.642 369.892 141.947C369.942 142.188 370.074 142.405 370.266 142.56C370.495 142.752 370.785 142.855 371.084 142.852Z" fill="#263238"/>
<path d="M375.023 143.758V134.18H375.942L378.669 140.538V134.18H379.76V143.758H378.901L376.134 137.219V143.758H375.023Z" fill="#263238"/>
<path d="M412.151 233.513H438.33" stroke="#263238" stroke-width="1.50998" stroke-miterlimit="10"/>
<path d="M353.258 233.513H407.121" stroke="#263238" stroke-width="1.50998" stroke-miterlimit="10"/>
<path d="M300.899 233.513H348.218" stroke="#263238" stroke-width="1.50998" stroke-miterlimit="10"/>
<path d="M335.633 241.038H438.33" stroke="#263238" stroke-width="1.50998" stroke-miterlimit="10"/>
<path d="M300.899 241.038H331.098" stroke="#263238" stroke-width="1.50998" stroke-miterlimit="10"/>
<path d="M423.735 248.562H438.33" stroke="#263238" stroke-width="1.50998" stroke-miterlimit="10"/>
<path d="M355.772 248.562H418.695" stroke="#263238" stroke-width="1.50998" stroke-miterlimit="10"/>
<path d="M300.899 248.562H350.238" stroke="#263238" stroke-width="1.50998" stroke-miterlimit="10"/>
<path d="M430.785 256.078H438.33" stroke="#263238" stroke-width="1.50998" stroke-miterlimit="10"/>
<path d="M410.646 256.078H425.745" stroke="#263238" stroke-width="1.50998" stroke-miterlimit="10"/>
<path d="M336.138 256.078H406.616" stroke="#263238" stroke-width="1.50998" stroke-miterlimit="10"/>
<path d="M300.899 256.078H331.603" stroke="#263238" stroke-width="1.50998" stroke-miterlimit="10"/>
<path d="M426.25 120.408L404.606 128.436L412.656 131.947L399.566 148.999L390.001 138.466L356.277 171.563L336.138 160.024L304.212 188.454H328.664L339.158 176.573L358.287 186.1L386.981 154.009L403.596 161.03L417.695 134.955L427.26 139.965L426.25 120.408Z" fill="#263238" stroke="#263238" stroke-width="1.50998" stroke-linecap="round" stroke-linejoin="round"/>
<path d="M423.622 179.682C431.385 171.951 431.385 159.415 423.622 151.683C415.86 143.952 403.275 143.952 395.512 151.683C387.75 159.415 387.75 171.951 395.512 179.682C403.275 187.414 415.86 187.414 423.622 179.682Z" fill="white" stroke="#263238" stroke-width="1.50998" stroke-linecap="round" stroke-linejoin="round"/>
<path d="M409.565 182.73C419.02 182.73 426.684 175.096 426.684 165.678C426.684 156.261 419.02 148.626 409.565 148.626C400.11 148.626 392.445 156.261 392.445 165.678C392.445 175.096 400.11 182.73 409.565 182.73Z" fill="white" stroke="#263238" stroke-width="1.50998" stroke-linecap="round" stroke-linejoin="round"/>
<path d="M409.949 181.523V178.505C409.071 178.518 408.2 178.346 407.394 177.999C406.588 177.652 405.865 177.139 405.273 176.493C404.236 175.252 403.677 173.347 403.596 170.778L408.222 170.094C408.22 170.943 408.312 171.79 408.494 172.619C408.59 173.141 408.835 173.623 409.201 174.008C409.514 174.289 409.922 174.44 410.343 174.43C410.563 174.459 410.787 174.419 410.984 174.317C411.181 174.214 411.342 174.054 411.444 173.857C411.613 173.477 411.699 173.065 411.696 172.65C411.727 171.749 411.481 170.861 410.989 170.104C410.435 169.324 409.78 168.621 409.04 168.012L406.889 166.171C406.302 165.652 405.752 165.094 405.242 164.501C404.734 163.902 404.331 163.222 404.05 162.489C403.728 161.627 403.574 160.712 403.596 159.793C403.549 158.973 403.671 158.152 403.955 157.38C404.238 156.609 404.676 155.903 405.242 155.306C406.445 154.175 408.022 153.52 409.676 153.465V150.608H411.211V153.435C412.205 153.447 413.177 153.721 414.029 154.23C414.702 154.666 415.248 155.269 415.615 155.98C415.968 156.674 416.213 157.416 416.342 158.183C416.466 158.895 416.54 159.614 416.564 160.336L411.878 160.9C411.878 160.185 411.817 159.551 411.747 159.008C411.711 158.564 411.565 158.135 411.322 157.761C411.205 157.611 411.049 157.493 410.872 157.421C410.695 157.349 410.502 157.324 410.312 157.348C410.084 157.337 409.858 157.391 409.659 157.503C409.461 157.615 409.299 157.781 409.191 157.982C408.96 158.365 408.835 158.803 408.828 159.25C408.786 160.09 409.047 160.918 409.565 161.584C410.064 162.177 410.604 162.735 411.181 163.254L413.201 165.034C413.88 165.657 414.512 166.329 415.09 167.046C415.667 167.756 416.13 168.55 416.463 169.4C416.827 170.364 417.002 171.389 416.978 172.418C416.992 173.43 416.763 174.43 416.312 175.336C415.881 176.211 415.226 176.957 414.413 177.499C413.519 178.068 412.501 178.413 411.444 178.505V181.523H409.949Z" fill="#263238"/>
<path d="M310.959 165.89H305.929V188.454H310.959V165.89Z" fill="#FFD765"/>
<path d="M320.018 173.998H314.989V188.444H320.018V173.998Z" fill="#FFD765"/>
<path d="M329.088 174.491H324.058V188.454H329.088V174.491Z" fill="#FFD765"/>
<path d="M338.148 165.89H333.118V188.454H338.148V165.89Z" fill="#FFD765"/>
<path d="M347.208 170.809H342.178V188.454H347.208V170.809Z" fill="#FFD765"/>
<path d="M356.267 173.022H351.238V188.454H356.267V173.022Z" fill="#FFD765"/>
<path d="M365.327 165.89H360.297V188.454H365.327V165.89Z" fill="#FFD765"/>
<path d="M374.397 159.25H369.367V188.454H374.397V159.25Z" fill="#FFD765"/>
<path d="M383.456 152.369H378.427V188.454H383.456V152.369Z" fill="#FFD765"/>
<path d="M402.646 278.552H344.006V284.396H402.646V278.552Z" fill="#263238" stroke="#263238" stroke-width="1.50998" stroke-linecap="round" stroke-linejoin="round"/>
<path d="M420.766 288.903H344.006V294.748H420.766V288.903Z" fill="#263238" stroke="#263238" stroke-width="1.50998" stroke-linecap="round" stroke-linejoin="round"/>
<path d="M402.646 323.55H344.006V329.395H402.646V323.55Z" fill="#263238" stroke="#263238" stroke-width="1.50998" stroke-linecap="round" stroke-linejoin="round"/>
<path d="M420.766 333.901H344.006V339.746H420.766V333.901Z" fill="#263238" stroke="#263238" stroke-width="1.50998" stroke-linecap="round" stroke-linejoin="round"/>
<path d="M329.22 268.783H305.081C302.431 268.783 300.283 270.922 300.283 273.562V297.907C300.283 300.546 302.431 302.685 305.081 302.685H329.22C331.869 302.685 334.017 300.546 334.017 297.907V273.562C334.017 270.922 331.869 268.783 329.22 268.783Z" fill="#D4D4D4"/>
<path d="M317.15 294.155C321.819 294.155 325.604 290.385 325.604 285.734C325.604 281.084 321.819 277.314 317.15 277.314C312.481 277.314 308.696 281.084 308.696 285.734C308.696 290.385 312.481 294.155 317.15 294.155Z" fill="#263238"/>
<path d="M322.048 285.915L314.696 281.69V290.15L322.048 285.915Z" fill="white"/>
<path d="M329.22 312.554H305.081C302.431 312.554 300.283 314.694 300.283 317.333V341.678C300.283 344.317 302.431 346.456 305.081 346.456H329.22C331.869 346.456 334.017 344.317 334.017 341.678V317.333C334.017 314.694 331.869 312.554 329.22 312.554Z" fill="#D4D4D4"/>
<path d="M324.82 333.036C326.78 328.815 324.933 323.811 320.696 321.859C316.458 319.907 311.434 321.746 309.474 325.967C307.514 330.187 309.361 335.191 313.598 337.144C317.836 339.096 322.86 337.256 324.82 333.036Z" fill="#263238"/>
<path d="M322.048 329.696L314.696 325.461V333.922L322.048 329.696Z" fill="white"/>
<path d="M302.091 307.494H438.845" stroke="#263238" stroke-width="1.50998" stroke-miterlimit="10"/>
<path d="M433.593 60.5411H444.268" stroke="#263238" stroke-width="1.50998" stroke-linecap="round" stroke-linejoin="round"/>
<path d="M433.593 65.5812H444.268" stroke="#263238" stroke-width="1.50998" stroke-linecap="round" stroke-linejoin="round"/>
<path d="M433.593 70.6113H444.268" stroke="#263238" stroke-width="1.50998" stroke-linecap="round" stroke-linejoin="round"/>
<path d="M429.311 57.191H299.223V73.9711H429.311V57.191Z" fill="white" stroke="#263238" stroke-width="1.50998" stroke-linecap="round" stroke-linejoin="round"/>
<path d="M314.676 62.8146C314.678 62.0278 314.445 61.2581 314.007 60.6031C313.57 59.9481 312.947 59.4372 312.217 59.1352C311.488 58.8332 310.685 58.7537 309.91 58.9067C309.135 59.0597 308.424 59.4383 307.865 59.9947C307.307 60.551 306.926 61.26 306.773 62.0317C306.619 62.8035 306.699 63.6033 307.002 64.3298C307.305 65.0563 307.818 65.6768 308.476 66.1127C309.134 66.5486 309.906 66.7802 310.696 66.7782C311.752 66.7782 312.764 66.3606 313.51 65.6173C314.256 64.8739 314.676 63.8658 314.676 62.8146Z" fill="white" stroke="#263238" stroke-width="1.50998" stroke-linecap="round" stroke-linejoin="round"/>
<path d="M305.889 68.3778L302.949 72.0698" stroke="#263238" stroke-width="3.01996" stroke-linecap="round" stroke-linejoin="round"/>
<path d="M308.04 65.6816L305.889 68.3777" stroke="#263238" stroke-width="1.50998" stroke-linecap="round" stroke-linejoin="round"/>
<path d="M318.877 57.3018V74.0517" stroke="#263238" stroke-width="1.50998" stroke-linecap="round" stroke-linejoin="round"/>
<path d="M74.0734 280.765C74.0827 280.742 74.0827 280.717 74.0732 280.694C74.0637 280.671 74.0456 280.653 74.0229 280.644C74.0001 280.635 73.9745 280.635 73.9518 280.644C73.9291 280.654 73.911 280.672 73.9017 280.694C71.0735 287.433 68.8397 294.404 67.2256 301.528C65.5885 308.653 64.3577 315.864 63.5391 323.127L63.024 328.59C62.9432 329.505 62.8422 330.411 62.7715 331.326L62.62 334.052C62.5493 335.883 62.4281 337.704 62.3776 339.535L62.4281 345.028L62.4887 347.764C62.4887 348.68 62.5998 349.595 62.6604 350.501C62.8018 352.331 62.9129 354.152 63.0745 355.973C63.428 359.615 63.9835 363.226 64.539 366.828C64.5437 366.851 64.5564 366.872 64.5748 366.886C64.5933 366.901 64.6163 366.909 64.64 366.908C64.64 366.908 64.741 366.908 64.7309 366.818C64.7309 364.997 64.6501 363.176 64.6097 361.355C64.5693 359.534 64.3976 357.724 64.4178 355.903C64.438 354.082 64.4178 352.271 64.3572 350.46V347.734V345.018V339.585L64.4986 334.143L64.5592 331.427C64.5592 330.521 64.6602 329.616 64.7107 328.711L65.044 323.278C65.6654 316.043 66.6972 308.849 68.1346 301.73C69.5046 294.584 71.4916 287.57 74.0734 280.765Z" fill="#263238"/>
<path d="M74.8511 309.194C74.8592 309.17 74.8573 309.144 74.8459 309.121C74.8346 309.099 74.8147 309.082 74.7905 309.074C74.7664 309.066 74.7401 309.067 74.7174 309.079C74.6947 309.09 74.6774 309.11 74.6693 309.134C73.1241 313.657 71.8293 318.261 70.7909 322.926C69.7567 327.611 68.9879 332.35 68.4881 337.121C68.0033 341.879 67.4781 346.648 67.4074 351.426C67.2863 356.217 67.4583 361.011 67.9225 365.782C67.9247 365.802 67.934 365.822 67.9487 365.836C67.9634 365.851 67.9827 365.86 68.0033 365.862C68.0286 365.865 68.0541 365.859 68.0747 365.844C68.0953 365.829 68.1095 365.807 68.1144 365.782C68.6699 361.013 69.0032 356.265 69.3365 351.517C69.6698 346.768 69.7203 342 70.0334 337.252C70.3254 332.516 70.8852 327.8 71.71 323.127C72.5039 318.43 73.5525 313.779 74.8511 309.194Z" fill="#263238"/>
<path d="M90.6778 319.194C90.6595 319.178 90.6362 319.17 90.6121 319.17C90.588 319.17 90.5648 319.178 90.5465 319.194C86.5868 321.728 83.0208 324.826 79.9617 328.389C78.4273 330.179 77.0456 332.094 75.8308 334.113L74.9824 335.712L74.3158 337.372C74.0886 337.91 73.893 338.461 73.73 339.022C73.5583 339.596 73.3664 340.159 73.2149 340.722C72.0045 345.272 71.2701 349.935 71.0232 354.635C70.7891 359.309 70.9648 363.995 71.5484 368.639C71.554 368.66 71.5656 368.678 71.5818 368.692C71.5979 368.707 71.6179 368.716 71.6393 368.719C71.6644 368.719 71.6887 368.71 71.7073 368.693C71.726 368.677 71.7377 368.654 71.7403 368.629L72.9523 354.766C73.2922 350.179 73.889 345.615 74.74 341.094C74.8713 340.541 75.0329 339.998 75.1743 339.445C75.3051 338.889 75.467 338.342 75.6591 337.805L76.2247 336.205L76.9519 334.696C78.0518 332.683 79.3187 330.765 80.7394 328.962C83.5692 325.29 86.9165 322.044 90.6778 319.325C90.6866 319.316 90.6937 319.306 90.6985 319.295C90.7033 319.284 90.7058 319.271 90.7058 319.259C90.7058 319.247 90.7033 319.235 90.6985 319.224C90.6937 319.212 90.6866 319.202 90.6778 319.194Z" fill="#263238"/>
<path d="M83.022 337.01C80.9648 338.505 79.3128 340.486 78.2144 342.774C77.0524 345.013 76.1478 347.376 75.5177 349.816C75.3258 350.42 75.1743 351.034 75.043 351.647L74.6087 353.488C74.3798 354.726 74.2213 355.975 74.134 357.231C74.134 358.488 74.0835 359.746 74.134 361.003C74.2244 362.259 74.3896 363.509 74.6289 364.745C74.6289 364.745 74.6289 364.816 74.6996 364.816C74.725 364.822 74.7519 364.818 74.7745 364.805C74.7971 364.792 74.8137 364.771 74.8208 364.745C75.1105 363.528 75.333 362.295 75.4874 361.053C75.6793 359.836 75.8712 358.629 76.0227 357.412C76.1742 356.194 76.356 354.997 76.457 353.78C76.558 352.563 76.7095 351.346 76.9721 350.158C77.3817 347.76 78.0593 345.415 78.9921 343.167C79.8399 340.864 81.2245 338.796 83.0321 337.131C83.041 337.122 83.048 337.112 83.0528 337.101C83.0577 337.09 83.0601 337.078 83.0601 337.065C83.0601 337.053 83.0577 337.041 83.0528 337.03C83.048 337.019 83.041 337.008 83.0321 337C83.0285 337.003 83.0252 337.007 83.022 337.01Z" fill="#263238"/>
<path d="M60.8222 350.893C60.3071 344.736 59.287 338.64 58.3275 332.554C57.368 326.467 56.3075 320.391 55.1763 314.335C54.0451 308.279 52.8028 302.263 51.4999 296.227C51.4918 296.204 51.4768 296.184 51.4569 296.169C51.4371 296.155 51.4134 296.147 51.3888 296.146C51.3755 296.149 51.3627 296.154 51.3513 296.161C51.3399 296.169 51.3302 296.178 51.3226 296.19C51.3151 296.201 51.3099 296.214 51.3074 296.227C51.3049 296.24 51.3051 296.254 51.308 296.267C52.3685 302.303 53.328 308.41 54.2269 314.506C55.1258 320.602 56.0247 326.678 56.7923 332.785C57.5599 338.891 58.1356 345.008 58.9133 351.104L61.1656 369.423C61.1713 369.444 61.1829 369.463 61.1991 369.477C61.2152 369.491 61.2352 369.501 61.2565 369.504C61.2693 369.505 61.2822 369.504 61.2944 369.5C61.3067 369.496 61.3179 369.49 61.3275 369.481C61.337 369.473 61.3446 369.462 61.3498 369.45C61.355 369.439 61.3576 369.426 61.3575 369.413C61.4282 367.874 61.4383 366.325 61.4686 364.776C61.4989 363.226 61.408 361.697 61.3777 360.148C61.3272 357.04 61.0646 353.971 60.8222 350.893Z" fill="#263238"/>
<path d="M57.1257 350.802C56.7924 348.368 56.3379 345.943 55.8733 343.529L55.0047 339.927C54.7219 338.73 54.4593 337.533 54.1058 336.356C52.8743 331.58 51.2945 326.9 49.379 322.353L48.6417 320.663L47.8135 319.003C47.2883 317.896 46.6621 316.83 46.0561 315.753C44.845 313.594 43.3467 311.608 41.602 309.848C41.5935 309.839 41.5833 309.832 41.572 309.827C41.5607 309.823 41.5486 309.82 41.5363 309.82C41.524 309.82 41.5119 309.823 41.5006 309.827C41.4893 309.832 41.4791 309.839 41.4707 309.848C41.4618 309.857 41.4547 309.867 41.4499 309.878C41.4451 309.889 41.4426 309.901 41.4426 309.913C41.4426 309.926 41.4451 309.938 41.4499 309.949C41.4547 309.96 41.4618 309.97 41.4707 309.979C43.0829 311.801 44.4418 313.832 45.5107 316.015C46.046 317.111 46.6217 318.188 47.0762 319.315L47.8034 320.985L48.4498 322.695C50.1571 327.258 51.5309 331.938 52.5605 336.698C53.1261 339.062 53.4998 341.477 53.9644 343.861L54.5401 347.472C54.7522 348.67 55.0047 349.857 55.1764 351.064C55.5602 353.478 56.0046 355.873 56.4288 358.277C56.853 360.681 57.2469 363.106 57.7519 365.52C57.7581 365.542 57.7713 365.562 57.7894 365.577C57.8075 365.591 57.8297 365.599 57.8529 365.601C57.8779 365.598 57.901 365.586 57.9178 365.568C57.9346 365.549 57.9439 365.525 57.9438 365.5C57.9438 363.045 57.9438 360.581 57.7721 358.126C57.6004 355.671 57.3782 353.247 57.1257 350.802Z" fill="#263238"/>
<path d="M52.0048 351.094C50.8635 347.865 49.5404 344.706 48.0961 341.607C46.6388 338.517 44.9963 335.517 43.1774 332.624C43.1591 332.608 43.1358 332.6 43.1117 332.6C43.0877 332.6 43.0644 332.608 43.0461 332.624C43.0372 332.632 43.0302 332.642 43.0254 332.654C43.0205 332.665 43.0181 332.677 43.0181 332.689C43.0181 332.701 43.0205 332.714 43.0254 332.725C43.0302 332.736 43.0372 332.746 43.0461 332.755C44.6199 335.763 46.0095 338.864 47.2073 342.04C48.4698 345.189 49.601 348.378 50.5403 351.627C51.4796 354.877 52.1967 358.166 53.0653 361.426C53.9339 364.685 54.7116 367.965 55.7216 371.254C55.7272 371.275 55.7389 371.294 55.755 371.308C55.7712 371.322 55.7911 371.332 55.8125 371.335C55.8385 371.332 55.8629 371.321 55.8814 371.303C55.8998 371.284 55.9112 371.26 55.9135 371.234C55.9365 367.795 55.5979 364.362 54.9035 360.993C54.2078 357.621 53.2384 354.31 52.0048 351.094Z" fill="#263238"/>
<path d="M51.7928 361.868C51.1673 359.856 50.2521 357.945 49.0759 356.194C47.9835 354.388 46.6518 352.737 45.1167 351.285C44.3322 350.587 43.491 349.954 42.6018 349.394C41.7229 348.811 40.7587 348.366 39.7435 348.076C39.7276 348.064 39.7081 348.057 39.688 348.057C39.6678 348.057 39.6483 348.064 39.6324 348.076C39.6168 348.094 39.6082 348.117 39.6082 348.141C39.6082 348.165 39.6168 348.189 39.6324 348.207C41.4857 349.101 43.125 350.381 44.44 351.959C45.7616 353.463 46.8726 355.138 47.7427 356.939C48.682 358.709 49.1668 360.661 49.9748 362.482C50.3384 363.418 50.6919 364.353 51.1161 365.289C51.4642 366.265 51.8792 367.216 52.3584 368.136C52.3659 368.151 52.3774 368.163 52.3917 368.172C52.4059 368.181 52.4224 368.186 52.4392 368.186C52.452 368.187 52.4649 368.186 52.4771 368.182C52.4893 368.178 52.5006 368.172 52.5101 368.163C52.5197 368.155 52.5273 368.144 52.5325 368.133C52.5376 368.121 52.5403 368.108 52.5402 368.095C52.579 367.045 52.5419 365.992 52.4291 364.947C52.2675 363.92 52.0453 362.894 51.7928 361.868Z" fill="#263238"/>
<path d="M52.1766 305.029C49.0921 304.169 46.3021 302.485 44.1075 300.161C41.9129 297.837 40.397 294.96 39.7233 291.841C37.37 280.976 44.9147 285.634 38.1578 268.602C31.4009 251.571 32.9664 247.627 35.35 242.708C37.7336 237.788 38.9759 239.348 41.0565 245.816C43.1371 252.285 50.6212 262.365 53.53 281.238C56.4388 300.11 52.1766 305.029 52.1766 305.029Z" fill="#FFD765"/>
<path d="M72.1644 286.71C72.1644 286.71 65.4176 284.376 65.155 271.711C64.8924 259.045 70.0939 261.651 70.8716 245.857C71.6493 230.062 72.6896 218.966 75.5378 218.695C78.386 218.423 85.9307 226.451 88.5264 244.036C91.1221 261.621 85.1429 273.21 79.9515 278.421C74.7601 283.632 72.1644 286.71 72.1644 286.71Z" fill="#FFD765"/>
<path d="M48.5406 320.28C48.5406 320.28 46.9852 310.975 43.8744 306.579C40.7636 302.182 34.0067 298.299 29.593 289.728C25.1793 281.157 20.2505 277.063 20.503 289.215C20.7555 301.368 26.26 307.615 32.9664 311.75C39.6728 315.884 48.5406 320.28 48.5406 320.28Z" fill="#FFD765"/>
<path d="M45.6924 336.316C45.6924 336.316 39.4607 324.415 30.3707 315.623C21.2807 306.83 14.0188 302.444 16.6145 306.83C19.2102 311.216 22.3311 310.965 26.7145 318.721C31.0979 326.477 29.8354 332.161 36.0671 336.557C42.2988 340.954 45.6924 336.316 45.6924 336.316Z" fill="#FFD765"/>
<path d="M44.9147 351.567C44.6521 350.792 44.3895 345.098 35.5621 340.451C26.7347 335.803 18.3921 337.604 19.4728 339.928C20.5535 342.251 25.957 346.135 31.411 348.468C36.865 350.802 44.9147 351.567 44.9147 351.567Z" fill="#FFD765"/>
<path d="M71.6494 320.793C71.6494 320.793 67.7508 315.884 69.8314 305.543C71.912 295.201 76.5782 297.776 81.81 292.354C87.0418 286.931 85.9712 286.147 91.1626 280.463C96.354 274.779 101.02 271.67 103.101 273.994C105.181 276.318 102.091 283.561 98.9497 287.706C95.8086 291.851 90.8697 293.903 88.5669 299.074C86.2641 304.245 87.264 312.524 81.2949 316.397C75.3258 320.27 71.6494 320.793 71.6494 320.793Z" fill="#FFD765"/>
<path d="M84.6278 323.64C84.6278 323.64 93.9299 313.037 100.727 305.281C107.525 297.525 110.07 291.579 110.332 296.75C110.595 301.921 112.665 306.056 107.211 312.786C101.757 319.516 84.6278 323.64 84.6278 323.64Z" fill="#FFD765"/>
<path d="M79.699 340.702C79.699 340.702 79.4364 336.568 94.2329 327C109.029 317.433 115.261 315.623 113.706 319.506C112.15 323.389 105.626 327.262 98.6466 334.244C91.6675 341.225 79.699 340.702 79.699 340.702Z" fill="#FFD765"/>
<path d="M52.7926 303.923C52.7926 303.923 49.3283 285.372 45.7226 272.183C42.1169 258.995 39.7535 250.987 39.7535 250.987" stroke="#263238" stroke-width="1.50998" stroke-linecap="round" stroke-linejoin="round"/>
<path d="M71.5686 286.861C71.5686 286.861 77.8811 266.741 79.9516 254.609C82.0221 242.476 79.6991 233.402 78.6588 227.97" stroke="#263238" stroke-width="1.50998" stroke-linecap="round" stroke-linejoin="round"/>
<path d="M47.7225 319.908C44.9297 315.12 41.7297 310.58 38.1578 306.337C32.4513 299.617 28.0578 295.996 25.4419 289.527" stroke="#263238" stroke-width="1.50998" stroke-linecap="round" stroke-linejoin="round"/>
<path d="M71.6494 320.793C71.6494 320.793 73.73 308.389 78.6588 301.921C83.5876 295.452 93.4553 285.372 97.3438 278.913" stroke="#263238" stroke-width="1.50998" stroke-linecap="round" stroke-linejoin="round"/>
<path d="M44.2986 351.285C44.2986 351.285 35.5621 345.622 29.3405 342.513" stroke="#263238" stroke-width="1.50998" stroke-linecap="round" stroke-linejoin="round"/>
<path d="M94.3137 403.406C93.738 387.723 76.2347 377.25 76.2347 377.25H49.4091C49.4091 377.25 31.9058 387.713 31.3099 403.406C30.714 419.1 51.1463 476.633 51.1463 476.633H74.4773C74.4773 476.633 94.9399 419.09 94.3137 403.406Z" fill="#263238" stroke="#263238" stroke-width="1.50998" stroke-linecap="round" stroke-linejoin="round"/>
<path d="M79.689 361.828H45.4601L49.4092 377.25H75.7399L79.689 361.828Z" fill="#263238" stroke="#263238" stroke-width="1.50998" stroke-linecap="round" stroke-linejoin="round"/>
<path d="M215.383 276.207C215.383 276.207 206.525 285.563 206.525 288.501C206.525 291.438 207.595 298.4 207.06 301.066C206.525 303.731 184.517 320.582 184.517 320.582L191.223 337.422C191.223 337.422 209.201 309.093 214.575 301.609C219.948 294.124 225.846 286.368 226.381 282.354C226.917 278.34 217.796 274.638 215.383 276.207Z" fill="#D4D4D4" stroke="#263238" stroke-width="1.50998" stroke-miterlimit="10"/>
<path d="M216.857 345.611L242.945 335.37C242.945 335.37 259.934 316.256 272.942 302.253C285.951 288.249 302.232 291.448 302.232 301.528C302.232 311.608 297.536 326.678 293.203 333.217C288.87 339.756 280.184 356.617 280.184 356.617C280.184 356.617 310.555 363.82 318.867 368.498C327.179 373.176 360.57 396.776 377.74 409.1C389.032 417.148 395.587 420.427 397.395 420.427C397.879 420.427 398.748 420.347 399.778 420.226C403.909 419.743 408.868 415.408 412.423 413.184C417.302 410.166 424.766 405.991 429.109 405.539C435.977 404.814 433.452 414.894 428.391 422.097C423.331 429.3 414.251 431.463 411.04 433.978C407.828 436.493 400.94 437.942 398.384 438.304C395.829 438.666 373.084 429.3 363.317 425.337C353.55 421.373 335.138 420.468 324.008 407.229C320.32 402.756 316.17 398.683 311.625 395.076C311.625 395.076 251.258 397.591 240.41 398.678C229.563 399.764 204.626 400.478 194.142 400.478C183.658 400.478 178.315 396.344 178.315 396.344C178.315 396.344 174.275 390.75 180.406 381.757C186.537 372.763 216.857 345.611 216.857 345.611Z" fill="#6E6E6E" stroke="#263238" stroke-width="1.50998" stroke-miterlimit="10"/>
<path d="M428.392 422.148C433.442 414.945 435.977 404.865 429.109 405.589C424.766 406.042 417.302 410.227 412.423 413.235C408.878 415.407 403.909 419.743 399.778 420.277C398.768 420.397 397.879 420.478 397.395 420.478C395.87 420.478 390.921 418.144 382.588 412.52C381.416 417.369 378.023 423.496 368.933 427.721C379.912 432.178 396.263 438.706 398.384 438.405C400.92 438.043 407.788 436.604 411.04 434.079C414.292 431.554 423.331 429.351 428.392 422.148Z" fill="#D4D4D4" stroke="#263238" stroke-width="1.50998" stroke-miterlimit="10"/>
<path d="M428.392 422.148C433.442 414.945 435.977 404.865 429.109 405.589C424.766 406.042 417.302 410.227 412.424 413.235C408.878 415.407 403.909 419.743 399.778 420.277C398.768 420.397 397.879 420.478 397.395 420.478C396.889 420.436 396.392 420.321 395.92 420.136C397.152 423.053 398.243 429.3 389.86 435.9C394.223 437.479 397.536 438.525 398.415 438.405C400.95 438.043 407.818 436.604 411.07 434.079C414.322 431.554 423.332 429.351 428.392 422.148Z" fill="white" stroke="#263238" stroke-width="1.50998" stroke-miterlimit="10"/>
<path d="M240.733 348.217C239.957 347.671 239.151 347.167 238.32 346.708" stroke="#263238" stroke-width="1.50998" stroke-miterlimit="10"/>
<path d="M280.174 356.617L247.45 354.705C246.099 352.894 244.536 351.249 242.794 349.806" stroke="#263238" stroke-width="1.50998" stroke-miterlimit="10"/>
<path d="M221.796 362.462C223.221 361.185 224.858 360.164 226.634 359.444" stroke="#263238" stroke-width="1.50998" stroke-miterlimit="10"/>
<path d="M212.393 372.894C214.374 370.177 216.541 367.599 218.877 365.178" stroke="#263238" stroke-width="1.50998" stroke-miterlimit="10"/>
<path d="M216.049 363.076C216.049 363.076 208.747 369.615 206.959 377.984" stroke="#263238" stroke-width="1.50998" stroke-miterlimit="10"/>
<path d="M216.857 345.611C216.806 346.593 216.612 347.562 216.281 348.488C215.696 350.229 211.938 364.665 201.788 377.069C195.204 384.88 187.251 391.434 178.315 396.414C166.084 386.955 154.909 376.213 144.985 364.373C127.876 344.163 117.715 324.827 118.311 302.303C118.907 279.779 126.149 265.644 126.149 265.644L125.563 248.321C126.725 245.434 132.815 241.4 140.925 246.591C149.036 251.782 155.419 263.914 155.419 263.914L154.257 270.835C154.257 270.835 157.732 273.149 159.762 274.306C161.792 275.463 169.326 282.092 175.992 290.462C182.658 298.832 189.617 323.962 190.779 330.31C191.94 336.658 201.505 337.805 201.505 337.805L211.353 343.016L216.857 345.611Z" fill="#FFD765" stroke="#263238" stroke-width="1.50998" stroke-miterlimit="10"/>
<path d="M155.419 263.914L154.257 270.835C154.257 270.835 136.289 265.061 126.149 265.644L125.563 248.321C126.725 245.434 132.815 241.4 140.925 246.591C149.036 251.782 155.419 263.914 155.419 263.914Z" fill="#D4D4D4" stroke="#263238" stroke-width="1.50998" stroke-miterlimit="10"/>
<path d="M165.569 217.236C165.569 217.236 170.498 230.022 169.226 233.332C168.49 235.255 167.87 237.22 167.367 239.217C167.367 239.217 174.882 247.355 173.427 249.518C171.973 251.681 168.094 252.677 168.094 252.677C168.094 252.677 167.084 266.218 166.246 268.441C165.408 270.664 162.802 272.988 157.429 271.459C152.056 269.93 144.188 264.98 141.269 262.606C138.35 260.232 136.552 243.16 136.552 243.16L142.612 241.249C142.612 241.249 141.148 233.815 141.885 232.446C142.622 231.078 150.975 232.054 149.541 226.944C148.107 221.833 145.127 219.741 146.804 217.89C148.48 216.038 165.569 217.236 165.569 217.236Z" fill="#D4D4D4" stroke="#263238" stroke-width="1.50998" stroke-miterlimit="10"/>
<path d="M166.983 257.536C166.983 257.536 158.429 258.28 157.257 250.876" stroke="#263238" stroke-width="1.50998" stroke-miterlimit="10"/>
<path d="M159.661 250.263L154.146 252.526" stroke="#263238" stroke-width="1.50998" stroke-miterlimit="10"/>
<path d="M163.246 239.559C162.984 241.058 162.236 242.174 161.62 242.064C161.004 241.953 160.701 240.655 160.964 239.156C161.226 237.657 161.974 236.551 162.59 236.661C163.206 236.772 163.509 238.07 163.246 239.559Z" fill="#263238"/>
<path d="M158.782 235.344C158.782 235.344 162.711 231.732 166.145 234.74" stroke="#263238" stroke-width="1.50998" stroke-miterlimit="10"/>
<path d="M172.104 216.29C171.73 219.439 165.569 217.296 165.569 217.296L152.874 221.058C152.874 221.058 153.136 226.31 153.015 229.79C152.894 233.271 145.632 235.615 145.632 235.615L144.622 251.49L125.432 250.705L122.675 244.287C122.675 244.287 110.555 232.999 111.878 221.813C112.686 214.962 117.857 208.282 126.179 204.711C129.078 203.484 132.14 202.681 135.269 202.327C138.627 201.945 142.02 201.979 145.369 202.427C164.681 204.932 172.478 213.101 172.104 216.29Z" fill="#263238" stroke="#263238" stroke-width="1.50998" stroke-miterlimit="10"/>
<path d="M135.188 236.581L127.947 240.605C127.644 240.052 121.2 228.231 126.23 204.691C129.129 203.464 132.19 202.661 135.32 202.307C132.391 213.584 132.29 221.883 132.865 227.064C133.512 233.392 135.178 236.551 135.188 236.581Z" fill="white" stroke="#263238" stroke-width="1.50998" stroke-miterlimit="10"/>
<path d="M137.565 255.309C143.676 252.92 146.686 246.048 144.287 239.961C141.889 233.874 134.99 230.876 128.878 233.265C122.767 235.655 119.757 242.526 122.156 248.613C124.554 254.701 131.453 257.699 137.565 255.309Z" fill="white" stroke="#263238" stroke-width="1.50998" stroke-miterlimit="10"/>
<path d="M137.734 300.864C141.522 312.12 146.273 323.032 151.934 333.479C161.216 350.51 175.164 368.991 180.346 367.834C185.527 366.677 214.827 316.447 216.857 312.121C218.887 307.796 222.079 301.438 222.079 301.438C222.079 301.438 228.745 296.528 229.321 294.506C229.896 292.484 228.553 282.897 228.553 282.897C228.553 282.897 232.088 278.27 230.937 276.248C229.785 274.225 227.836 274.859 225.816 276.016C223.796 277.173 219.382 280.402 219.382 280.402C219.946 278.147 219.987 275.794 219.503 273.521C218.635 270.352 215.989 271.419 215.696 273.441C215.403 275.463 215.413 277.465 214.544 279.477C213.303 281.899 212.409 284.483 211.888 287.153C211.312 290.613 209.747 299.979 209.747 299.979C209.747 299.979 193.698 317.826 189.345 322.171C187.193 324.304 182.638 327.785 182.638 327.785L170.781 304.305C170.781 304.305 164.721 282.947 158.318 277.143C155.218 274.344 151.341 272.542 147.196 271.975C143.051 271.408 138.83 272.101 135.088 273.964" fill="#FFD765"/>
<path d="M137.734 300.864C141.522 312.12 146.273 323.032 151.934 333.479C161.216 350.51 175.164 368.991 180.346 367.834C185.527 366.677 214.827 316.447 216.857 312.121C218.887 307.796 222.079 301.438 222.079 301.438C222.079 301.438 228.745 296.528 229.321 294.506C229.896 292.484 228.553 282.897 228.553 282.897C228.553 282.897 232.088 278.27 230.937 276.248C229.785 274.225 227.836 274.859 225.816 276.016C223.796 277.173 219.382 280.402 219.382 280.402C219.946 278.147 219.987 275.794 219.503 273.521C218.635 270.352 215.989 271.419 215.696 273.441C215.403 275.463 215.413 277.465 214.544 279.477C213.303 281.899 212.409 284.483 211.888 287.153C211.312 290.613 209.747 299.979 209.747 299.979C209.747 299.979 193.698 317.826 189.345 322.171C187.193 324.304 182.638 327.785 182.638 327.785L170.781 304.305C170.781 304.305 164.721 282.947 158.318 277.143C155.218 274.344 151.341 272.542 147.196 271.975C143.051 271.408 138.83 272.101 135.088 273.964" stroke="#263238" stroke-width="1.50998" stroke-miterlimit="10"/>
<path d="M219.554 287.716C219.36 287.679 219.175 287.603 219.011 287.494C218.847 287.385 218.706 287.245 218.597 287.081C218.488 286.917 218.413 286.733 218.376 286.54C218.339 286.346 218.341 286.148 218.382 285.955L225.523 252.707C225.606 252.333 225.831 252.005 226.151 251.793C226.471 251.581 226.862 251.501 227.24 251.57C227.434 251.607 227.618 251.683 227.783 251.792C227.947 251.901 228.088 252.041 228.197 252.205C228.306 252.369 228.381 252.553 228.418 252.747C228.455 252.94 228.453 253.138 228.412 253.331L221.261 286.529C221.192 286.911 220.973 287.251 220.654 287.474C220.334 287.696 219.938 287.783 219.554 287.716Z" fill="#263238" stroke="#263238" stroke-width="1.50998" stroke-miterlimit="10"/>
<path d="M229.32 294.506C229.896 292.494 228.553 282.897 228.553 282.897C228.553 282.897 232.088 278.27 230.936 276.248C229.785 274.225 227.836 274.859 225.816 276.016C223.796 277.173 219.382 280.402 219.382 280.402C219.946 278.147 219.987 275.794 219.503 273.521C218.635 270.352 215.988 271.419 215.696 273.441C215.403 275.463 215.413 277.465 214.544 279.477C213.303 281.899 212.409 284.483 211.888 287.153C211.312 290.613 209.747 299.979 209.747 299.979C209.747 299.979 207.04 302.997 203.545 306.84L215.13 315.341C216.019 313.751 216.625 312.625 216.857 312.122C218.877 307.786 222.079 301.438 222.079 301.438C222.079 301.438 228.745 296.528 229.32 294.506Z" fill="#D4D4D4" stroke="#263238" stroke-width="1.50998" stroke-miterlimit="10"/>
<path d="M219.382 280.402C219.382 280.402 216.049 283.018 215.09 285.03" stroke="#263238" stroke-width="1.50998" stroke-miterlimit="10"/>
<path d="M282.628 307.484C282.628 307.484 280.548 318.389 283.931 326.698C287.315 335.008 303.222 365.118 304.262 370.57C305.303 376.023 301.657 385.117 304.525 388.487C307.394 391.857 321.21 392.903 334.239 392.129C347.268 391.354 354.833 389.785 356.399 384.332C357.964 378.88 359.004 376.023 355.096 376.023C351.187 376.023 347.268 376.546 342.057 375.51C336.845 374.473 325.382 367.975 323.816 366.938C322.251 365.902 320.948 362.784 320.948 362.784C320.948 362.784 317.302 352.14 313.645 327.212C309.989 302.283 312.635 291.649 300.879 287.978C289.123 284.306 275.518 299.325 272.942 302.223" fill="#6E6E6E"/>
<path d="M282.628 307.484C282.628 307.484 280.548 318.389 283.931 326.698C287.315 335.008 303.222 365.118 304.262 370.57C305.303 376.023 301.657 385.117 304.525 388.487C307.394 391.857 321.21 392.903 334.239 392.129C347.268 391.354 354.833 389.785 356.399 384.332C357.964 378.88 359.004 376.023 355.096 376.023C351.187 376.023 347.268 376.546 342.057 375.51C336.845 374.473 325.382 367.975 323.816 366.938C322.251 365.902 320.948 362.784 320.948 362.784C320.948 362.784 317.302 352.14 313.645 327.212C309.989 302.283 312.635 291.649 300.879 287.978C289.123 284.306 275.518 299.325 272.942 302.223" stroke="#263238" stroke-width="1.50998" stroke-miterlimit="10"/>
<path d="M356.399 384.292C357.964 378.839 359.004 375.982 355.096 375.982C351.187 375.982 347.268 376.506 342.057 375.469C336.845 374.433 325.382 367.934 323.816 366.898C322.251 365.862 320.948 362.743 320.948 362.743C319.5 358.073 318.31 353.328 317.382 348.529C308.201 345.36 301.222 351.376 297.768 355.4C301.121 362.381 303.828 368.387 304.262 370.49C305.272 375.942 301.657 385.036 304.525 388.407C307.393 391.777 321.21 392.823 334.239 392.048C347.268 391.274 354.833 389.785 356.399 384.292Z" fill="#D4D4D4" stroke="#263238" stroke-width="1.50998" stroke-miterlimit="10"/>
<path d="M355.096 376.023C351.187 376.023 347.268 376.546 342.057 375.51C336.845 374.474 325.382 367.975 323.816 366.939C322.251 365.902 320.948 362.784 320.948 362.784C320.948 362.784 320.635 361.878 320.109 359.977C310.838 359.414 305.697 363.408 303.01 366.929C303.531 368.105 303.95 369.323 304.263 370.57C305.273 376.023 301.657 385.117 304.525 388.487C307.394 391.857 321.21 392.903 334.239 392.129C347.268 391.354 354.833 389.785 356.399 384.332C357.964 378.88 359.005 376.023 355.096 376.023Z" fill="white" stroke="#263238" stroke-width="1.50998" stroke-miterlimit="10"/>
<path d="M229.058 437.791H127.523V443.797H229.058V437.791Z" fill="#919191" stroke="#263238" stroke-width="1.50998" stroke-miterlimit="10"/>
<path d="M215.989 406.746L248.854 471.754C249.097 472.236 249.211 472.772 249.187 473.312C249.164 473.851 249.002 474.375 248.718 474.834C248.433 475.294 248.036 475.674 247.563 475.937C247.09 476.201 246.558 476.34 246.016 476.341C245.448 476.34 244.891 476.188 244.402 475.899C243.913 475.611 243.512 475.197 243.238 474.701L206.939 408.748L215.989 406.746Z" fill="#919191" stroke="#263238" stroke-width="1.50998" stroke-miterlimit="10"/>
<path d="M142.41 389.402L112.524 472.317C112.328 472.82 112.265 473.366 112.341 473.9C112.416 474.435 112.628 474.942 112.957 475.372C113.285 475.801 113.718 476.14 114.215 476.356C114.713 476.571 115.257 476.656 115.797 476.602C116.364 476.549 116.906 476.344 117.366 476.009C117.827 475.675 118.188 475.223 118.412 474.701L151.561 390.509L142.41 389.402Z" fill="#919191" stroke="#263238" stroke-width="1.50998" stroke-miterlimit="10"/>
<path d="M134.057 290.1C134.057 290.1 119.988 271.077 113.958 272.073C107.929 273.069 101.838 315.632 108.908 344.173C115.978 372.713 140.602 402.209 174.73 411.253C214.443 421.765 248.329 403.205 248.622 399.744C248.914 396.283 211.969 382.22 134.057 290.1Z" fill="#D4D4D4"/>
<path opacity="0.29" d="M174.73 411.253C214.443 421.766 248.329 403.205 248.622 399.744C248.743 398.286 242.44 395.016 229.432 385.117C164.256 387.421 126.311 361.727 109.343 345.994C117.029 373.95 141.329 402.4 174.73 411.253Z" fill="#F0F0F0"/>
<path d="M134.057 290.1C134.057 290.1 119.988 271.077 113.958 272.073C107.929 273.069 101.838 315.632 108.908 344.173C115.978 372.713 140.602 402.209 174.73 411.253C214.443 421.765 248.329 403.205 248.622 399.744C248.914 396.283 211.969 382.22 134.057 290.1Z" stroke="#263238" stroke-width="1.50998" stroke-miterlimit="10"/>
<path d="M429.108 434.592C429.108 434.592 417.494 430.467 390.405 428.556C363.317 426.645 337.633 429.562 336.623 432.067C335.855 433.978 339.794 459.028 341.673 470.697C341.939 472.35 342.788 473.854 344.067 474.94C345.346 476.026 346.971 476.622 348.652 476.623H422.533C424.223 476.623 425.857 476.02 427.139 474.924C428.421 473.828 429.267 472.311 429.523 470.647L434.007 441.554C434.281 440.005 433.937 438.41 433.049 437.11C432.16 435.81 430.797 434.906 429.25 434.592H429.108Z" fill="#D4D4D4"/>
<path opacity="0.29" d="M427.826 474.248C392.001 474.329 372.933 456.553 363.913 440.98C360.398 434.944 354.672 431.282 348.763 429.139C341.612 429.934 337.007 431.031 336.643 432.067C335.876 433.978 339.815 459.028 341.693 470.697C341.96 472.35 342.808 473.854 344.087 474.94C345.366 476.026 346.992 476.622 348.672 476.622H422.554C423.551 476.619 424.536 476.406 425.445 475.997C426.354 475.588 427.165 474.992 427.826 474.248Z" fill="#F0F0F0"/>
<path d="M429.108 434.592C429.108 434.592 417.494 430.467 390.405 428.556C363.317 426.645 337.633 429.562 336.623 432.067C335.855 433.978 339.794 459.028 341.673 470.697C341.939 472.35 342.788 473.854 344.067 474.94C345.346 476.026 346.971 476.622 348.652 476.623H422.533C424.223 476.623 425.857 476.02 427.139 474.924C428.421 473.828 429.267 472.311 429.523 470.647L434.007 441.554C434.281 440.005 433.937 438.41 433.049 437.11C432.16 435.81 430.797 434.906 429.25 434.592H429.108Z" stroke="#263238" stroke-width="1.50998" stroke-miterlimit="10"/>
<path d="M462.954 476.623H483.154" stroke="#263238" stroke-width="1.50998" stroke-miterlimit="10"/>
<path d="M18.2911 476.623H454.53" stroke="#263238" stroke-width="1.50998" stroke-miterlimit="10"/>
</svg>
