<svg width="166" height="167" viewBox="0 0 166 167" fill="none" xmlns="http://www.w3.org/2000/svg">
<g id="Play market QR code">
<g id="Clip path group">
<mask id="mask0_109_814" style="mask-type:luminance" maskUnits="userSpaceOnUse" x="0" y="0" width="166" height="167">
<g id="clip-path-dot-color">
<path id="Vector" d="M6.15146 57.6133H0.445801L0.445801 63.3189H6.15146V57.6133Z" fill="white"/>
<path id="Vector_2" d="M6.15146 63.3188H0.445801L0.445801 69.0245H6.15146V63.3188Z" fill="white"/>
<path id="Vector_3" d="M6.15146 74.73H0.445801L0.445801 80.4356H6.15146V74.73Z" fill="white"/>
<path id="Vector_4" d="M6.15146 80.4355H0.445801L0.445801 86.1412H6.15146V80.4355Z" fill="white"/>
<path id="Vector_5" d="M6.15146 97.5527H0.445801L0.445801 103.258H6.15146V97.5527Z" fill="white"/>
<path id="Vector_6" d="M6.15146 103.258H0.445801L0.445801 108.964H6.15146V103.258Z" fill="white"/>
<path id="Vector_7" d="M6.15146 108.964H0.445801L0.445801 114.67H6.15146V108.964Z" fill="white"/>
<path id="Vector_8" d="M11.857 46.2021H6.15137V51.9078H11.857V46.2021Z" fill="white"/>
<path id="Vector_9" d="M11.857 63.3188H6.15137V69.0245H11.857V63.3188Z" fill="white"/>
<path id="Vector_10" d="M11.857 69.0244H6.15137V74.7301H11.857V69.0244Z" fill="white"/>
<path id="Vector_11" d="M11.857 74.73H6.15137V80.4356H11.857V74.73Z" fill="white"/>
<path id="Vector_12" d="M11.857 91.8472H6.15137V97.5528H11.857V91.8472Z" fill="white"/>
<path id="Vector_13" d="M11.857 97.5527H6.15137V103.258H11.857V97.5527Z" fill="white"/>
<path id="Vector_14" d="M11.857 114.67H6.15137V120.376H11.857V114.67Z" fill="white"/>
<path id="Vector_15" d="M17.5628 80.4355H11.8572V86.1412H17.5628V80.4355Z" fill="white"/>
<path id="Vector_16" d="M17.5628 91.8472H11.8572V97.5528H17.5628V91.8472Z" fill="white"/>
<path id="Vector_17" d="M17.5628 103.258H11.8572V108.964H17.5628V103.258Z" fill="white"/>
<path id="Vector_18" d="M17.5628 114.67H11.8572V120.376H17.5628V114.67Z" fill="white"/>
<path id="Vector_19" d="M23.2684 46.2021H17.5627V51.9078H23.2684V46.2021Z" fill="white"/>
<path id="Vector_20" d="M23.2684 51.9077H17.5627V57.6134H23.2684V51.9077Z" fill="white"/>
<path id="Vector_21" d="M23.2684 63.3188H17.5627V69.0245H23.2684V63.3188Z" fill="white"/>
<path id="Vector_22" d="M23.2684 91.8472H17.5627V97.5528H23.2684V91.8472Z" fill="white"/>
<path id="Vector_23" d="M23.2684 97.5527H17.5627V103.258H23.2684V97.5527Z" fill="white"/>
<path id="Vector_24" d="M23.2684 108.964H17.5627V114.67H23.2684V108.964Z" fill="white"/>
<path id="Vector_25" d="M23.2684 114.67H17.5627V120.376H23.2684V114.67Z" fill="white"/>
<path id="Vector_26" d="M28.9742 46.2021H23.2686V51.9078H28.9742V46.2021Z" fill="white"/>
<path id="Vector_27" d="M28.9742 57.6133H23.2686V63.3189H28.9742V57.6133Z" fill="white"/>
<path id="Vector_28" d="M28.9742 74.73H23.2686V80.4356H28.9742V74.73Z" fill="white"/>
<path id="Vector_29" d="M28.9742 80.4355H23.2686V86.1412H28.9742V80.4355Z" fill="white"/>
<path id="Vector_30" d="M28.9742 86.1416H23.2686V91.8473H28.9742V86.1416Z" fill="white"/>
<path id="Vector_31" d="M28.9742 97.5527H23.2686V103.258H28.9742V97.5527Z" fill="white"/>
<path id="Vector_32" d="M28.9742 108.964H23.2686V114.67H28.9742V108.964Z" fill="white"/>
<path id="Vector_33" d="M34.6798 51.9077H28.9741V57.6134H34.6798V51.9077Z" fill="white"/>
<path id="Vector_34" d="M34.6798 69.0244H28.9741V74.7301H34.6798V69.0244Z" fill="white"/>
<path id="Vector_35" d="M34.6798 80.4355H28.9741V86.1412H34.6798V80.4355Z" fill="white"/>
<path id="Vector_36" d="M34.6798 91.8472H28.9741V97.5528H34.6798V91.8472Z" fill="white"/>
<path id="Vector_37" d="M34.6798 97.5527H28.9741V103.258H34.6798V97.5527Z" fill="white"/>
<path id="Vector_38" d="M34.6798 103.258H28.9741V108.964H34.6798V103.258Z" fill="white"/>
<path id="Vector_39" d="M40.3853 46.2021H34.6797V51.9078H40.3853V46.2021Z" fill="white"/>
<path id="Vector_40" d="M40.3853 57.6133H34.6797V63.3189H40.3853V57.6133Z" fill="white"/>
<path id="Vector_41" d="M40.3853 69.0244H34.6797V74.7301H40.3853V69.0244Z" fill="white"/>
<path id="Vector_42" d="M40.3853 80.4355H34.6797V86.1412H40.3853V80.4355Z" fill="white"/>
<path id="Vector_43" d="M40.3853 91.8472H34.6797V97.5528H40.3853V91.8472Z" fill="white"/>
<path id="Vector_44" d="M40.3853 103.258H34.6797V108.964H40.3853V103.258Z" fill="white"/>
<path id="Vector_45" d="M40.3853 114.67H34.6797V120.376H40.3853V114.67Z" fill="white"/>
<path id="Vector_46" d="M46.0912 46.2021H40.3855V51.9078H46.0912V46.2021Z" fill="white"/>
<path id="Vector_47" d="M46.0912 51.9077H40.3855V57.6134H46.0912V51.9077Z" fill="white"/>
<path id="Vector_48" d="M46.0912 57.6133H40.3855V63.3189H46.0912V57.6133Z" fill="white"/>
<path id="Vector_49" d="M46.0912 69.0244H40.3855V74.7301H46.0912V69.0244Z" fill="white"/>
<path id="Vector_50" d="M46.0912 74.73H40.3855V80.4356H46.0912V74.73Z" fill="white"/>
<path id="Vector_51" d="M46.0912 80.4355H40.3855V86.1412H46.0912V80.4355Z" fill="white"/>
<path id="Vector_52" d="M46.0912 86.1416H40.3855V91.8473H46.0912V86.1416Z" fill="white"/>
<path id="Vector_53" d="M46.0912 91.8472H40.3855V97.5528H46.0912V91.8472Z" fill="white"/>
<path id="Vector_54" d="M46.0912 114.67H40.3855V120.376H46.0912V114.67Z" fill="white"/>
<path id="Vector_55" d="M51.7967 6.26221H46.0911V11.9679H51.7967V6.26221Z" fill="white"/>
<path id="Vector_56" d="M51.7967 17.6738H46.0911V23.3795H51.7967V17.6738Z" fill="white"/>
<path id="Vector_57" d="M51.7967 23.3794H46.0911V29.0851H51.7967V23.3794Z" fill="white"/>
<path id="Vector_58" d="M51.7967 29.085H46.0911V34.7906H51.7967V29.085Z" fill="white"/>
<path id="Vector_59" d="M51.7967 34.7905H46.0911V40.4962H51.7967V34.7905Z" fill="white"/>
<path id="Vector_60" d="M51.7967 46.2021H46.0911V51.9078H51.7967V46.2021Z" fill="white"/>
<path id="Vector_61" d="M51.7967 51.9077H46.0911V57.6134H51.7967V51.9077Z" fill="white"/>
<path id="Vector_62" d="M51.7967 63.3188H46.0911V69.0245H51.7967V63.3188Z" fill="white"/>
<path id="Vector_63" d="M51.7967 69.0244H46.0911V74.7301H51.7967V69.0244Z" fill="white"/>
<path id="Vector_64" d="M51.7967 80.4355H46.0911V86.1412H51.7967V80.4355Z" fill="white"/>
<path id="Vector_65" d="M51.7967 91.8472H46.0911V97.5528H51.7967V91.8472Z" fill="white"/>
<path id="Vector_66" d="M51.7967 103.258H46.0911V108.964H51.7967V103.258Z" fill="white"/>
<path id="Vector_67" d="M51.7967 108.964H46.0911V114.67H51.7967V108.964Z" fill="white"/>
<path id="Vector_68" d="M51.7967 120.375H46.0911V126.081H51.7967V120.375Z" fill="white"/>
<path id="Vector_69" d="M51.7967 126.081H46.0911V131.787H51.7967V126.081Z" fill="white"/>
<path id="Vector_70" d="M51.7967 137.492H46.0911V143.198H51.7967V137.492Z" fill="white"/>
<path id="Vector_71" d="M51.7967 143.198H46.0911V148.904H51.7967V143.198Z" fill="white"/>
<path id="Vector_72" d="M51.7967 154.61H46.0911V160.316H51.7967V154.61Z" fill="white"/>
<path id="Vector_73" d="M57.5023 29.085H51.7966V34.7906H57.5023V29.085Z" fill="white"/>
<path id="Vector_74" d="M57.5023 51.9077H51.7966V57.6134H57.5023V51.9077Z" fill="white"/>
<path id="Vector_75" d="M57.5023 74.73H51.7966V80.4356H57.5023V74.73Z" fill="white"/>
<path id="Vector_76" d="M57.5023 80.4355H51.7966V86.1412H57.5023V80.4355Z" fill="white"/>
<path id="Vector_77" d="M57.5023 91.8472H51.7966V97.5528H57.5023V91.8472Z" fill="white"/>
<path id="Vector_78" d="M57.5023 97.5527H51.7966V103.258H57.5023V97.5527Z" fill="white"/>
<path id="Vector_79" d="M57.5023 114.67H51.7966V120.376H57.5023V114.67Z" fill="white"/>
<path id="Vector_80" d="M57.5023 120.375H51.7966V126.081H57.5023V120.375Z" fill="white"/>
<path id="Vector_81" d="M57.5023 126.081H51.7966V131.787H57.5023V126.081Z" fill="white"/>
<path id="Vector_82" d="M57.5023 131.787H51.7966V137.492H57.5023V131.787Z" fill="white"/>
<path id="Vector_83" d="M57.5023 137.492H51.7966V143.198H57.5023V137.492Z" fill="white"/>
<path id="Vector_84" d="M57.5023 148.904H51.7966V154.61H57.5023V148.904Z" fill="white"/>
<path id="Vector_85" d="M57.5023 154.61H51.7966V160.316H57.5023V154.61Z" fill="white"/>
<path id="Vector_86" d="M63.2081 11.9678H57.5024V17.6734H63.2081V11.9678Z" fill="white"/>
<path id="Vector_87" d="M63.2081 17.6738H57.5024V23.3795H63.2081V17.6738Z" fill="white"/>
<path id="Vector_88" d="M63.2081 23.3794H57.5024V29.0851H63.2081V23.3794Z" fill="white"/>
<path id="Vector_89" d="M63.2081 34.7905H57.5024V40.4962H63.2081V34.7905Z" fill="white"/>
<path id="Vector_90" d="M63.2081 40.4961H57.5024V46.2018H63.2081V40.4961Z" fill="white"/>
<path id="Vector_91" d="M63.2081 46.2021H57.5024V51.9078H63.2081V46.2021Z" fill="white"/>
<path id="Vector_92" d="M63.2081 57.6133H57.5024V63.3189H63.2081V57.6133Z" fill="white"/>
<path id="Vector_93" d="M63.2081 74.73H57.5024V80.4356H63.2081V74.73Z" fill="white"/>
<path id="Vector_94" d="M63.2081 97.5527H57.5024V103.258H63.2081V97.5527Z" fill="white"/>
<path id="Vector_95" d="M63.2081 103.258H57.5024V108.964H63.2081V103.258Z" fill="white"/>
<path id="Vector_96" d="M63.2081 114.67H57.5024V120.376H63.2081V114.67Z" fill="white"/>
<path id="Vector_97" d="M63.2081 120.375H57.5024V126.081H63.2081V120.375Z" fill="white"/>
<path id="Vector_98" d="M63.2081 126.081H57.5024V131.787H63.2081V126.081Z" fill="white"/>
<path id="Vector_99" d="M63.2081 131.787H57.5024V137.492H63.2081V131.787Z" fill="white"/>
<path id="Vector_100" d="M63.2081 137.492H57.5024V143.198H63.2081V137.492Z" fill="white"/>
<path id="Vector_101" d="M68.9137 6.26221H63.208V11.9679H68.9137V6.26221Z" fill="white"/>
<path id="Vector_102" d="M68.9137 11.9678H63.208V17.6734H68.9137V11.9678Z" fill="white"/>
<path id="Vector_103" d="M68.9137 17.6738H63.208V23.3795H68.9137V17.6738Z" fill="white"/>
<path id="Vector_104" d="M68.9137 46.2021H63.208V51.9078H68.9137V46.2021Z" fill="white"/>
<path id="Vector_105" d="M68.9137 57.6133H63.208V63.3189H68.9137V57.6133Z" fill="white"/>
<path id="Vector_106" d="M68.9137 63.3188H63.208V69.0245H68.9137V63.3188Z" fill="white"/>
<path id="Vector_107" d="M68.9137 74.73H63.208V80.4356H68.9137V74.73Z" fill="white"/>
<path id="Vector_108" d="M68.9137 97.5527H63.208V103.258H68.9137V97.5527Z" fill="white"/>
<path id="Vector_109" d="M68.9137 114.67H63.208V120.376H68.9137V114.67Z" fill="white"/>
<path id="Vector_110" d="M68.9137 137.492H63.208V143.198H68.9137V137.492Z" fill="white"/>
<path id="Vector_111" d="M68.9137 143.198H63.208V148.904H68.9137V143.198Z" fill="white"/>
<path id="Vector_112" d="M68.9137 160.315H63.208V166.021H68.9137V160.315Z" fill="white"/>
<path id="Vector_113" d="M74.6195 6.26221H68.9138V11.9679H74.6195V6.26221Z" fill="white"/>
<path id="Vector_114" d="M74.6195 17.6738H68.9138V23.3795H74.6195V17.6738Z" fill="white"/>
<path id="Vector_115" d="M74.6195 29.085H68.9138V34.7906H74.6195V29.085Z" fill="white"/>
<path id="Vector_116" d="M74.6195 34.7905H68.9138V40.4962H74.6195V34.7905Z" fill="white"/>
<path id="Vector_117" d="M74.6195 46.2021H68.9138V51.9078H74.6195V46.2021Z" fill="white"/>
<path id="Vector_118" d="M74.6195 51.9077H68.9138V57.6134H74.6195V51.9077Z" fill="white"/>
<path id="Vector_119" d="M74.6195 57.6133H68.9138V63.3189H74.6195V57.6133Z" fill="white"/>
<path id="Vector_120" d="M74.6195 74.73H68.9138V80.4356H74.6195V74.73Z" fill="white"/>
<path id="Vector_121" d="M74.6195 103.258H68.9138V108.964H74.6195V103.258Z" fill="white"/>
<path id="Vector_122" d="M74.6195 108.964H68.9138V114.67H74.6195V108.964Z" fill="white"/>
<path id="Vector_123" d="M74.6195 120.375H68.9138V126.081H74.6195V120.375Z" fill="white"/>
<path id="Vector_124" d="M74.6195 126.081H68.9138V131.787H74.6195V126.081Z" fill="white"/>
<path id="Vector_125" d="M74.6195 143.198H68.9138V148.904H74.6195V143.198Z" fill="white"/>
<path id="Vector_126" d="M74.6195 154.61H68.9138V160.316H74.6195V154.61Z" fill="white"/>
<path id="Vector_127" d="M80.325 0.556641L74.6194 0.556641V6.2623H80.325V0.556641Z" fill="white"/>
<path id="Vector_128" d="M80.325 11.9678H74.6194V17.6734H80.325V11.9678Z" fill="white"/>
<path id="Vector_129" d="M80.325 23.3794H74.6194V29.0851H80.325V23.3794Z" fill="white"/>
<path id="Vector_130" d="M80.325 29.085H74.6194V34.7906H80.325V29.085Z" fill="white"/>
<path id="Vector_131" d="M80.325 40.4961H74.6194V46.2018H80.325V40.4961Z" fill="white"/>
<path id="Vector_132" d="M80.325 46.2021H74.6194V51.9078H80.325V46.2021Z" fill="white"/>
<path id="Vector_133" d="M80.325 51.9077H74.6194V57.6134H80.325V51.9077Z" fill="white"/>
<path id="Vector_134" d="M80.325 63.3188H74.6194V69.0245H80.325V63.3188Z" fill="white"/>
<path id="Vector_135" d="M80.325 74.73H74.6194V80.4356H80.325V74.73Z" fill="white"/>
<path id="Vector_136" d="M80.325 86.1416H74.6194V91.8473H80.325V86.1416Z" fill="white"/>
<path id="Vector_137" d="M80.325 97.5527H74.6194V103.258H80.325V97.5527Z" fill="white"/>
<path id="Vector_138" d="M80.325 103.258H74.6194V108.964H80.325V103.258Z" fill="white"/>
<path id="Vector_139" d="M80.325 126.081H74.6194V131.787H80.325V126.081Z" fill="white"/>
<path id="Vector_140" d="M80.325 137.492H74.6194V143.198H80.325V137.492Z" fill="white"/>
<path id="Vector_141" d="M80.325 148.904H74.6194V154.61H80.325V148.904Z" fill="white"/>
<path id="Vector_142" d="M80.325 160.315H74.6194V166.021H80.325V160.315Z" fill="white"/>
<path id="Vector_143" d="M86.0306 6.26221H80.325V11.9679H86.0306V6.26221Z" fill="white"/>
<path id="Vector_144" d="M86.0306 17.6738H80.325V23.3795H86.0306V17.6738Z" fill="white"/>
<path id="Vector_145" d="M86.0306 23.3794H80.325V29.0851H86.0306V23.3794Z" fill="white"/>
<path id="Vector_146" d="M86.0306 29.085H80.325V34.7906H86.0306V29.085Z" fill="white"/>
<path id="Vector_147" d="M86.0306 34.7905H80.325V40.4962H86.0306V34.7905Z" fill="white"/>
<path id="Vector_148" d="M86.0306 51.9077H80.325V57.6134H86.0306V51.9077Z" fill="white"/>
<path id="Vector_149" d="M86.0306 57.6133H80.325V63.3189H86.0306V57.6133Z" fill="white"/>
<path id="Vector_150" d="M86.0306 69.0244H80.325V74.7301H86.0306V69.0244Z" fill="white"/>
<path id="Vector_151" d="M86.0306 80.4355H80.325V86.1412H86.0306V80.4355Z" fill="white"/>
<path id="Vector_152" d="M86.0306 91.8472H80.325V97.5528H86.0306V91.8472Z" fill="white"/>
<path id="Vector_153" d="M86.0306 97.5527H80.325V103.258H86.0306V97.5527Z" fill="white"/>
<path id="Vector_154" d="M86.0306 108.964H80.325V114.67H86.0306V108.964Z" fill="white"/>
<path id="Vector_155" d="M86.0306 114.67H80.325V120.376H86.0306V114.67Z" fill="white"/>
<path id="Vector_156" d="M86.0306 126.081H80.325V131.787H86.0306V126.081Z" fill="white"/>
<path id="Vector_157" d="M86.0306 131.787H80.325V137.492H86.0306V131.787Z" fill="white"/>
<path id="Vector_158" d="M86.0306 143.198H80.325V148.904H86.0306V143.198Z" fill="white"/>
<path id="Vector_159" d="M86.0306 160.315H80.325V166.021H86.0306V160.315Z" fill="white"/>
<path id="Vector_160" d="M91.7364 6.26221H86.0308V11.9679H91.7364V6.26221Z" fill="white"/>
<path id="Vector_161" d="M91.7364 11.9678H86.0308V17.6734H91.7364V11.9678Z" fill="white"/>
<path id="Vector_162" d="M91.7364 17.6738H86.0308V23.3795H91.7364V17.6738Z" fill="white"/>
<path id="Vector_163" d="M91.7364 40.4961H86.0308V46.2018H91.7364V40.4961Z" fill="white"/>
<path id="Vector_164" d="M91.7364 46.2021H86.0308V51.9078H91.7364V46.2021Z" fill="white"/>
<path id="Vector_165" d="M91.7364 51.9077H86.0308V57.6134H91.7364V51.9077Z" fill="white"/>
<path id="Vector_166" d="M91.7364 57.6133H86.0308V63.3189H91.7364V57.6133Z" fill="white"/>
<path id="Vector_167" d="M91.7364 74.73H86.0308V80.4356H91.7364V74.73Z" fill="white"/>
<path id="Vector_168" d="M91.7364 80.4355H86.0308V86.1412H91.7364V80.4355Z" fill="white"/>
<path id="Vector_169" d="M91.7364 86.1416H86.0308V91.8473H91.7364V86.1416Z" fill="white"/>
<path id="Vector_170" d="M91.7364 97.5527H86.0308V103.258H91.7364V97.5527Z" fill="white"/>
<path id="Vector_171" d="M91.7364 103.258H86.0308V108.964H91.7364V103.258Z" fill="white"/>
<path id="Vector_172" d="M91.7364 114.67H86.0308V120.376H91.7364V114.67Z" fill="white"/>
<path id="Vector_173" d="M91.7364 126.081H86.0308V131.787H91.7364V126.081Z" fill="white"/>
<path id="Vector_174" d="M91.7364 137.492H86.0308V143.198H91.7364V137.492Z" fill="white"/>
<path id="Vector_175" d="M91.7364 143.198H86.0308V148.904H91.7364V143.198Z" fill="white"/>
<path id="Vector_176" d="M91.7364 148.904H86.0308V154.61H91.7364V148.904Z" fill="white"/>
<path id="Vector_177" d="M91.7364 154.61H86.0308V160.316H91.7364V154.61Z" fill="white"/>
<path id="Vector_178" d="M91.7364 160.315H86.0308V166.021H91.7364V160.315Z" fill="white"/>
<path id="Vector_179" d="M97.442 11.9678H91.7363V17.6734H97.442V11.9678Z" fill="white"/>
<path id="Vector_180" d="M97.442 17.6738H91.7363V23.3795H97.442V17.6738Z" fill="white"/>
<path id="Vector_181" d="M97.442 34.7905H91.7363V40.4962H97.442V34.7905Z" fill="white"/>
<path id="Vector_182" d="M97.442 46.2021H91.7363V51.9078H97.442V46.2021Z" fill="white"/>
<path id="Vector_183" d="M97.442 51.9077H91.7363V57.6134H97.442V51.9077Z" fill="white"/>
<path id="Vector_184" d="M97.442 69.0244H91.7363V74.7301H97.442V69.0244Z" fill="white"/>
<path id="Vector_185" d="M97.442 74.73H91.7363V80.4356H97.442V74.73Z" fill="white"/>
<path id="Vector_186" d="M97.442 86.1416H91.7363V91.8473H97.442V86.1416Z" fill="white"/>
<path id="Vector_187" d="M97.442 91.8472H91.7363V97.5528H97.442V91.8472Z" fill="white"/>
<path id="Vector_188" d="M97.442 97.5527H91.7363V103.258H97.442V97.5527Z" fill="white"/>
<path id="Vector_189" d="M97.442 120.375H91.7363V126.081H97.442V120.375Z" fill="white"/>
<path id="Vector_190" d="M97.442 143.198H91.7363V148.904H97.442V143.198Z" fill="white"/>
<path id="Vector_191" d="M97.442 160.315H91.7363V166.021H97.442V160.315Z" fill="white"/>
<path id="Vector_192" d="M103.148 0.556641L97.4421 0.556641V6.2623H103.148V0.556641Z" fill="white"/>
<path id="Vector_193" d="M103.148 6.26221H97.4421V11.9679H103.148V6.26221Z" fill="white"/>
<path id="Vector_194" d="M103.148 11.9678H97.4421V17.6734H103.148V11.9678Z" fill="white"/>
<path id="Vector_195" d="M103.148 23.3794H97.4421V29.0851H103.148V23.3794Z" fill="white"/>
<path id="Vector_196" d="M103.148 46.2021H97.4421V51.9078H103.148V46.2021Z" fill="white"/>
<path id="Vector_197" d="M103.148 57.6133H97.4421V63.3189H103.148V57.6133Z" fill="white"/>
<path id="Vector_198" d="M103.148 63.3188H97.4421V69.0245H103.148V63.3188Z" fill="white"/>
<path id="Vector_199" d="M103.148 69.0244H97.4421V74.7301H103.148V69.0244Z" fill="white"/>
<path id="Vector_200" d="M103.148 74.73H97.4421V80.4356H103.148V74.73Z" fill="white"/>
<path id="Vector_201" d="M103.148 91.8472H97.4421V97.5528H103.148V91.8472Z" fill="white"/>
<path id="Vector_202" d="M103.148 103.258H97.4421V108.964H103.148V103.258Z" fill="white"/>
<path id="Vector_203" d="M103.148 108.964H97.4421V114.67H103.148V108.964Z" fill="white"/>
<path id="Vector_204" d="M103.148 114.67H97.4421V120.376H103.148V114.67Z" fill="white"/>
<path id="Vector_205" d="M103.148 137.492H97.4421V143.198H103.148V137.492Z" fill="white"/>
<path id="Vector_206" d="M103.148 143.198H97.4421V148.904H103.148V143.198Z" fill="white"/>
<path id="Vector_207" d="M103.148 148.904H97.4421V154.61H103.148V148.904Z" fill="white"/>
<path id="Vector_208" d="M108.853 0.556641L103.148 0.556641V6.2623H108.853V0.556641Z" fill="white"/>
<path id="Vector_209" d="M108.853 6.26221H103.148V11.9679H108.853V6.26221Z" fill="white"/>
<path id="Vector_210" d="M108.853 11.9678H103.148V17.6734H108.853V11.9678Z" fill="white"/>
<path id="Vector_211" d="M108.853 23.3794H103.148V29.0851H108.853V23.3794Z" fill="white"/>
<path id="Vector_212" d="M108.853 29.085H103.148V34.7906H108.853V29.085Z" fill="white"/>
<path id="Vector_213" d="M108.853 34.7905H103.148V40.4962H108.853V34.7905Z" fill="white"/>
<path id="Vector_214" d="M108.853 40.4961H103.148V46.2018H108.853V40.4961Z" fill="white"/>
<path id="Vector_215" d="M108.853 46.2021H103.148V51.9078H108.853V46.2021Z" fill="white"/>
<path id="Vector_216" d="M108.853 51.9077H103.148V57.6134H108.853V51.9077Z" fill="white"/>
<path id="Vector_217" d="M108.853 63.3188H103.148V69.0245H108.853V63.3188Z" fill="white"/>
<path id="Vector_218" d="M108.853 69.0244H103.148V74.7301H108.853V69.0244Z" fill="white"/>
<path id="Vector_219" d="M108.853 86.1416H103.148V91.8473H108.853V86.1416Z" fill="white"/>
<path id="Vector_220" d="M108.853 108.964H103.148V114.67H108.853V108.964Z" fill="white"/>
<path id="Vector_221" d="M108.853 114.67H103.148V120.376H108.853V114.67Z" fill="white"/>
<path id="Vector_222" d="M108.853 137.492H103.148V143.198H108.853V137.492Z" fill="white"/>
<path id="Vector_223" d="M108.853 148.904H103.148V154.61H108.853V148.904Z" fill="white"/>
<path id="Vector_224" d="M108.853 160.315H103.148V166.021H108.853V160.315Z" fill="white"/>
<path id="Vector_225" d="M114.559 0.556641L108.853 0.556641V6.2623H114.559V0.556641Z" fill="white"/>
<path id="Vector_226" d="M114.559 6.26221H108.853V11.9679H114.559V6.26221Z" fill="white"/>
<path id="Vector_227" d="M114.559 11.9678H108.853V17.6734H114.559V11.9678Z" fill="white"/>
<path id="Vector_228" d="M114.559 17.6738H108.853V23.3795H114.559V17.6738Z" fill="white"/>
<path id="Vector_229" d="M114.559 29.085H108.853V34.7906H114.559V29.085Z" fill="white"/>
<path id="Vector_230" d="M114.559 40.4961H108.853V46.2018H114.559V40.4961Z" fill="white"/>
<path id="Vector_231" d="M114.559 51.9077H108.853V57.6134H114.559V51.9077Z" fill="white"/>
<path id="Vector_232" d="M114.559 63.3188H108.853V69.0245H114.559V63.3188Z" fill="white"/>
<path id="Vector_233" d="M114.559 103.258H108.853V108.964H114.559V103.258Z" fill="white"/>
<path id="Vector_234" d="M114.559 120.375H108.853V126.081H114.559V120.375Z" fill="white"/>
<path id="Vector_235" d="M114.559 126.081H108.853V131.787H114.559V126.081Z" fill="white"/>
<path id="Vector_236" d="M114.559 131.787H108.853V137.492H114.559V131.787Z" fill="white"/>
<path id="Vector_237" d="M114.559 137.492H108.853V143.198H114.559V137.492Z" fill="white"/>
<path id="Vector_238" d="M114.559 148.904H108.853V154.61H114.559V148.904Z" fill="white"/>
<path id="Vector_239" d="M114.559 160.315H108.853V166.021H114.559V160.315Z" fill="white"/>
<path id="Vector_240" d="M120.265 0.556641L114.559 0.556641V6.2623H120.265V0.556641Z" fill="white"/>
<path id="Vector_241" d="M120.265 6.26221H114.559V11.9679H120.265V6.26221Z" fill="white"/>
<path id="Vector_242" d="M120.265 17.6738H114.559V23.3795H120.265V17.6738Z" fill="white"/>
<path id="Vector_243" d="M120.265 34.7905H114.559V40.4962H120.265V34.7905Z" fill="white"/>
<path id="Vector_244" d="M120.265 40.4961H114.559V46.2018H120.265V40.4961Z" fill="white"/>
<path id="Vector_245" d="M120.265 51.9077H114.559V57.6134H120.265V51.9077Z" fill="white"/>
<path id="Vector_246" d="M120.265 57.6133H114.559V63.3189H120.265V57.6133Z" fill="white"/>
<path id="Vector_247" d="M120.265 69.0244H114.559V74.7301H120.265V69.0244Z" fill="white"/>
<path id="Vector_248" d="M120.265 74.73H114.559V80.4356H120.265V74.73Z" fill="white"/>
<path id="Vector_249" d="M120.265 80.4355H114.559V86.1412H120.265V80.4355Z" fill="white"/>
<path id="Vector_250" d="M120.265 86.1416H114.559V91.8473H120.265V86.1416Z" fill="white"/>
<path id="Vector_251" d="M120.265 91.8472H114.559V97.5528H120.265V91.8472Z" fill="white"/>
<path id="Vector_252" d="M120.265 97.5527H114.559V103.258H120.265V97.5527Z" fill="white"/>
<path id="Vector_253" d="M120.265 108.964H114.559V114.67H120.265V108.964Z" fill="white"/>
<path id="Vector_254" d="M120.265 114.67H114.559V120.376H120.265V114.67Z" fill="white"/>
<path id="Vector_255" d="M120.265 120.375H114.559V126.081H120.265V120.375Z" fill="white"/>
<path id="Vector_256" d="M120.265 126.081H114.559V131.787H120.265V126.081Z" fill="white"/>
<path id="Vector_257" d="M120.265 131.787H114.559V137.492H120.265V131.787Z" fill="white"/>
<path id="Vector_258" d="M120.265 137.492H114.559V143.198H120.265V137.492Z" fill="white"/>
<path id="Vector_259" d="M120.265 143.198H114.559V148.904H120.265V143.198Z" fill="white"/>
<path id="Vector_260" d="M120.265 154.61H114.559V160.316H120.265V154.61Z" fill="white"/>
<path id="Vector_261" d="M125.97 46.2021H120.265V51.9078H125.97V46.2021Z" fill="white"/>
<path id="Vector_262" d="M125.97 51.9077H120.265V57.6134H125.97V51.9077Z" fill="white"/>
<path id="Vector_263" d="M125.97 57.6133H120.265V63.3189H125.97V57.6133Z" fill="white"/>
<path id="Vector_264" d="M125.97 63.3188H120.265V69.0245H125.97V63.3188Z" fill="white"/>
<path id="Vector_265" d="M125.97 86.1416H120.265V91.8473H125.97V86.1416Z" fill="white"/>
<path id="Vector_266" d="M125.97 91.8472H120.265V97.5528H125.97V91.8472Z" fill="white"/>
<path id="Vector_267" d="M125.97 103.258H120.265V108.964H125.97V103.258Z" fill="white"/>
<path id="Vector_268" d="M125.97 108.964H120.265V114.67H125.97V108.964Z" fill="white"/>
<path id="Vector_269" d="M125.97 114.67H120.265V120.376H125.97V114.67Z" fill="white"/>
<path id="Vector_270" d="M125.97 137.492H120.265V143.198H125.97V137.492Z" fill="white"/>
<path id="Vector_271" d="M125.97 143.198H120.265V148.904H125.97V143.198Z" fill="white"/>
<path id="Vector_272" d="M125.97 148.904H120.265V154.61H125.97V148.904Z" fill="white"/>
<path id="Vector_273" d="M131.676 51.9077H125.97V57.6134H131.676V51.9077Z" fill="white"/>
<path id="Vector_274" d="M131.676 57.6133H125.97V63.3189H131.676V57.6133Z" fill="white"/>
<path id="Vector_275" d="M131.676 63.3188H125.97V69.0245H131.676V63.3188Z" fill="white"/>
<path id="Vector_276" d="M131.676 74.73H125.97V80.4356H131.676V74.73Z" fill="white"/>
<path id="Vector_277" d="M131.676 80.4355H125.97V86.1412H131.676V80.4355Z" fill="white"/>
<path id="Vector_278" d="M131.676 86.1416H125.97V91.8473H131.676V86.1416Z" fill="white"/>
<path id="Vector_279" d="M131.676 91.8472H125.97V97.5528H131.676V91.8472Z" fill="white"/>
<path id="Vector_280" d="M131.676 97.5527H125.97V103.258H131.676V97.5527Z" fill="white"/>
<path id="Vector_281" d="M131.676 103.258H125.97V108.964H131.676V103.258Z" fill="white"/>
<path id="Vector_282" d="M131.676 108.964H125.97V114.67H131.676V108.964Z" fill="white"/>
<path id="Vector_283" d="M131.676 114.67H125.97V120.376H131.676V114.67Z" fill="white"/>
<path id="Vector_284" d="M131.676 126.081H125.97V131.787H131.676V126.081Z" fill="white"/>
<path id="Vector_285" d="M131.676 137.492H125.97V143.198H131.676V137.492Z" fill="white"/>
<path id="Vector_286" d="M131.676 148.904H125.97V154.61H131.676V148.904Z" fill="white"/>
<path id="Vector_287" d="M137.382 46.2021H131.676V51.9078H137.382V46.2021Z" fill="white"/>
<path id="Vector_288" d="M137.382 69.0244H131.676V74.7301H137.382V69.0244Z" fill="white"/>
<path id="Vector_289" d="M137.382 80.4355H131.676V86.1412H137.382V80.4355Z" fill="white"/>
<path id="Vector_290" d="M137.382 86.1416H131.676V91.8473H137.382V86.1416Z" fill="white"/>
<path id="Vector_291" d="M137.382 97.5527H131.676V103.258H137.382V97.5527Z" fill="white"/>
<path id="Vector_292" d="M137.382 108.964H131.676V114.67H137.382V108.964Z" fill="white"/>
<path id="Vector_293" d="M137.382 114.67H131.676V120.376H137.382V114.67Z" fill="white"/>
<path id="Vector_294" d="M137.382 137.492H131.676V143.198H137.382V137.492Z" fill="white"/>
<path id="Vector_295" d="M137.382 143.198H131.676V148.904H137.382V143.198Z" fill="white"/>
<path id="Vector_296" d="M137.382 154.61H131.676V160.316H137.382V154.61Z" fill="white"/>
<path id="Vector_297" d="M143.087 46.2021H137.382V51.9078H143.087V46.2021Z" fill="white"/>
<path id="Vector_298" d="M143.087 74.73H137.382V80.4356H143.087V74.73Z" fill="white"/>
<path id="Vector_299" d="M143.087 91.8472H137.382V97.5528H143.087V91.8472Z" fill="white"/>
<path id="Vector_300" d="M143.087 97.5527H137.382V103.258H143.087V97.5527Z" fill="white"/>
<path id="Vector_301" d="M143.087 103.258H137.382V108.964H143.087V103.258Z" fill="white"/>
<path id="Vector_302" d="M143.087 108.964H137.382V114.67H143.087V108.964Z" fill="white"/>
<path id="Vector_303" d="M143.087 114.67H137.382V120.376H143.087V114.67Z" fill="white"/>
<path id="Vector_304" d="M143.087 120.375H137.382V126.081H143.087V120.375Z" fill="white"/>
<path id="Vector_305" d="M143.087 126.081H137.382V131.787H143.087V126.081Z" fill="white"/>
<path id="Vector_306" d="M143.087 131.787H137.382V137.492H143.087V131.787Z" fill="white"/>
<path id="Vector_307" d="M143.087 137.492H137.382V143.198H143.087V137.492Z" fill="white"/>
<path id="Vector_308" d="M148.793 46.2021H143.087V51.9078H148.793V46.2021Z" fill="white"/>
<path id="Vector_309" d="M148.793 63.3188H143.087V69.0245H148.793V63.3188Z" fill="white"/>
<path id="Vector_310" d="M148.793 80.4355H143.087V86.1412H148.793V80.4355Z" fill="white"/>
<path id="Vector_311" d="M148.793 91.8472H143.087V97.5528H148.793V91.8472Z" fill="white"/>
<path id="Vector_312" d="M148.793 97.5527H143.087V103.258H148.793V97.5527Z" fill="white"/>
<path id="Vector_313" d="M148.793 131.787H143.087V137.492H148.793V131.787Z" fill="white"/>
<path id="Vector_314" d="M148.793 143.198H143.087V148.904H148.793V143.198Z" fill="white"/>
<path id="Vector_315" d="M148.793 148.904H143.087V154.61H148.793V148.904Z" fill="white"/>
<path id="Vector_316" d="M148.793 154.61H143.087V160.316H148.793V154.61Z" fill="white"/>
<path id="Vector_317" d="M154.499 69.0244H148.793V74.7301H154.499V69.0244Z" fill="white"/>
<path id="Vector_318" d="M154.499 80.4355H148.793V86.1412H154.499V80.4355Z" fill="white"/>
<path id="Vector_319" d="M154.499 91.8472H148.793V97.5528H154.499V91.8472Z" fill="white"/>
<path id="Vector_320" d="M154.499 103.258H148.793V108.964H154.499V103.258Z" fill="white"/>
<path id="Vector_321" d="M154.499 114.67H148.793V120.376H154.499V114.67Z" fill="white"/>
<path id="Vector_322" d="M154.499 120.375H148.793V126.081H154.499V120.375Z" fill="white"/>
<path id="Vector_323" d="M154.499 131.787H148.793V137.492H154.499V131.787Z" fill="white"/>
<path id="Vector_324" d="M154.499 137.492H148.793V143.198H154.499V137.492Z" fill="white"/>
<path id="Vector_325" d="M154.499 154.61H148.793V160.316H154.499V154.61Z" fill="white"/>
<path id="Vector_326" d="M154.499 160.315H148.793V166.021H154.499V160.315Z" fill="white"/>
<path id="Vector_327" d="M160.204 46.2021H154.499V51.9078H160.204V46.2021Z" fill="white"/>
<path id="Vector_328" d="M160.204 63.3188H154.499V69.0245H160.204V63.3188Z" fill="white"/>
<path id="Vector_329" d="M160.204 86.1416H154.499V91.8473H160.204V86.1416Z" fill="white"/>
<path id="Vector_330" d="M160.204 120.375H154.499V126.081H160.204V120.375Z" fill="white"/>
<path id="Vector_331" d="M160.204 137.492H154.499V143.198H160.204V137.492Z" fill="white"/>
<path id="Vector_332" d="M160.204 143.198H154.499V148.904H160.204V143.198Z" fill="white"/>
<path id="Vector_333" d="M160.204 148.904H154.499V154.61H160.204V148.904Z" fill="white"/>
<path id="Vector_334" d="M160.204 160.315H154.499V166.021H160.204V160.315Z" fill="white"/>
<path id="Vector_335" d="M165.91 74.73H160.204V80.4356H165.91V74.73Z" fill="white"/>
<path id="Vector_336" d="M165.91 80.4355H160.204V86.1412H165.91V80.4355Z" fill="white"/>
<path id="Vector_337" d="M165.91 108.964H160.204V114.67H165.91V108.964Z" fill="white"/>
<path id="Vector_338" d="M165.91 114.67H160.204V120.376H165.91V114.67Z" fill="white"/>
<path id="Vector_339" d="M165.91 131.787H160.204V137.492H165.91V131.787Z" fill="white"/>
<path id="Vector_340" d="M165.91 137.492H160.204V143.198H165.91V137.492Z" fill="white"/>
<path id="Vector_341" d="M165.91 143.198H160.204V148.904H165.91V143.198Z" fill="white"/>
</g>
</mask>
<g mask="url(#mask0_109_814)">
<path id="Vector_342" d="M165.91 0.556641L0.445801 0.556641L0.445801 166.021H165.91V0.556641Z" fill="black"/>
</g>
</g>
<g id="Clip path group_2">
<mask id="mask1_109_814" style="mask-type:luminance" maskUnits="userSpaceOnUse" x="0" y="0" width="41" height="41">
<g id="clip-path-corners-square-color-0-0">
<path id="Vector_343" d="M6.15146 0.556641L0.445801 0.556641L0.445801 6.2623H6.15146V0.556641Z" fill="white"/>
<path id="Vector_344" d="M6.15146 6.26221H0.445801L0.445801 11.9679H6.15146V6.26221Z" fill="white"/>
<path id="Vector_345" d="M6.15146 11.9678H0.445801L0.445801 17.6734H6.15146V11.9678Z" fill="white"/>
<path id="Vector_346" d="M6.15146 17.6738H0.445801L0.445801 23.3795H6.15146V17.6738Z" fill="white"/>
<path id="Vector_347" d="M6.15146 23.3794H0.445801L0.445801 29.0851H6.15146V23.3794Z" fill="white"/>
<path id="Vector_348" d="M6.15146 29.085H0.445801L0.445801 34.7906H6.15146V29.085Z" fill="white"/>
<path id="Vector_349" d="M6.15146 34.7905H0.445801L0.445801 40.4962H6.15146V34.7905Z" fill="white"/>
<path id="Vector_350" d="M11.857 0.556641L6.15137 0.556641V6.2623H11.857V0.556641Z" fill="white"/>
<path id="Vector_351" d="M11.857 34.7905H6.15137V40.4962H11.857V34.7905Z" fill="white"/>
<path id="Vector_352" d="M17.5628 0.556641L11.8572 0.556641V6.2623H17.5628V0.556641Z" fill="white"/>
<path id="Vector_353" d="M17.5628 34.7905H11.8572V40.4962H17.5628V34.7905Z" fill="white"/>
<path id="Vector_354" d="M23.2684 0.556641L17.5627 0.556641V6.2623H23.2684V0.556641Z" fill="white"/>
<path id="Vector_355" d="M23.2684 34.7905H17.5627V40.4962H23.2684V34.7905Z" fill="white"/>
<path id="Vector_356" d="M28.9742 0.556641L23.2686 0.556641V6.2623H28.9742V0.556641Z" fill="white"/>
<path id="Vector_357" d="M28.9742 34.7905H23.2686V40.4962H28.9742V34.7905Z" fill="white"/>
<path id="Vector_358" d="M34.6798 0.556641L28.9741 0.556641V6.2623H34.6798V0.556641Z" fill="white"/>
<path id="Vector_359" d="M34.6798 34.7905H28.9741V40.4962H34.6798V34.7905Z" fill="white"/>
<path id="Vector_360" d="M40.3853 0.556641L34.6797 0.556641V6.2623H40.3853V0.556641Z" fill="white"/>
<path id="Vector_361" d="M40.3853 6.26221H34.6797V11.9679H40.3853V6.26221Z" fill="white"/>
<path id="Vector_362" d="M40.3853 11.9678H34.6797V17.6734H40.3853V11.9678Z" fill="white"/>
<path id="Vector_363" d="M40.3853 17.6738H34.6797V23.3795H40.3853V17.6738Z" fill="white"/>
<path id="Vector_364" d="M40.3853 23.3794H34.6797V29.0851H40.3853V23.3794Z" fill="white"/>
<path id="Vector_365" d="M40.3853 29.085H34.6797V34.7906H40.3853V29.085Z" fill="white"/>
<path id="Vector_366" d="M40.3853 34.7905H34.6797V40.4962H40.3853V34.7905Z" fill="white"/>
</g>
</mask>
<g mask="url(#mask1_109_814)">
<path id="Vector_367" d="M40.3854 0.556641L0.445801 0.556641L0.445801 40.4963H40.3854V0.556641Z" fill="black"/>
</g>
</g>
<g id="Clip path group_3">
<mask id="mask2_109_814" style="mask-type:luminance" maskUnits="userSpaceOnUse" x="11" y="11" width="18" height="19">
<g id="clip-path-corners-dot-color-0-0">
<path id="Vector_368" d="M17.5628 11.9678H11.8572V17.6734H17.5628V11.9678Z" fill="white"/>
<path id="Vector_369" d="M17.5628 17.6738H11.8572V23.3795H17.5628V17.6738Z" fill="white"/>
<path id="Vector_370" d="M17.5628 23.3794H11.8572V29.0851H17.5628V23.3794Z" fill="white"/>
<path id="Vector_371" d="M23.2684 11.9678H17.5627V17.6734H23.2684V11.9678Z" fill="white"/>
<path id="Vector_372" d="M23.2684 17.6738H17.5627V23.3795H23.2684V17.6738Z" fill="white"/>
<path id="Vector_373" d="M23.2684 23.3794H17.5627V29.0851H23.2684V23.3794Z" fill="white"/>
<path id="Vector_374" d="M28.9742 11.9678H23.2686V17.6734H28.9742V11.9678Z" fill="white"/>
<path id="Vector_375" d="M28.9742 17.6738H23.2686V23.3795H28.9742V17.6738Z" fill="white"/>
<path id="Vector_376" d="M28.9742 23.3794H23.2686V29.0851H28.9742V23.3794Z" fill="white"/>
</g>
</mask>
<g mask="url(#mask2_109_814)">
<path id="Vector_377" d="M28.9742 11.9678H11.8572V29.0848H28.9742V11.9678Z" fill="black"/>
</g>
</g>
<g id="Clip path group_4">
<mask id="mask3_109_814" style="mask-type:luminance" maskUnits="userSpaceOnUse" x="125" y="0" width="41" height="41">
<g id="clip-path-corners-square-color-1-0">
<path id="Vector_378" d="M131.676 0.556641L125.97 0.556641V6.2623H131.676V0.556641Z" fill="white"/>
<path id="Vector_379" d="M131.676 6.26221H125.97V11.9679H131.676V6.26221Z" fill="white"/>
<path id="Vector_380" d="M131.676 11.9678H125.97V17.6734H131.676V11.9678Z" fill="white"/>
<path id="Vector_381" d="M131.676 17.6738H125.97V23.3795H131.676V17.6738Z" fill="white"/>
<path id="Vector_382" d="M131.676 23.3794H125.97V29.0851H131.676V23.3794Z" fill="white"/>
<path id="Vector_383" d="M131.676 29.085H125.97V34.7906H131.676V29.085Z" fill="white"/>
<path id="Vector_384" d="M131.676 34.7905H125.97V40.4962H131.676V34.7905Z" fill="white"/>
<path id="Vector_385" d="M137.382 0.556641L131.676 0.556641V6.2623H137.382V0.556641Z" fill="white"/>
<path id="Vector_386" d="M137.382 34.7905H131.676V40.4962H137.382V34.7905Z" fill="white"/>
<path id="Vector_387" d="M143.087 0.556641L137.382 0.556641V6.2623H143.087V0.556641Z" fill="white"/>
<path id="Vector_388" d="M143.087 34.7905H137.382V40.4962H143.087V34.7905Z" fill="white"/>
<path id="Vector_389" d="M148.793 0.556641L143.087 0.556641V6.2623H148.793V0.556641Z" fill="white"/>
<path id="Vector_390" d="M148.793 34.7905H143.087V40.4962H148.793V34.7905Z" fill="white"/>
<path id="Vector_391" d="M154.499 0.556641L148.793 0.556641V6.2623H154.499V0.556641Z" fill="white"/>
<path id="Vector_392" d="M154.499 34.7905H148.793V40.4962H154.499V34.7905Z" fill="white"/>
<path id="Vector_393" d="M160.204 0.556641L154.499 0.556641V6.2623H160.204V0.556641Z" fill="white"/>
<path id="Vector_394" d="M160.204 34.7905H154.499V40.4962H160.204V34.7905Z" fill="white"/>
<path id="Vector_395" d="M165.91 0.556641L160.204 0.556641V6.2623H165.91V0.556641Z" fill="white"/>
<path id="Vector_396" d="M165.91 6.26221H160.204V11.9679H165.91V6.26221Z" fill="white"/>
<path id="Vector_397" d="M165.91 11.9678H160.204V17.6734H165.91V11.9678Z" fill="white"/>
<path id="Vector_398" d="M165.91 17.6738H160.204V23.3795H165.91V17.6738Z" fill="white"/>
<path id="Vector_399" d="M165.91 23.3794H160.204V29.0851H165.91V23.3794Z" fill="white"/>
<path id="Vector_400" d="M165.91 29.085H160.204V34.7906H165.91V29.085Z" fill="white"/>
<path id="Vector_401" d="M165.91 34.7905H160.204V40.4962H165.91V34.7905Z" fill="white"/>
</g>
</mask>
<g mask="url(#mask3_109_814)">
<path id="Vector_402" d="M165.91 0.556641L125.97 0.556641V40.4963H165.91V0.556641Z" fill="black"/>
</g>
</g>
<g id="Clip path group_5">
<mask id="mask4_109_814" style="mask-type:luminance" maskUnits="userSpaceOnUse" x="137" y="11" width="18" height="19">
<g id="clip-path-corners-dot-color-1-0">
<path id="Vector_403" d="M143.087 11.9678H137.382V17.6734H143.087V11.9678Z" fill="white"/>
<path id="Vector_404" d="M143.087 17.6738H137.382V23.3795H143.087V17.6738Z" fill="white"/>
<path id="Vector_405" d="M143.087 23.3794H137.382V29.0851H143.087V23.3794Z" fill="white"/>
<path id="Vector_406" d="M148.793 11.9678H143.087V17.6734H148.793V11.9678Z" fill="white"/>
<path id="Vector_407" d="M148.793 17.6738H143.087V23.3795H148.793V17.6738Z" fill="white"/>
<path id="Vector_408" d="M148.793 23.3794H143.087V29.0851H148.793V23.3794Z" fill="white"/>
<path id="Vector_409" d="M154.499 11.9678H148.793V17.6734H154.499V11.9678Z" fill="white"/>
<path id="Vector_410" d="M154.499 17.6738H148.793V23.3795H154.499V17.6738Z" fill="white"/>
<path id="Vector_411" d="M154.499 23.3794H148.793V29.0851H154.499V23.3794Z" fill="white"/>
</g>
</mask>
<g mask="url(#mask4_109_814)">
<path id="Vector_412" d="M154.499 11.9678H137.382V29.0848H154.499V11.9678Z" fill="black"/>
</g>
</g>
<g id="Clip path group_6">
<mask id="mask5_109_814" style="mask-type:luminance" maskUnits="userSpaceOnUse" x="0" y="126" width="41" height="41">
<g id="clip-path-corners-square-color-0-1">
<path id="Vector_413" d="M6.15146 126.081H0.445801L0.445801 131.787H6.15146V126.081Z" fill="white"/>
<path id="Vector_414" d="M6.15146 131.786H0.445801L0.445801 137.492H6.15146V131.786Z" fill="white"/>
<path id="Vector_415" d="M6.15146 137.492H0.445801L0.445801 143.198H6.15146V137.492Z" fill="white"/>
<path id="Vector_416" d="M6.15146 143.198H0.445801L0.445801 148.903H6.15146V143.198Z" fill="white"/>
<path id="Vector_417" d="M6.15146 148.903H0.445801L0.445801 154.608H6.15146V148.903Z" fill="white"/>
<path id="Vector_418" d="M6.15146 154.609H0.445801L0.445801 160.315H6.15146V154.609Z" fill="white"/>
<path id="Vector_419" d="M6.15146 160.315H0.445801L0.445801 166.021H6.15146V160.315Z" fill="white"/>
<path id="Vector_420" d="M11.857 126.081H6.15137V131.787H11.857V126.081Z" fill="white"/>
<path id="Vector_421" d="M11.857 160.315H6.15137V166.021H11.857V160.315Z" fill="white"/>
<path id="Vector_422" d="M17.5628 126.081H11.8572V131.787H17.5628V126.081Z" fill="white"/>
<path id="Vector_423" d="M17.5628 160.315H11.8572V166.021H17.5628V160.315Z" fill="white"/>
<path id="Vector_424" d="M23.2684 126.081H17.5627V131.787H23.2684V126.081Z" fill="white"/>
<path id="Vector_425" d="M23.2684 160.315H17.5627V166.021H23.2684V160.315Z" fill="white"/>
<path id="Vector_426" d="M28.9742 126.081H23.2686V131.787H28.9742V126.081Z" fill="white"/>
<path id="Vector_427" d="M28.9742 160.315H23.2686V166.021H28.9742V160.315Z" fill="white"/>
<path id="Vector_428" d="M34.6798 126.081H28.9741V131.787H34.6798V126.081Z" fill="white"/>
<path id="Vector_429" d="M34.6798 160.315H28.9741V166.021H34.6798V160.315Z" fill="white"/>
<path id="Vector_430" d="M40.3853 126.081H34.6797V131.787H40.3853V126.081Z" fill="white"/>
<path id="Vector_431" d="M40.3853 131.786H34.6797V137.492H40.3853V131.786Z" fill="white"/>
<path id="Vector_432" d="M40.3853 137.492H34.6797V143.198H40.3853V137.492Z" fill="white"/>
<path id="Vector_433" d="M40.3853 143.198H34.6797V148.903H40.3853V143.198Z" fill="white"/>
<path id="Vector_434" d="M40.3853 148.903H34.6797V154.608H40.3853V148.903Z" fill="white"/>
<path id="Vector_435" d="M40.3853 154.609H34.6797V160.315H40.3853V154.609Z" fill="white"/>
<path id="Vector_436" d="M40.3853 160.315H34.6797V166.021H40.3853V160.315Z" fill="white"/>
</g>
</mask>
<g mask="url(#mask5_109_814)">
<path id="Vector_437" d="M40.3854 126.081H0.445801L0.445801 166.021H40.3854V126.081Z" fill="black"/>
</g>
</g>
<g id="Clip path group_7">
<mask id="mask6_109_814" style="mask-type:luminance" maskUnits="userSpaceOnUse" x="11" y="137" width="18" height="18">
<g id="clip-path-corners-dot-color-0-1">
<path id="Vector_438" d="M17.5628 137.493H11.8572V143.198H17.5628V137.493Z" fill="white"/>
<path id="Vector_439" d="M17.5628 143.198H11.8572V148.903H17.5628V143.198Z" fill="white"/>
<path id="Vector_440" d="M17.5628 148.903H11.8572V154.609H17.5628V148.903Z" fill="white"/>
<path id="Vector_441" d="M23.2684 137.493H17.5627V143.198H23.2684V137.493Z" fill="white"/>
<path id="Vector_442" d="M23.2684 143.198H17.5627V148.903H23.2684V143.198Z" fill="white"/>
<path id="Vector_443" d="M23.2684 148.903H17.5627V154.609H23.2684V148.903Z" fill="white"/>
<path id="Vector_444" d="M28.9742 137.493H23.2686V143.198H28.9742V137.493Z" fill="white"/>
<path id="Vector_445" d="M28.9742 143.198H23.2686V148.903H28.9742V143.198Z" fill="white"/>
<path id="Vector_446" d="M28.9742 148.903H23.2686V154.609H28.9742V148.903Z" fill="white"/>
</g>
</mask>
<g mask="url(#mask6_109_814)">
<path id="Vector_447" d="M28.9742 137.493H11.8572V154.61H28.9742V137.493Z" fill="black"/>
</g>
</g>
</g>
</svg>
