<svg width="481" height="441" viewBox="0 0 481 441" fill="none" xmlns="http://www.w3.org/2000/svg">
<g clip-path="url(#clip0_249_2225)">
<path d="M552.043 369.474H-76.6113V369.788H552.043V369.474Z" fill="#EBEBEB"/>
<path d="M489.05 389.701H447.408V390.016H489.05V389.701Z" fill="#EBEBEB"/>
<path d="M339.834 393.121H328.908V393.435H339.834V393.121Z" fill="#EBEBEB"/>
<path d="M446.153 378.035H422.025V378.349H446.153V378.035Z" fill="#EBEBEB"/>
<path d="M43.6528 380.147H-10.6504V380.461H43.6528V380.147Z" fill="#EBEBEB"/>
<path d="M62.8123 380.147H54.8535V380.461H62.8123V380.147Z" fill="#EBEBEB"/>
<path d="M206.474 385.452H88.6895V385.767H206.474V385.452Z" fill="#EBEBEB"/>
<path d="M221.372 313.405H-21.4017C-23.3036 313.402 -25.1264 312.644 -26.4701 311.299C-27.8137 309.953 -28.5684 308.129 -28.5684 306.227V-34.9992C-28.5518 -36.8899 -27.7898 -38.6977 -26.448 -40.03C-25.1061 -41.3622 -23.2927 -42.1114 -21.4017 -42.1146H221.372C223.276 -42.1146 225.102 -41.3583 226.449 -40.0121C227.795 -38.6659 228.551 -36.8401 228.551 -34.9363V306.227C228.551 308.131 227.795 309.957 226.449 311.303C225.102 312.649 223.276 313.405 221.372 313.405ZM-21.4017 -41.8632C-23.2202 -41.8598 -24.9631 -41.1352 -26.2478 -39.8483C-27.5325 -38.5614 -28.254 -36.8174 -28.254 -34.9992V306.227C-28.254 308.045 -27.5325 309.789 -26.2478 311.076C-24.9631 312.363 -23.2202 313.088 -21.4017 313.091H221.372C223.192 313.088 224.936 312.364 226.223 311.077C227.509 309.791 228.234 308.047 228.237 306.227V-34.9992C228.234 -36.8186 227.509 -38.5625 226.223 -39.8491C224.936 -41.1356 223.192 -41.8598 221.372 -41.8632H-21.4017Z" fill="#EBEBEB"/>
<path d="M493.339 313.405H250.552C248.649 313.402 246.825 312.645 245.479 311.299C244.134 309.954 243.376 308.13 243.373 306.227V-34.9992C243.393 -36.891 244.158 -38.6988 245.502 -40.0308C246.845 -41.3627 248.66 -42.1114 250.552 -42.1146H493.339C495.227 -42.108 497.038 -41.3575 498.377 -40.0256C499.716 -38.6936 500.476 -36.8877 500.493 -34.9992V306.227C500.493 308.127 499.74 309.949 498.399 311.294C497.058 312.64 495.238 313.399 493.339 313.405ZM250.552 -41.8632C248.733 -41.8598 246.988 -41.1356 245.702 -39.8491C244.415 -38.5625 243.691 -36.8186 243.687 -34.9992V306.227C243.691 308.047 244.415 309.791 245.702 311.077C246.988 312.364 248.733 313.088 250.552 313.091H493.339C495.158 313.088 496.902 312.364 498.189 311.077C499.476 309.791 500.2 308.047 500.204 306.227V-34.9992C500.2 -36.8186 499.476 -38.5625 498.189 -39.8491C496.902 -41.1356 495.158 -41.8598 493.339 -41.8632H250.552Z" fill="#EBEBEB"/>
<path d="M109.547 192.569C109.547 193.487 109.547 194.404 109.547 195.322C109.546 216.613 114.875 237.565 125.049 256.268L140.037 247.959C131.247 231.806 126.644 213.71 126.646 195.322C126.646 194.517 126.646 193.713 126.646 192.896L109.547 192.569Z" fill="#E6E6E6"/>
<path d="M233.027 322.029L233.391 304.794H232.913C217.019 304.432 201.399 300.574 187.164 293.496C172.929 286.417 160.427 276.291 150.547 263.836L137.207 274.685C148.644 289.099 163.116 300.818 179.594 309.009C196.072 317.2 214.152 321.663 232.549 322.08L233.027 322.029Z" fill="#E6E6E6"/>
<path d="M182.95 99.2511L174.702 84.1654C168.289 87.7287 162.197 91.8424 156.496 96.4603L167.221 109.887C172.148 105.896 177.411 102.338 182.95 99.2511Z" fill="#E6E6E6"/>
<path d="M288.008 291.167L296.293 306.252C302.681 302.669 308.744 298.534 314.411 293.895L303.661 280.493C298.762 284.497 293.525 288.068 288.008 291.167Z" fill="#E6E6E6"/>
<path d="M330.592 142.371C339.444 158.563 344.087 176.718 344.095 195.171C344.095 195.9 344.095 196.629 344.095 197.359L361.195 197.66C361.195 196.831 361.195 196.001 361.195 195.146C361.194 173.768 355.82 152.733 345.566 133.973L330.592 142.371Z" fill="#E6E6E6"/>
<path d="M238.158 68.514L237.881 74.3094L237.793 85.7368C253.652 86.1028 269.237 89.946 283.448 96.9949C297.658 104.044 310.148 114.127 320.034 126.531L333.348 115.707C321.906 101.351 307.449 89.6837 291.001 81.5289C274.552 73.374 256.513 68.9311 238.158 68.514Z" fill="#E6E6E6"/>
<path d="M235.352 279.626C281.599 279.626 319.089 241.854 319.089 195.259C319.089 148.665 281.599 110.892 235.352 110.892C189.105 110.892 151.615 148.665 151.615 195.259C151.615 241.854 189.105 279.626 235.352 279.626Z" fill="#E6E6E6"/>
<path d="M393.372 166.056C388.057 136.726 374.748 109.433 354.911 87.1826L347.279 94.0968C365.843 114.918 378.299 140.458 383.276 167.904L393.372 166.056Z" fill="#E6E6E6"/>
<path d="M212.844 45.458L211.31 35.2374C193.789 37.8857 176.836 43.4524 161.156 51.706L165.896 60.8705C180.573 53.1422 196.443 47.9323 212.844 45.458Z" fill="#E6E6E6"/>
<path d="M395.585 183.693L385.35 184.423C385.589 187.968 385.715 191.601 385.727 195.196C385.727 196.353 385.727 197.509 385.727 198.666C385.464 210.584 383.809 222.431 380.799 233.967L390.732 236.607C393.939 224.281 395.703 211.625 395.987 198.892C395.987 197.66 395.987 196.428 395.987 195.196C395.987 191.349 395.849 187.49 395.585 183.693Z" fill="#E6E6E6"/>
<path d="M313.733 53.9688C308.591 51.0743 303.293 48.4639 297.865 46.1494L293.867 55.666C298.95 57.8298 303.907 60.2767 308.716 62.9951L313.733 53.9688Z" fill="#E6E6E6"/>
<path d="M151.691 69.3688L145.932 60.7826C121.294 77.4372 101.718 100.555 89.3535 127.6L98.6827 131.924C110.265 106.597 128.606 84.9518 151.691 69.3688Z" fill="#E6E6E6"/>
<path d="M74.7695 191.626C74.7695 192.883 74.7695 194.14 74.7695 195.335V196.743L85.0418 196.667V195.41C85.0418 194.253 85.0418 193.097 85.0418 191.94C85.1298 187.98 85.3812 183.983 85.771 180.048L75.5491 179.017C75.1216 183.14 74.8701 187.402 74.7695 191.626Z" fill="#E6E6E6"/>
<path d="M107.835 275.565L99.1348 281.059C108.517 296.158 120.322 309.609 134.075 320.873L140.551 312.852C127.668 302.308 116.614 289.71 107.835 275.565Z" fill="#E6E6E6"/>
<path d="M231.983 346.72C204.233 346.105 177.203 337.769 153.929 322.645L148.359 331.332C173.227 347.49 202.107 356.397 231.757 357.053H235.428C252.741 357.066 269.941 354.255 286.349 348.731L283.093 338.925C266.634 344.455 249.342 347.092 231.983 346.72Z" fill="#E6E6E6"/>
<path d="M326.684 315.618L332.97 323.827C337.647 320.222 342.122 316.36 346.373 312.261L339.232 304.857C335.251 308.673 331.062 312.266 326.684 315.618Z" fill="#E6E6E6"/>
<path d="M8.15762 236.179H59.1289V233.778H8.15762V236.179Z" fill="#F0F0F0"/>
<path d="M8.15762 241.233H59.1289V238.832H8.15762V241.233Z" fill="#F0F0F0"/>
<path d="M8.15762 246.274H59.1289V243.873H8.15762V246.274Z" fill="#F0F0F0"/>
<path d="M-0.0788651 251.328H59.1152V248.927H-0.0788651V251.328Z" fill="#F0F0F0"/>
<path d="M-0.0788651 256.369H59.1152V253.968H-0.0788651V256.369Z" fill="#F0F0F0"/>
<path d="M-0.0788651 261.423H59.1152V259.021H-0.0788651V261.423Z" fill="#F0F0F0"/>
<path d="M-8.30166 266.476H59.1152V264.075H-8.30166V266.476Z" fill="#F0F0F0"/>
<path d="M-8.30166 271.517H59.1152V269.116H-8.30166V271.517Z" fill="#F0F0F0"/>
<path d="M-0.0788651 276.571H59.1152V274.17H-0.0788651V276.571Z" fill="#F0F0F0"/>
<path d="M-8.30166 281.612H59.1152V279.211H-8.30166V281.612Z" fill="#F0F0F0"/>
<path d="M65.0391 243.885H75.1855V233.74H65.0391V243.885Z" fill="#F0F0F0"/>
<path d="M391.021 64.0386H441.992V61.6374L391.021 61.6374V64.0386Z" fill="#F0F0F0"/>
<path d="M391.021 58.9848L441.992 58.9848V56.5837L391.021 56.5837V58.9848Z" fill="#F0F0F0"/>
<path d="M391.021 53.9437L441.992 53.9437V51.5426L391.021 51.5426V53.9437Z" fill="#F0F0F0"/>
<path d="M391.007 48.89L450.201 48.89V46.4888L391.007 46.4888V48.89Z" fill="#F0F0F0"/>
<path d="M391.007 43.8363L450.201 43.8363V41.4351L391.007 41.4351V43.8363Z" fill="#F0F0F0"/>
<path d="M391.007 38.7951L450.201 38.7951V36.394L391.007 36.394V38.7951Z" fill="#F0F0F0"/>
<path d="M391.005 33.7414L458.422 33.7414V31.3403L391.005 31.3403V33.7414Z" fill="#F0F0F0"/>
<path d="M385.086 31.3151H374.939V41.4603H385.086V31.3151Z" fill="#F0F0F0"/>
<path d="M467.29 243.898H416.318V246.299H467.29V243.898Z" fill="#F0F0F0"/>
<path d="M467.29 248.952H416.318V251.353H467.29V248.952Z" fill="#F0F0F0"/>
<path d="M467.29 253.993H416.318V256.394H467.29V253.993Z" fill="#F0F0F0"/>
<path d="M475.512 259.059H416.318V261.46H475.512V259.059Z" fill="#F0F0F0"/>
<path d="M475.512 264.113H416.318V266.514H475.512V264.113Z" fill="#F0F0F0"/>
<path d="M483.735 269.154H416.318V271.555H483.735V269.154Z" fill="#F0F0F0"/>
<path d="M483.735 274.208H416.318V276.609H483.735V274.208Z" fill="#F0F0F0"/>
<path d="M475.512 279.249H416.318V281.65H475.512V279.249Z" fill="#F0F0F0"/>
<path d="M483.735 284.303H416.318V286.704H483.735V284.303Z" fill="#F0F0F0"/>
<path d="M483.735 289.356H416.318V291.757H483.735V289.356Z" fill="#F0F0F0"/>
<path d="M467.29 294.397H416.318V296.799H467.29V294.397Z" fill="#F0F0F0"/>
<path d="M467.29 299.451H416.318V301.852H467.29V299.451Z" fill="#F0F0F0"/>
<path d="M467.29 304.492H416.318V306.893H467.29V304.492Z" fill="#F0F0F0"/>
<path d="M410.395 243.86H400.248V254.005H410.395V243.86Z" fill="#F0F0F0"/>
<path d="M78.1627 70.4249H27.1914V72.826H78.1627V70.4249Z" fill="#F0F0F0"/>
<path d="M78.1627 65.3837H27.1914V67.7848H78.1627V65.3837Z" fill="#F0F0F0"/>
<path d="M78.1627 60.33H27.1914V62.7311H78.1627V60.33Z" fill="#F0F0F0"/>
<path d="M78.1628 55.2763H18.9688V57.6774H78.1628V55.2763Z" fill="#F0F0F0"/>
<path d="M78.1628 50.2351H18.9688V52.6363H78.1628V50.2351Z" fill="#F0F0F0"/>
<path d="M78.1628 45.1814H18.9688V47.5825H78.1628V45.1814Z" fill="#F0F0F0"/>
<path d="M78.1649 40.1403H10.748V42.5414H78.1649V40.1403Z" fill="#F0F0F0"/>
<path d="M78.1649 35.0866H10.748V37.4877H78.1649V35.0866Z" fill="#F0F0F0"/>
<path d="M78.1628 30.0328H18.9688V32.434H78.1628V30.0328Z" fill="#F0F0F0"/>
<path d="M84.0859 40.1403H94.2324V29.9951H84.0859V40.1403Z" fill="#F0F0F0"/>
<path d="M237.717 426.247C372.353 426.247 481.497 419.875 481.497 412.016C481.497 404.156 372.353 397.785 237.717 397.785C103.081 397.785 -6.0625 404.156 -6.0625 412.016C-6.0625 419.875 103.081 426.247 237.717 426.247Z" fill="#F5F5F5"/>
<path d="M381.09 379.179H103.137V413.424H381.09V379.179Z" fill="#263238"/>
<path opacity="0.5" d="M381.09 379.179H103.137V413.424H381.09V379.179Z" fill="white"/>
<path opacity="0.2" d="M381.09 413.424H103.137L122.009 379.179L134.155 400.06H340.542L351.644 379.179L381.09 413.424Z" fill="black"/>
<path d="M103.011 261.863H55.8617L6.67578 413.751H127.604L103.011 261.863Z" fill="#263238"/>
<path opacity="0.5" d="M103.011 261.863H55.8617L6.67578 413.751H127.604L103.011 261.863Z" fill="white"/>
<path opacity="0.2" d="M55.8613 261.863L58.8789 413.097L127.603 413.751L103.01 261.863H55.8613Z" fill="white"/>
<path opacity="0.3" d="M123.265 410.017L62.4995 409.439L62.336 401.682L62.2732 398.552L62.1474 391.989L62.0846 388.859L61.9588 382.297L61.896 379.179L61.7577 372.604L61.6948 369.487L61.5691 362.924L61.5062 359.794L61.3805 353.232L61.3176 350.101L61.1793 343.539L61.1164 340.409L60.9907 333.847L60.9278 330.729L60.8021 324.167L60.7392 321.036L60.6009 314.474L60.5381 311.356L60.4123 304.781L60.3369 301.651L60.2237 295.089L60.1609 291.971L60.0226 285.396L59.9597 282.279L59.834 275.716L59.7711 272.586L59.6328 265.559H99.8667L123.265 410.017Z" fill="black"/>
<path opacity="0.2" d="M98.3854 272.586V275.716H59.8363L59.7734 272.586H98.3854Z" fill="white"/>
<path opacity="0.2" d="M99.9685 282.279V285.396H60.0238L59.9609 282.279H99.9685Z" fill="white"/>
<path opacity="0.2" d="M101.551 291.971V295.089H60.223L60.1602 291.971H101.551Z" fill="white"/>
<path opacity="0.2" d="M103.135 301.651V304.781H60.4114L60.3359 301.651H103.135Z" fill="white"/>
<path opacity="0.2" d="M104.721 311.356V314.474H60.6019L60.5391 311.356H104.721Z" fill="white"/>
<path opacity="0.2" d="M106.305 321.036V324.167H60.8031L60.7402 321.036H106.305Z" fill="white"/>
<path opacity="0.2" d="M107.888 330.729V333.847H60.9906L60.9277 330.729H107.888Z" fill="white"/>
<path opacity="0.2" d="M109.463 340.409V343.539H61.182L61.1191 340.409H109.463Z" fill="white"/>
<path opacity="0.2" d="M111.045 350.101V353.232H61.3812L61.3184 350.101H111.045Z" fill="white"/>
<path opacity="0.2" d="M112.641 359.794V362.924H61.5687L61.5059 359.794H112.641Z" fill="white"/>
<path opacity="0.2" d="M114.226 369.487V372.604H61.7582L61.6953 369.487H114.226Z" fill="white"/>
<path opacity="0.2" d="M115.81 379.179V382.297H61.9593L61.8965 379.179H115.81Z" fill="white"/>
<path opacity="0.2" d="M117.393 388.859V391.989H62.1469L62.084 388.859H117.393Z" fill="white"/>
<path opacity="0.2" d="M118.98 398.552V401.682H62.3383L62.2754 398.552H118.98Z" fill="white"/>
<path d="M371.9 261.863H419.049L468.235 413.751H347.307L371.9 261.863Z" fill="#263238"/>
<path opacity="0.5" d="M371.9 261.863H419.049L468.235 413.751H347.307L371.9 261.863Z" fill="white"/>
<path opacity="0.2" d="M419.049 261.863L416.031 413.097L347.307 413.751L371.9 261.863H419.049Z" fill="white"/>
<path opacity="0.3" d="M351.643 410.017L412.408 409.439L412.572 401.682L412.635 398.552L412.76 391.989L412.823 388.859L412.962 382.297L413.012 379.179L413.15 372.604L413.213 369.487L413.339 362.924L413.402 359.794L413.527 353.232L413.59 350.101L413.728 343.539L413.791 340.409L413.917 333.847L413.98 330.729L414.106 324.167L414.169 321.036L414.307 314.474L414.37 311.356L414.495 304.781L414.558 301.651L414.684 295.089L414.747 291.971L414.885 285.396L414.948 282.279L415.086 275.716L415.137 272.586L415.275 265.559H375.041L351.643 410.017Z" fill="black"/>
<path opacity="0.2" d="M376.527 272.586V275.716H415.089L415.139 272.586H376.527Z" fill="white"/>
<path opacity="0.2" d="M374.941 282.279V285.396H414.886L414.949 282.279H374.941Z" fill="white"/>
<path opacity="0.2" d="M373.359 291.971V295.089H414.687L414.75 291.971H373.359Z" fill="white"/>
<path opacity="0.2" d="M371.773 301.651V304.781H414.497L414.56 301.651H371.773Z" fill="white"/>
<path opacity="0.2" d="M370.188 311.356V314.474H414.306L414.369 311.356H370.188Z" fill="white"/>
<path opacity="0.2" d="M368.604 321.036V324.167H414.106L414.168 321.036H368.604Z" fill="white"/>
<path opacity="0.2" d="M367.02 330.729V333.847H413.917L413.98 330.729H367.02Z" fill="white"/>
<path opacity="0.2" d="M365.447 340.409V343.539H413.728L413.791 340.409H365.447Z" fill="white"/>
<path opacity="0.2" d="M363.865 350.101V353.232H413.529L413.592 350.101H363.865Z" fill="white"/>
<path opacity="0.2" d="M362.27 359.794V362.924H413.341L413.404 359.794H362.27Z" fill="white"/>
<path opacity="0.2" d="M360.684 369.487V372.604H413.151L413.214 369.487H360.684Z" fill="white"/>
<path opacity="0.2" d="M359.102 379.179V382.297H412.965L413.015 379.179H359.102Z" fill="white"/>
<path opacity="0.2" d="M357.514 388.859V391.989H412.76L412.823 388.859H357.514Z" fill="white"/>
<path opacity="0.2" d="M355.932 398.552V401.682H412.573L412.636 398.552H355.932Z" fill="white"/>
<path d="M328.798 285.761C327.467 287.53 326.597 289.602 326.265 291.791C325.934 293.979 326.153 296.216 326.901 298.3C327.649 300.383 328.904 302.248 330.552 303.726C332.2 305.204 334.19 306.249 336.342 306.768C335.15 307.391 334.114 308.275 333.309 309.353C332.505 310.431 331.953 311.676 331.694 312.996C331.436 314.316 331.477 315.678 331.816 316.979C332.155 318.281 332.781 319.49 333.65 320.517C334.519 321.544 335.608 322.363 336.835 322.913C338.063 323.462 339.399 323.729 340.744 323.693C342.089 323.658 343.408 323.32 344.605 322.705C345.802 322.091 346.845 321.216 347.658 320.144L347.784 319.955C348.331 320.554 348.933 321.102 349.581 321.589C351.896 323.327 354.71 324.269 357.605 324.275C360.499 324.28 363.317 323.348 365.638 321.619C367.959 319.89 369.657 317.457 370.48 314.682C371.303 311.908 371.205 308.941 370.201 306.227C371.671 305.388 372.954 304.259 373.973 302.908C375.407 301.011 376.259 298.738 376.426 296.365C376.592 293.993 376.067 291.623 374.912 289.544C373.758 287.465 372.025 285.765 369.923 284.652C367.821 283.538 365.441 283.059 363.072 283.272C362.601 280.948 361.467 278.811 359.808 277.117C358.149 275.423 356.036 274.244 353.723 273.723C351.41 273.203 348.995 273.362 346.77 274.181C344.545 275.001 342.605 276.447 341.183 278.344C340.698 278.998 340.277 279.697 339.925 280.431C337.778 280.357 335.645 280.803 333.708 281.731C331.77 282.659 330.086 284.041 328.798 285.761Z" fill="#E3B005"/>
<path opacity="0.8" d="M328.798 285.761C327.467 287.53 326.597 289.602 326.265 291.791C325.934 293.979 326.153 296.216 326.901 298.3C327.649 300.383 328.904 302.248 330.552 303.726C332.2 305.204 334.19 306.249 336.342 306.768C335.15 307.391 334.114 308.275 333.309 309.353C332.505 310.431 331.953 311.676 331.694 312.996C331.436 314.316 331.477 315.678 331.816 316.979C332.155 318.281 332.781 319.49 333.65 320.517C334.519 321.544 335.608 322.363 336.835 322.913C338.063 323.462 339.399 323.729 340.744 323.693C342.089 323.658 343.408 323.32 344.605 322.705C345.802 322.091 346.845 321.216 347.658 320.144L347.784 319.955C348.331 320.554 348.933 321.102 349.581 321.589C351.896 323.327 354.71 324.269 357.605 324.275C360.499 324.28 363.317 323.348 365.638 321.619C367.959 319.89 369.657 317.457 370.48 314.682C371.303 311.908 371.205 308.941 370.201 306.227C371.671 305.388 372.954 304.259 373.973 302.908C375.407 301.011 376.259 298.738 376.426 296.365C376.592 293.993 376.067 291.623 374.912 289.544C373.758 287.465 372.025 285.765 369.923 284.652C367.821 283.538 365.441 283.059 363.072 283.272C362.601 280.948 361.467 278.811 359.808 277.117C358.149 275.423 356.036 274.244 353.723 273.723C351.41 273.203 348.995 273.362 346.77 274.181C344.545 275.001 342.605 276.447 341.183 278.344C340.698 278.998 340.277 279.697 339.925 280.431C337.778 280.357 335.645 280.803 333.708 281.731C331.77 282.659 330.086 284.041 328.798 285.761Z" fill="white"/>
<path d="M157.755 356.978C156.427 358.749 155.56 360.822 155.231 363.01C154.902 365.199 155.121 367.435 155.868 369.518C156.616 371.601 157.869 373.466 159.515 374.946C161.161 376.426 163.148 377.474 165.299 377.997C164.087 378.608 163.033 379.49 162.218 380.575C161.51 381.517 160.994 382.59 160.701 383.732C160.407 384.874 160.341 386.063 160.507 387.23C160.673 388.397 161.067 389.521 161.667 390.536C162.267 391.551 163.061 392.438 164.004 393.146C164.947 393.854 166.02 394.37 167.162 394.663C168.304 394.957 169.493 395.023 170.66 394.857C171.828 394.691 172.951 394.297 173.966 393.697C174.982 393.097 175.869 392.303 176.577 391.361L176.715 391.172C177.263 391.775 177.865 392.327 178.513 392.819C180.829 394.554 183.643 395.493 186.537 395.496C189.43 395.499 192.247 394.566 194.566 392.835C196.885 391.105 198.582 388.671 199.403 385.897C200.224 383.123 200.125 380.158 199.12 377.444C200.598 376.616 201.883 375.485 202.892 374.125C204.326 372.228 205.178 369.955 205.345 367.583C205.511 365.21 204.986 362.84 203.831 360.761C202.677 358.682 200.944 356.982 198.842 355.869C196.74 354.755 194.361 354.276 191.992 354.489C191.52 352.165 190.386 350.028 188.727 348.334C187.069 346.64 184.955 345.461 182.642 344.941C180.329 344.42 177.914 344.579 175.689 345.399C173.464 346.218 171.524 347.664 170.102 349.561C169.614 350.217 169.193 350.921 168.844 351.66C166.705 351.592 164.58 352.04 162.65 352.965C160.72 353.891 159.041 355.267 157.755 356.978Z" fill="#E3B005"/>
<path opacity="0.8" d="M157.755 356.978C156.427 358.749 155.56 360.822 155.231 363.01C154.902 365.199 155.121 367.435 155.868 369.518C156.616 371.601 157.869 373.466 159.515 374.946C161.161 376.426 163.148 377.474 165.299 377.997C164.087 378.608 163.033 379.49 162.218 380.575C161.51 381.517 160.994 382.59 160.701 383.732C160.407 384.874 160.341 386.063 160.507 387.23C160.673 388.397 161.067 389.521 161.667 390.536C162.267 391.551 163.061 392.438 164.004 393.146C164.947 393.854 166.02 394.37 167.162 394.663C168.304 394.957 169.493 395.023 170.66 394.857C171.828 394.691 172.951 394.297 173.966 393.697C174.982 393.097 175.869 392.303 176.577 391.361L176.715 391.172C177.263 391.775 177.865 392.327 178.513 392.819C180.829 394.554 183.643 395.493 186.537 395.496C189.43 395.499 192.247 394.566 194.566 392.835C196.885 391.105 198.582 388.671 199.403 385.897C200.224 383.123 200.125 380.158 199.12 377.444C200.598 376.616 201.883 375.485 202.892 374.125C204.326 372.228 205.178 369.955 205.345 367.583C205.511 365.21 204.986 362.84 203.831 360.761C202.677 358.682 200.944 356.982 198.842 355.869C196.74 354.755 194.361 354.276 191.992 354.489C191.52 352.165 190.386 350.028 188.727 348.334C187.069 346.64 184.955 345.461 182.642 344.941C180.329 344.42 177.914 344.579 175.689 345.399C173.464 346.218 171.524 347.664 170.102 349.561C169.614 350.217 169.193 350.921 168.844 351.66C166.705 351.592 164.58 352.04 162.65 352.965C160.72 353.891 159.041 355.267 157.755 356.978Z" fill="white"/>
<path d="M109.273 250.611C108.115 250.487 106.943 250.593 105.826 250.922C104.708 251.252 103.667 251.798 102.761 252.53C101.854 253.262 101.101 254.166 100.545 255.189C99.9881 256.212 99.6387 257.335 99.5164 258.493C99.396 259.695 99.5157 260.909 99.8684 262.064C99.1041 261.593 98.2455 261.297 97.3538 261.196C95.7815 261.03 94.2074 261.494 92.9778 262.488C91.7481 263.482 90.9637 264.923 90.7969 266.495C90.6302 268.067 91.0949 269.641 92.0887 270.871C93.0826 272.1 94.5242 272.884 96.0965 273.051H96.2474C96.0896 273.567 95.9843 274.098 95.933 274.635C95.7283 276.547 96.1491 278.473 97.1322 280.126C98.1154 281.778 99.6079 283.067 101.386 283.799C103.164 284.532 105.131 284.668 106.993 284.187C108.855 283.707 110.511 282.636 111.712 281.135C112.688 281.697 113.772 282.044 114.893 282.153C116.461 282.322 118.044 282.033 119.451 281.321C120.858 280.608 122.028 279.503 122.818 278.138C123.609 276.774 123.987 275.21 123.906 273.635C123.825 272.06 123.288 270.543 122.362 269.267C123.523 268.205 124.353 266.831 124.752 265.308C125.151 263.786 125.101 262.181 124.61 260.686C124.119 259.192 123.206 257.87 121.982 256.881C120.758 255.892 119.275 255.278 117.71 255.112C117.17 255.062 116.627 255.062 116.088 255.112C115.4 253.867 114.421 252.807 113.234 252.023C112.047 251.239 110.688 250.755 109.273 250.611Z" fill="#E3B005"/>
<path opacity="0.8" d="M109.273 250.611C108.115 250.487 106.943 250.593 105.826 250.922C104.708 251.252 103.667 251.798 102.761 252.53C101.854 253.262 101.101 254.166 100.545 255.189C99.9881 256.212 99.6387 257.335 99.5164 258.493C99.396 259.695 99.5157 260.909 99.8684 262.064C99.1041 261.593 98.2455 261.297 97.3538 261.196C95.7815 261.03 94.2074 261.494 92.9778 262.488C91.7481 263.482 90.9637 264.923 90.7969 266.495C90.6302 268.067 91.0949 269.641 92.0887 270.871C93.0826 272.1 94.5242 272.884 96.0965 273.051H96.2474C96.0896 273.567 95.9843 274.098 95.933 274.635C95.7283 276.547 96.1491 278.473 97.1322 280.126C98.1154 281.778 99.6079 283.067 101.386 283.799C103.164 284.532 105.131 284.668 106.993 284.187C108.855 283.707 110.511 282.636 111.712 281.135C112.688 281.697 113.772 282.044 114.893 282.153C116.461 282.322 118.044 282.033 119.451 281.321C120.858 280.608 122.028 279.503 122.818 278.138C123.609 276.774 123.987 275.21 123.906 273.635C123.825 272.06 123.288 270.543 122.362 269.267C123.523 268.205 124.353 266.831 124.752 265.308C125.151 263.786 125.101 262.181 124.61 260.686C124.119 259.192 123.206 257.87 121.982 256.881C120.758 255.892 119.275 255.278 117.71 255.112C117.17 255.062 116.627 255.062 116.088 255.112C115.4 253.867 114.421 252.807 113.234 252.023C112.047 251.239 110.688 250.755 109.273 250.611Z" fill="white"/>
<path d="M175.278 412.519L176.511 413.751L177.755 412.519L178.987 413.751L180.22 412.519L181.452 413.751L182.697 412.519L183.929 413.751L185.161 412.519L186.406 413.751L187.638 412.519L188.87 413.751L190.102 412.519L191.347 413.751L192.579 412.519L193.811 413.751L195.043 412.519L196.288 413.751L197.52 412.519L198.752 413.751L199.997 412.519L201.229 413.751L202.461 412.519L203.706 413.751L204.938 412.519L206.171 413.751L207.403 412.519L208.647 413.751L209.88 412.519L211.112 413.751L212.356 412.519L213.589 413.751L214.821 412.519L216.053 413.751L217.298 412.519L218.53 413.751L219.762 412.519L221.007 413.751L222.239 412.519L223.471 413.751L224.716 412.519L225.948 413.751L227.18 412.519L228.412 413.751L229.657 412.519L230.889 413.751L232.121 412.519L233.354 413.751L234.598 412.519L234.661 412.581L238.081 405.944L173.078 411.111L174.361 413.436L175.278 412.519Z" fill="#263238"/>
<path opacity="0.2" d="M175.278 412.519L176.511 413.751L177.755 412.519L178.987 413.751L180.22 412.519L181.452 413.751L182.697 412.519L183.929 413.751L185.161 412.519L186.406 413.751L187.638 412.519L188.87 413.751L190.102 412.519L191.347 413.751L192.579 412.519L193.811 413.751L195.043 412.519L196.288 413.751L197.52 412.519L198.752 413.751L199.997 412.519L201.229 413.751L202.461 412.519L203.706 413.751L204.938 412.519L206.171 413.751L207.403 412.519L208.647 413.751L209.88 412.519L211.112 413.751L212.356 412.519L213.589 413.751L214.821 412.519L216.053 413.751L217.298 412.519L218.53 413.751L219.762 412.519L221.007 413.751L222.239 412.519L223.471 413.751L224.716 412.519L225.948 413.751L227.18 412.519L228.412 413.751L229.657 412.519L230.889 413.751L232.121 412.519L233.354 413.751L234.598 412.519L234.661 412.581L238.081 405.944L173.078 411.111L174.361 413.436L175.278 412.519Z" fill="white"/>
<path d="M226.817 228.385C234.712 228.385 241.113 221.985 241.113 214.091C241.113 206.197 234.712 199.797 226.817 199.797C218.922 199.797 212.521 206.197 212.521 214.091C212.521 221.985 218.922 228.385 226.817 228.385Z" fill="#263238"/>
<path opacity="0.2" d="M226.817 228.385C234.712 228.385 241.113 221.985 241.113 214.091C241.113 206.197 234.712 199.797 226.817 199.797C218.922 199.797 212.521 206.197 212.521 214.091C212.521 221.985 218.922 228.385 226.817 228.385Z" fill="white"/>
<path opacity="0.2" d="M227.143 222.061C231.546 222.061 235.115 218.493 235.115 214.091C235.115 209.689 231.546 206.121 227.143 206.121C222.741 206.121 219.172 209.689 219.172 214.091C219.172 218.493 222.741 222.061 227.143 222.061Z" fill="white"/>
<path d="M224.453 208.836L230.677 218.868L229.847 219.359L223.623 209.327L224.453 208.836Z" fill="#263238"/>
<path d="M275.13 226.859C280.713 221.277 280.713 212.226 275.13 206.644C269.547 201.062 260.496 201.062 254.913 206.644C249.33 212.226 249.33 221.277 254.913 226.859C260.496 232.441 269.547 232.441 275.13 226.859Z" fill="#263238"/>
<path opacity="0.2" d="M275.13 226.859C280.713 221.277 280.713 212.226 275.13 206.644C269.547 201.062 260.496 201.062 254.913 206.644C249.33 212.226 249.33 221.277 254.913 226.859C260.496 232.441 269.547 232.441 275.13 226.859Z" fill="white"/>
<path opacity="0.2" d="M265.366 224.714C269.768 224.714 273.337 221.146 273.337 216.744C273.337 212.342 269.768 208.773 265.366 208.773C260.963 208.773 257.395 212.342 257.395 216.744C257.395 221.146 260.963 224.714 265.366 224.714Z" fill="white"/>
<path d="M262.672 211.489L268.883 221.521L268.053 222.011L261.842 211.979L262.672 211.489Z" fill="#263238"/>
<path d="M277.121 310.753C277.121 312.2 276.692 313.615 275.888 314.818C275.084 316.021 273.941 316.959 272.604 317.513C271.267 318.066 269.796 318.211 268.376 317.929C266.957 317.647 265.653 316.95 264.63 315.926C263.606 314.903 262.909 313.6 262.627 312.18C262.345 310.761 262.49 309.29 263.043 307.953C263.597 306.616 264.535 305.473 265.738 304.669C266.942 303.865 268.357 303.436 269.804 303.436C270.765 303.435 271.718 303.623 272.606 303.99C273.495 304.357 274.302 304.896 274.982 305.576C275.662 306.255 276.201 307.063 276.568 307.951C276.935 308.839 277.123 309.792 277.121 310.753Z" fill="#263238"/>
<path opacity="0.4" d="M277.121 310.753C277.121 312.2 276.692 313.615 275.888 314.818C275.084 316.021 273.941 316.959 272.604 317.513C271.267 318.066 269.796 318.211 268.376 317.929C266.957 317.647 265.653 316.95 264.63 315.926C263.606 314.903 262.909 313.6 262.627 312.18C262.345 310.761 262.49 309.29 263.043 307.953C263.597 306.616 264.535 305.473 265.738 304.669C266.942 303.865 268.357 303.436 269.804 303.436C270.765 303.435 271.718 303.623 272.606 303.99C273.495 304.357 274.302 304.896 274.982 305.576C275.662 306.255 276.201 307.063 276.568 307.951C276.935 308.839 277.123 309.792 277.121 310.753Z" fill="white"/>
<path opacity="0.2" d="M269.978 314.826C272.228 314.826 274.052 313.002 274.052 310.753C274.052 308.503 272.228 306.68 269.978 306.68C267.728 306.68 265.904 308.503 265.904 310.753C265.904 313.002 267.728 314.826 269.978 314.826Z" fill="white"/>
<path d="M207.301 310.753C207.301 312.2 206.872 313.615 206.068 314.818C205.264 316.021 204.121 316.959 202.784 317.512C201.447 318.066 199.975 318.211 198.556 317.929C197.137 317.647 195.833 316.95 194.809 315.926C193.786 314.903 193.089 313.6 192.807 312.18C192.524 310.761 192.669 309.29 193.223 307.953C193.777 306.616 194.715 305.473 195.918 304.669C197.122 303.865 198.536 303.436 199.984 303.436C201.924 303.436 203.786 304.207 205.158 305.579C206.53 306.951 207.301 308.812 207.301 310.753Z" fill="#263238"/>
<path opacity="0.4" d="M207.301 310.753C207.301 312.2 206.872 313.615 206.068 314.818C205.264 316.021 204.121 316.959 202.784 317.512C201.447 318.066 199.975 318.211 198.556 317.929C197.137 317.647 195.833 316.95 194.809 315.926C193.786 314.903 193.089 313.6 192.807 312.18C192.524 310.761 192.669 309.29 193.223 307.953C193.777 306.616 194.715 305.473 195.918 304.669C197.122 303.865 198.536 303.436 199.984 303.436C201.924 303.436 203.786 304.207 205.158 305.579C206.53 306.951 207.301 308.812 207.301 310.753Z" fill="white"/>
<path opacity="0.2" d="M200.148 314.826C202.398 314.826 204.222 313.002 204.222 310.753C204.222 308.503 202.398 306.68 200.148 306.68C197.898 306.68 196.074 308.503 196.074 310.753C196.074 313.002 197.898 314.826 200.148 314.826Z" fill="white"/>
<path d="M226.403 182.801L221.764 196.064L236.6 205.266C236.6 205.266 242.635 218.692 244.345 218.692H253.511L261.47 203.783C261.47 203.783 271.742 198.063 271.83 197.811C271.918 197.56 267.316 181.657 267.316 181.657L226.403 182.801Z" fill="#263238"/>
<path opacity="0.2" d="M226.403 182.801L221.764 196.064L236.6 205.266C236.6 205.266 242.635 218.692 244.345 218.692H253.511L261.47 203.783C261.47 203.783 271.742 198.063 271.83 197.811C271.918 197.56 267.316 181.657 267.316 181.657L226.403 182.801Z" fill="white"/>
<path d="M221.738 162.724V176.339L239.341 182.801L246.143 174.189H254.428L257.421 182.801L273.502 177.496C273.502 177.496 276.318 162.699 275.815 162.724C275.312 162.749 250.292 150.48 250.292 150.48L221.738 162.724Z" fill="#263238"/>
<path d="M224.554 174.026L222.895 186.283L242.056 192.921L246.268 186.786H252.567L254.566 192.921L270.811 187.113L271.804 171.537L244.319 166.647L224.554 174.026Z" fill="#263238"/>
<path opacity="0.2" d="M221.738 162.724V176.339L239.341 182.801L246.143 174.189H254.428L257.421 182.801L273.502 177.496C273.502 177.496 276.318 162.699 275.815 162.724C275.312 162.749 250.292 150.48 250.292 150.48L221.738 162.724Z" fill="white"/>
<path d="M216.242 154.628L219.637 167.967L237.717 171.6L246.367 160.7H254.389L259.418 170.757L276.304 168.432C276.304 168.432 281.886 147.06 280.893 146.08C279.9 145.099 247.775 131.371 247.775 131.371L216.242 154.628Z" fill="#263238"/>
<path d="M193.208 134.074C193.208 133.571 198.237 128.631 198.237 128.631L202.713 138.21L286.953 135.897C286.953 135.897 301.047 130.152 299.891 128.631C298.734 127.109 292.485 105.059 291.756 105.675C291.027 106.291 215.99 95.9448 215.99 95.9448L195.873 100.081L188.682 123.2L193.208 134.074Z" fill="#263238"/>
<path d="M391.006 69.042C391.006 69.042 380.57 72.122 380.57 72.9265C380.57 73.7311 380.067 77.9551 380.067 77.9551C379.351 76.9268 378.377 76.1052 377.242 75.5733C376.108 75.0414 374.853 74.818 373.605 74.9254C369.129 75.1768 367.381 77.4397 367.381 77.4397L368.374 81.1357H371.945L367.129 86.114L366.891 90.9037C366.891 90.9037 359.925 86.818 357.938 86.114C355.952 85.41 347.742 87.3711 346.736 88.138C345.73 88.9048 341.078 92.7391 341.468 94.2226C341.489 94.3031 341.526 94.3784 341.578 94.4434C341.63 94.5084 341.695 94.5616 341.77 94.5997C343.505 95.5928 351.463 94.0968 352.96 94.5997C352.96 94.5997 346.987 100.571 347.49 101.313C347.993 102.055 350.005 102.055 347.981 102.055H341.77C341.77 102.055 340.022 102.055 339.029 106.291C338.035 110.528 339.28 110.515 338.035 111.76C336.791 113.004 334.062 116.487 334.062 116.487C334.062 116.487 280.589 106.04 273.623 100.571C266.658 95.1026 258.184 79.3128 258.184 79.3128C258.184 79.3128 259.504 78.7094 261.553 77.8294C268.003 75.0386 281.607 69.4065 283.305 70.7265C285.543 72.474 298.48 74.7997 307.935 76.4969C317.39 78.194 340.764 72.5746 345.981 70.5254C351.199 68.4763 371.932 66.5025 371.932 66.5025L391.006 69.042Z" fill="#E3B005"/>
<path opacity="0.2" d="M347.981 102.067H341.769C341.769 102.067 340.022 102.067 339.029 106.304C338.035 110.54 339.28 110.528 338.035 111.772C336.791 113.017 334.062 116.499 334.062 116.499C334.062 116.499 280.589 106.052 273.623 100.584C266.658 95.1151 258.184 79.3254 258.184 79.3254C258.184 79.3254 259.504 78.722 261.553 77.842C261.553 77.842 284.549 77.5151 289.214 79.602C293.879 81.6889 312.348 92.1734 316.573 93.1163C318.685 93.6066 330.303 93.9837 341.392 94.2351C341.413 94.3157 341.451 94.3909 341.503 94.4559C341.555 94.5209 341.62 94.5742 341.694 94.6123C343.429 95.6054 351.388 94.1094 352.884 94.6123C352.884 94.6123 346.912 100.584 347.415 101.325C347.918 102.067 349.98 102.067 347.981 102.067Z" fill="black"/>
<path d="M320.511 245.746L317.82 259.348L326.747 269.632L329.186 268.136L326.798 262.906L329.979 249.191L320.511 245.746Z" fill="#E3B005"/>
<path d="M352.207 240.328L359.926 254.42L353.212 267.18H350.471L351.716 254.496L343.016 248.788L352.207 240.328Z" fill="#E3B005"/>
<path d="M320.623 153.296L325.099 164.032L315.154 167.967L310.678 157.532L320.623 153.296Z" fill="#263238"/>
<path d="M316.399 123.2L325.099 148.343L322.861 158.035L311.671 162.511L303.713 160.386L292.736 135.909L295.251 121.477C295.251 121.477 309.383 118.712 316.399 123.2Z" fill="#E3B005"/>
<path d="M292.737 90.9163C299.187 92.325 305.518 94.2332 311.672 96.6237C319.141 99.8294 319.38 129.925 319.38 129.925L302.23 135.897L290.788 124.457L278.354 103.815L292.737 90.9163Z" fill="#E3B005"/>
<path opacity="0.3" d="M278.354 103.815L290.788 124.457L302.23 135.897L319.442 129.925C319.442 129.925 319.442 129.02 319.442 127.499C319.203 120.283 317.959 99.2763 311.785 96.6237C305.631 94.2332 299.3 92.325 292.85 90.9163L286.237 96.8374L278.354 103.815Z" fill="white"/>
<path opacity="0.2" d="M278.354 103.815L290.788 124.457L302.23 135.897L319.442 129.925C319.442 129.925 319.442 129.02 319.442 127.499L302.594 133.068C299.942 131.258 292.863 121.465 292.863 121.465C295.654 118.121 297.615 115.506 295.465 109.535C293.315 103.563 286.664 102.432 286.664 102.432C286.664 101.175 286.413 98.6603 286.224 96.8374L278.354 103.815Z" fill="black"/>
<path d="M333.271 164.057C333.271 164.057 323.816 161.115 317.856 164.057C314.106 166.028 310.993 169.023 308.879 172.693L319.44 247.028C319.44 247.028 324.47 255.325 336.59 254.408C348.71 253.49 354.192 239.573 354.192 239.573C354.192 239.573 338.3 171.688 333.271 164.057Z" fill="#E3B005"/>
<path opacity="0.3" d="M333.271 164.057C333.271 164.057 323.816 161.115 317.856 164.057C314.106 166.028 310.993 169.023 308.879 172.693L319.44 247.028C319.44 247.028 324.47 255.325 336.59 254.408C348.71 253.49 354.192 239.573 354.192 239.573C354.192 239.573 338.3 171.688 333.271 164.057Z" fill="white"/>
<path d="M341.018 238.09L329.086 240.328L333.31 258.481L333.059 268.928H337.296L343.017 257.236L341.018 238.09Z" fill="#E3B005"/>
<path d="M202.562 116.499L200.01 141.567L213.325 160.637H228.827L240.86 144.973H258.185L267.653 160.637H284.991L295.553 138.562L284.488 96.6237L205.429 99.5277L202.562 116.499Z" fill="#E3B005"/>
<path opacity="0.3" d="M202.562 116.499L200.01 141.567L213.325 160.637H228.827L240.86 144.973H258.185L267.653 160.637H284.991L295.553 138.562L284.488 96.6237L205.429 99.5277L202.562 116.499Z" fill="white"/>
<path d="M168.05 245.746L170.74 259.348L161.813 269.632L159.374 268.136L161.763 262.906L158.582 249.191L168.05 245.746Z" fill="#E3B005"/>
<path d="M136.34 240.328L128.633 254.42L135.347 267.18H138.088L136.843 254.496L145.544 248.788L136.34 240.328Z" fill="#E3B005"/>
<path d="M167.923 153.296L163.447 164.032L173.405 167.967L177.881 157.532L167.923 153.296Z" fill="#263238"/>
<path d="M172.16 123.2L163.447 148.343L165.685 158.035L176.888 162.511L184.847 160.386L195.823 135.909L193.308 121.477C193.308 121.477 179.126 118.712 172.16 123.2Z" fill="#E3B005"/>
<path d="M195.823 90.9163C189.373 92.325 183.042 94.2332 176.888 96.6237C169.419 99.8294 169.168 129.925 169.168 129.925L186.33 135.897L197.772 124.457L210.207 103.815L195.823 90.9163Z" fill="#E3B005"/>
<path opacity="0.3" d="M210.207 103.815L197.772 124.457L186.33 135.897L169.168 129.925C169.168 129.925 169.168 129.02 169.231 127.499C169.47 120.283 170.714 99.2763 176.888 96.6237C183.042 94.2332 189.373 92.325 195.823 90.9163L202.436 96.8374L210.207 103.815Z" fill="white"/>
<path opacity="0.2" d="M210.207 103.815L197.772 124.457L186.33 135.897L169.168 129.925C169.168 129.925 169.168 129.02 169.231 127.499L186.079 133.068C188.732 131.258 195.81 121.465 195.81 121.465C193.019 118.121 191.058 115.506 193.208 109.535C195.358 103.563 202.009 102.432 202.009 102.432C202.009 101.175 202.26 98.6603 202.449 96.8374L210.207 103.815Z" fill="black"/>
<path d="M155.252 164.057C155.252 164.057 164.694 161.115 170.667 164.057C174.417 166.028 177.53 169.023 179.644 172.693L169.17 247.028C169.17 247.028 164.204 255.325 152.021 254.408C139.837 253.49 134.355 239.573 134.355 239.573C134.355 239.573 150.26 171.688 155.252 164.057Z" fill="#E3B005"/>
<path opacity="0.3" d="M155.252 164.057C155.252 164.057 164.694 161.115 170.667 164.057C174.417 166.028 177.53 169.023 179.644 172.693L169.17 247.028C169.17 247.028 164.204 255.325 152.021 254.408C139.837 253.49 134.355 239.573 134.355 239.573C134.355 239.573 150.26 171.688 155.252 164.057Z" fill="white"/>
<path d="M147.542 238.09L159.474 240.328L155.249 258.481L155.488 268.928H151.264L145.543 257.236L147.542 238.09Z" fill="#E3B005"/>
<path d="M252.341 61.0843L255.975 76.4465H258.691L262.513 81.4751L248.531 94.6123L226.051 83.4237L230.225 63.9505L252.341 61.0843Z" fill="#263238"/>
<path d="M195.822 90.9163C195.822 90.9163 201.002 84.4168 202.75 84.1654C204.819 84.0406 206.893 84.0406 208.961 84.1654L218.026 82.682V81.186L219.95 79.5391C219.95 79.5391 243.034 89.9357 247.259 89.5963C251.483 89.2569 265.666 77.7791 265.666 77.7791C267.16 77.9833 268.597 78.4879 269.89 79.2626C270.771 79.9114 271.528 80.7116 272.128 81.626C272.128 81.626 280.087 84.0397 281.583 84.3163C283.08 84.5929 288.285 89.106 288.285 89.106C288.285 89.106 274.366 117.241 270.406 119.73C266.445 122.219 241.664 127.688 238.382 126.946C235.101 126.204 202.323 103.89 195.822 90.9163Z" fill="#E3B005"/>
<path d="M255.043 50.8008C256.643 53.8437 257.706 57.1396 258.186 60.5437C256.486 64.51 253.663 67.8924 250.064 70.274C250.064 70.274 245.751 76.8237 243.35 79.074C240.949 81.3243 234.549 68.6397 234.549 68.6397L244.18 48.5254L255.043 50.8008Z" fill="#263238"/>
<path opacity="0.2" d="M255.043 50.8008C256.643 53.8437 257.706 57.1396 258.186 60.5437C256.486 64.51 253.663 67.8924 250.064 70.274C250.064 70.274 245.751 76.8237 243.35 79.074C240.949 81.3243 234.549 68.6397 234.549 68.6397L244.18 48.5254L255.043 50.8008Z" fill="white"/>
<path d="M253.459 43.5848C253.459 43.5848 257.533 47.8968 258.689 52.5357C257.533 54.4522 255.944 56.0711 254.05 57.2626C253.21 56.9653 252.308 56.8854 251.428 57.0305C250.549 57.1756 249.721 57.5409 249.021 58.0923C246.204 60.0031 246.129 64.9688 249.021 68.3757C249.021 68.3757 246.204 75.0008 242.068 77.49C242.068 77.49 237.252 67.4328 238.66 58.1803C240.069 48.9277 253.459 43.5848 253.459 43.5848Z" fill="#263238"/>
<path opacity="0.3" d="M253.459 43.5848C253.459 43.5848 257.533 47.8968 258.689 52.5357C257.533 54.4522 255.944 56.0711 254.05 57.2626C253.21 56.9653 252.308 56.8854 251.428 57.0305C250.549 57.1756 249.721 57.5409 249.021 58.0923C246.204 60.0031 246.129 64.9688 249.021 68.3757C249.021 68.3757 246.204 75.0008 242.068 77.49C242.068 77.49 237.252 67.4328 238.66 58.1803C240.069 48.9277 253.459 43.5848 253.459 43.5848Z" fill="white"/>
<path d="M256.728 63.146C256.892 66.1003 255.069 68.6146 252.642 68.7528C250.216 68.8911 248.103 66.6031 247.94 63.6489C247.776 60.6946 249.6 58.1803 252.026 58.042C254.453 57.9037 256.578 60.1917 256.728 63.146Z" fill="#263238"/>
<path opacity="0.4" d="M256.728 63.146C256.892 66.1003 255.069 68.6146 252.642 68.7528C250.216 68.8911 248.103 66.6031 247.94 63.6489C247.776 60.6946 249.6 58.1803 252.026 58.042C254.453 57.9037 256.578 60.1917 256.728 63.146Z" fill="white"/>
<path d="M259.392 41.6866C259.392 41.6866 252.426 47.8591 250.691 53.6545C250.691 53.6545 245.209 56.0306 244.719 57.25C244.228 58.4694 242.355 68.9163 242.845 71.4054C243.478 73.4269 244.485 75.3117 245.813 76.962L241.978 84.0774C235.698 86.2553 228.946 86.6898 222.439 85.3346L222.326 85.0957C221.22 82.7197 212.33 63.1963 213.374 49.242C213.55 47.042 221.635 39.5871 232.737 35.2374C240.331 33.5953 248.189 33.5953 255.783 35.2374C256.701 35.4386 257.606 37.0854 258.298 38.6694C258.715 39.6554 259.08 40.6625 259.392 41.6866Z" fill="#E3B005"/>
<path opacity="0.3" d="M259.392 41.6866C259.392 41.6866 252.426 47.8591 250.691 53.6545C250.691 53.6545 245.209 56.0306 244.719 57.25C244.228 58.4694 242.355 68.9163 242.845 71.4054C243.478 73.4269 244.485 75.3117 245.813 76.962L241.978 84.0774C235.698 86.2553 228.946 86.6898 222.439 85.3346L222.326 85.0957C221.22 82.7197 212.33 63.1963 213.374 49.242C213.55 47.042 221.635 39.5871 232.737 35.2374C240.331 33.5953 248.189 33.5953 255.783 35.2374C256.701 35.4386 257.606 37.0854 258.298 38.6694C258.715 39.6554 259.08 40.6625 259.392 41.6866Z" fill="white"/>
<path opacity="0.3" d="M255.973 63.234C255.896 63.7835 255.664 64.2997 255.305 64.7227C254.946 65.1457 254.474 65.458 253.945 65.6232C253.415 65.7884 252.849 65.7998 252.313 65.656C251.777 65.5123 251.293 65.2192 250.917 64.811C250.541 64.4028 250.289 63.8963 250.19 63.3504C250.091 62.8044 250.149 62.2416 250.357 61.7273C250.565 61.213 250.915 60.7685 251.366 60.4455C251.818 60.1224 252.351 59.9341 252.905 59.9025C253.75 59.9481 254.544 60.3219 255.117 60.9443C255.69 61.5667 255.997 62.3883 255.973 63.234Z" fill="black"/>
<path opacity="0.2" d="M259.394 41.6866C259.394 41.6866 252.428 47.8591 250.693 53.6545C250.693 53.6545 245.211 56.0305 244.721 57.25C244.23 58.4694 242.357 68.9163 242.847 71.4054C243.48 73.4269 244.487 75.3117 245.815 76.962L241.98 84.0774C235.701 86.2553 228.948 86.6898 222.441 85.3346L222.328 85.0957C228.703 85.6991 241.578 86.3528 239.654 81.6511C237.139 75.4283 234.625 50.9768 235.643 49.242C236.661 47.5071 253.874 35.8911 255.458 36.0546C256.074 36.0546 257.168 37.3117 258.287 38.6694C258.708 39.6552 259.078 40.6623 259.394 41.6866Z" fill="black"/>
<path opacity="0.2" d="M224.477 69.042C223.263 68.9513 222.12 68.4371 221.246 67.5892C220.373 66.7414 219.825 65.6136 219.699 64.4031C219.459 62.9466 219.807 61.4545 220.667 60.2545C220.999 59.8036 221.418 59.4242 221.9 59.1391C222.382 58.854 222.916 58.6689 223.471 58.5951C223.638 58.5826 223.807 58.5826 223.974 58.5951C225.188 58.6805 226.332 59.1913 227.206 60.0376C228.08 60.8839 228.627 62.0113 228.752 63.2214C228.877 63.9437 228.857 64.6837 228.693 65.3981C228.529 66.1126 228.224 66.7872 227.796 67.3826C227.464 67.8335 227.045 68.2129 226.563 68.498C226.082 68.7832 225.547 68.9682 224.992 69.042C224.821 69.0544 224.648 69.0544 224.477 69.042Z" fill="black"/>
<path d="M223.986 68.6397C222.89 68.5598 221.856 68.0964 221.068 67.3309C220.279 66.5654 219.785 65.5466 219.673 64.4534C219.561 63.7986 219.581 63.1282 219.73 62.4809C219.878 61.8336 220.154 61.2222 220.541 60.682C220.838 60.2754 221.213 59.9325 221.645 59.6734C222.077 59.4143 222.557 59.2443 223.055 59.1734H223.521C224.619 59.2505 225.655 59.7126 226.446 60.4784C227.237 61.2442 227.733 62.2645 227.846 63.3597C227.956 64.0153 227.934 64.6862 227.783 65.3335C227.632 65.9809 227.354 66.5919 226.966 67.1311C226.667 67.5354 226.291 67.876 225.859 68.1329C225.427 68.3898 224.949 68.5578 224.451 68.6271C224.296 68.6437 224.141 68.648 223.986 68.6397Z" fill="#E3B005"/>
<path opacity="0.6" d="M223.986 68.6397C222.89 68.5598 221.856 68.0964 221.068 67.3309C220.279 66.5654 219.785 65.5466 219.673 64.4534C219.561 63.7986 219.581 63.1282 219.73 62.4809C219.878 61.8336 220.154 61.2222 220.541 60.682C220.838 60.2754 221.213 59.9325 221.645 59.6734C222.077 59.4143 222.557 59.2443 223.055 59.1734H223.521C224.619 59.2505 225.655 59.7126 226.446 60.4784C227.237 61.2442 227.733 62.2645 227.846 63.3597C227.956 64.0153 227.934 64.6862 227.783 65.3335C227.632 65.9809 227.354 66.5919 226.966 67.1311C226.667 67.5354 226.291 67.876 225.859 68.1329C225.427 68.3898 224.949 68.5578 224.451 68.6271C224.296 68.6437 224.141 68.648 223.986 68.6397Z" fill="white"/>
<path opacity="0.5" d="M226.616 63.4854C226.711 63.8858 226.726 64.301 226.661 64.7073C226.596 65.1137 226.451 65.5031 226.235 65.8534C226.019 66.2037 225.736 66.508 225.402 66.7488C225.068 66.9896 224.69 67.1623 224.29 67.2568C223.436 67.2686 222.61 66.9536 221.981 66.3763C221.352 65.799 220.968 65.0031 220.907 64.1517C220.812 63.7513 220.797 63.3361 220.862 62.9298C220.927 62.5235 221.072 62.134 221.288 61.7837C221.504 61.4334 221.787 61.1291 222.121 60.8883C222.455 60.6475 222.833 60.4749 223.233 60.3803C224.088 60.3654 224.915 60.6794 225.545 61.2573C226.174 61.8352 226.558 62.6329 226.616 63.4854Z" fill="black"/>
<path d="M226.616 63.4854C226.701 63.8223 226.717 64.1725 226.665 64.5158C226.614 64.8592 226.494 65.1888 226.314 65.4858C226.134 65.7827 225.897 66.041 225.616 66.2457C225.336 66.4505 225.018 66.5976 224.68 66.6785C223.967 66.69 223.276 66.4281 222.75 65.9465C222.224 65.4649 221.902 64.8002 221.851 64.0888C221.765 63.7519 221.747 63.4013 221.798 63.0573C221.849 62.7134 221.968 62.3831 222.148 62.0857C222.329 61.7884 222.567 61.53 222.848 61.3256C223.129 61.1213 223.449 60.9751 223.787 60.8957C224.5 60.8842 225.191 61.1462 225.717 61.6278C226.243 62.1094 226.565 62.7741 226.616 63.4854Z" fill="#E3B005"/>
<path opacity="0.2" d="M231.493 56.6466C230.913 56.5978 230.368 56.3493 229.951 55.9436C229.533 55.5378 229.27 54.9998 229.205 54.4214C229.145 54.0769 229.154 53.7238 229.232 53.3829C229.31 53.0419 229.454 52.7197 229.658 52.4351C229.817 52.2183 230.018 52.0355 230.249 51.8974C230.48 51.7592 230.736 51.6685 231.003 51.6306H231.254C231.834 51.6793 232.38 51.9278 232.797 52.3335C233.214 52.7393 233.478 53.2773 233.543 53.8557C233.604 54.201 233.595 54.5553 233.515 54.8968C233.435 55.2384 233.286 55.56 233.078 55.842C232.92 56.0608 232.72 56.2451 232.488 56.3835C232.257 56.5219 232 56.6114 231.732 56.6466H231.493Z" fill="black"/>
<path d="M231.255 56.458C230.729 56.4195 230.232 56.1969 229.853 55.8291C229.473 55.4614 229.236 54.972 229.181 54.4466C229.127 54.1316 229.137 53.8089 229.21 53.4978C229.284 53.1868 229.419 52.8937 229.608 52.6363C229.757 52.4362 229.945 52.2693 230.162 52.1459C230.378 52.0226 230.618 51.9455 230.866 51.9197H231.092C231.619 51.9582 232.115 52.1808 232.495 52.5485C232.874 52.9163 233.112 53.4057 233.167 53.9311C233.219 54.2433 233.21 54.5629 233.139 54.8714C233.067 55.18 232.936 55.4713 232.752 55.7288C232.602 55.9285 232.413 56.096 232.197 56.2212C231.981 56.3465 231.742 56.427 231.494 56.458H231.255Z" fill="#E3B005"/>
<path opacity="0.6" d="M231.255 56.458C230.729 56.4195 230.232 56.1969 229.853 55.8291C229.473 55.4614 229.236 54.972 229.181 54.4466C229.127 54.1316 229.137 53.8089 229.21 53.4978C229.284 53.1868 229.419 52.8937 229.608 52.6363C229.757 52.4362 229.945 52.2693 230.162 52.1459C230.378 52.0226 230.618 51.9455 230.866 51.9197H231.092C231.619 51.9582 232.115 52.1808 232.495 52.5485C232.874 52.9163 233.112 53.4057 233.167 53.9311C233.219 54.2433 233.21 54.5629 233.139 54.8714C233.067 55.18 232.936 55.4713 232.752 55.7288C232.602 55.9285 232.413 56.096 232.197 56.2212C231.981 56.3465 231.742 56.427 231.494 56.458H231.255Z" fill="white"/>
<path opacity="0.5" d="M232.513 54.0066C232.564 54.1998 232.575 54.4012 232.547 54.5989C232.518 54.7966 232.451 54.9866 232.347 55.1576C232.244 55.3287 232.108 55.4774 231.946 55.5949C231.785 55.7124 231.602 55.7965 231.407 55.842C230.998 55.8494 230.602 55.6997 230.3 55.4237C229.998 55.1477 229.814 54.7665 229.785 54.3586C229.735 54.1653 229.723 53.9639 229.752 53.7662C229.78 53.5685 229.848 53.3785 229.951 53.2075C230.054 53.0364 230.191 52.8877 230.352 52.7702C230.514 52.6527 230.697 52.5686 230.892 52.5231C231.3 52.5157 231.697 52.6654 231.998 52.9414C232.3 53.2174 232.485 53.5987 232.513 54.0066Z" fill="black"/>
<path d="M232.512 54.0066C232.553 54.1684 232.562 54.3368 232.537 54.502C232.512 54.6672 232.455 54.8258 232.369 54.9685C232.282 55.1113 232.168 55.2354 232.033 55.3336C231.897 55.4317 231.744 55.502 231.582 55.5403C231.238 55.5412 230.907 55.4121 230.655 55.1788C230.403 54.9455 230.249 54.6255 230.224 54.2831C230.183 54.1204 230.175 53.9512 230.2 53.7853C230.226 53.6195 230.284 53.4604 230.372 53.3175C230.46 53.1745 230.575 53.0506 230.712 52.9531C230.848 52.8555 231.003 52.7863 231.167 52.7494C231.51 52.7425 231.843 52.87 232.095 53.1048C232.346 53.3395 232.496 53.6631 232.512 54.0066Z" fill="#E3B005"/>
<path opacity="0.2" d="M216.582 57.2626C216.002 57.2138 215.457 56.9653 215.04 56.5596C214.623 56.1538 214.359 55.6158 214.294 55.0374C214.236 54.69 214.248 54.3347 214.328 53.9917C214.407 53.6487 214.554 53.3248 214.759 53.0386C214.919 52.8236 215.121 52.6428 215.352 52.5067C215.583 52.3707 215.839 52.2823 216.105 52.2466H216.343C216.924 52.292 217.47 52.5375 217.89 52.941C218.31 53.3445 218.576 53.881 218.644 54.4591C218.702 54.8065 218.691 55.1619 218.611 55.5049C218.531 55.8479 218.384 56.1718 218.179 56.458C218.019 56.673 217.817 56.8538 217.586 56.9898C217.355 57.1258 217.1 57.2143 216.834 57.25L216.582 57.2626Z" fill="black"/>
<path d="M216.343 57.0614C215.815 57.0254 215.317 56.8036 214.937 56.4354C214.557 56.0671 214.32 55.5763 214.268 55.05C214.215 54.7378 214.225 54.4182 214.296 54.1097C214.367 53.8012 214.499 53.5098 214.683 53.2523C214.83 53.0511 215.018 52.8833 215.235 52.7599C215.452 52.6364 215.692 52.56 215.94 52.5357H216.154C216.681 52.5742 217.177 52.7968 217.557 53.1645C217.936 53.5323 218.174 54.0217 218.229 54.5471C218.282 54.8613 218.272 55.1829 218.201 55.4935C218.13 55.8041 217.998 56.0977 217.814 56.3574C217.664 56.5563 217.475 56.7225 217.259 56.8458C217.043 56.969 216.804 57.0467 216.556 57.074L216.343 57.0614Z" fill="#E3B005"/>
<path opacity="0.6" d="M216.343 57.0614C215.815 57.0254 215.317 56.8036 214.937 56.4354C214.557 56.0671 214.32 55.5763 214.268 55.05C214.215 54.7378 214.225 54.4182 214.296 54.1097C214.367 53.8012 214.499 53.5098 214.683 53.2523C214.83 53.0511 215.018 52.8833 215.235 52.7599C215.452 52.6364 215.692 52.56 215.94 52.5357H216.154C216.681 52.5742 217.177 52.7968 217.557 53.1645C217.936 53.5323 218.174 54.0217 218.229 54.5471C218.282 54.8613 218.272 55.1829 218.201 55.4935C218.13 55.8041 217.998 56.0977 217.814 56.3574C217.664 56.5563 217.475 56.7225 217.259 56.8458C217.043 56.969 216.804 57.0467 216.556 57.074L216.343 57.0614Z" fill="white"/>
<path opacity="0.5" d="M217.601 54.61C217.649 54.804 217.659 55.0058 217.629 55.2035C217.599 55.4013 217.53 55.5911 217.425 55.7619C217.321 55.9327 217.184 56.0811 217.022 56.1984C216.86 56.3158 216.676 56.3997 216.482 56.4454C216.073 56.4529 215.677 56.3032 215.375 56.0272C215.073 55.7512 214.889 55.3699 214.86 54.962C214.811 54.7679 214.802 54.5662 214.832 54.3684C214.862 54.1707 214.931 53.9809 215.035 53.8101C215.139 53.6393 215.276 53.4909 215.438 53.3735C215.6 53.2562 215.784 53.1722 215.979 53.1265C216.387 53.1221 216.781 53.2729 217.082 53.5483C217.384 53.8237 217.569 54.2032 217.601 54.61Z" fill="black"/>
<path d="M217.599 54.61C217.64 54.7718 217.648 54.9402 217.624 55.1054C217.599 55.2706 217.542 55.4292 217.455 55.572C217.369 55.7148 217.254 55.8389 217.119 55.937C216.984 56.0352 216.831 56.1054 216.668 56.1437C216.322 56.154 215.986 56.028 215.732 55.7928C215.478 55.5577 215.327 55.2323 215.31 54.8866C215.269 54.7247 215.261 54.5563 215.285 54.3911C215.31 54.226 215.367 54.0674 215.454 53.9246C215.54 53.7818 215.655 53.6577 215.79 53.5595C215.925 53.4614 216.078 53.3911 216.241 53.3528C216.584 53.3519 216.915 53.4811 217.167 53.7143C217.419 53.9476 217.573 54.2676 217.599 54.61Z" fill="#E3B005"/>
<path opacity="0.2" d="M231.959 61.9265C231.526 61.8965 231.117 61.7151 230.805 61.414C230.492 61.1128 230.295 60.7113 230.249 60.2797C230.208 60.0234 230.218 59.7616 230.279 59.5092C230.339 59.2568 230.449 59.0188 230.601 58.8088C230.718 58.6479 230.866 58.5124 231.037 58.4108C231.208 58.3092 231.398 58.2436 231.595 58.218H231.771C232.203 58.2459 232.612 58.427 232.923 58.7288C233.234 59.0307 233.427 59.4334 233.468 59.8648C233.514 60.1202 233.507 60.3822 233.449 60.635C233.39 60.8877 233.281 61.1261 233.129 61.3357C233.01 61.4951 232.862 61.6294 232.691 61.7309C232.521 61.8323 232.332 61.8988 232.135 61.9265H231.959Z" fill="black"/>
<path d="M231.781 61.7883C231.388 61.7608 231.018 61.5957 230.735 61.322C230.452 61.0484 230.275 60.6837 230.234 60.2923C230.194 60.0604 230.202 59.8229 230.256 59.5939C230.31 59.3649 230.409 59.1492 230.549 58.9597C230.765 58.6837 231.081 58.5033 231.429 58.4568H231.592C231.983 58.4818 232.351 58.6448 232.632 58.9166C232.913 59.1883 233.088 59.5512 233.126 59.9403C233.167 60.1721 233.16 60.4098 233.106 60.6389C233.052 60.868 232.952 61.0837 232.812 61.2728C232.707 61.4179 232.573 61.5404 232.42 61.6332C232.267 61.726 232.097 61.7873 231.919 61.8134L231.781 61.7883Z" fill="#E3B005"/>
<path opacity="0.6" d="M231.781 61.7883C231.388 61.7608 231.018 61.5957 230.735 61.322C230.452 61.0484 230.275 60.6837 230.234 60.2923C230.194 60.0604 230.202 59.8229 230.256 59.5939C230.31 59.3649 230.409 59.1492 230.549 58.9597C230.765 58.6837 231.081 58.5033 231.429 58.4568H231.592C231.983 58.4818 232.351 58.6448 232.632 58.9166C232.913 59.1883 233.088 59.5512 233.126 59.9403C233.167 60.1721 233.16 60.4098 233.106 60.6389C233.052 60.868 232.952 61.0837 232.812 61.2728C232.707 61.4179 232.573 61.5404 232.42 61.6332C232.267 61.726 232.097 61.7873 231.919 61.8134L231.781 61.7883Z" fill="white"/>
<path opacity="0.5" d="M232.686 59.9654C232.723 60.1091 232.731 60.2589 232.709 60.4057C232.688 60.5526 232.636 60.6936 232.559 60.8203C232.482 60.947 232.379 61.0568 232.259 61.1432C232.138 61.2296 232.001 61.2908 231.856 61.3231C231.701 61.3351 231.546 61.3162 231.399 61.2675C231.251 61.2188 231.115 61.1413 230.998 61.0395C230.881 60.9377 230.786 60.8137 230.717 60.6746C230.649 60.5355 230.608 60.3842 230.599 60.2294C230.561 60.0866 230.553 59.9376 230.574 59.7914C230.595 59.6452 230.645 59.5047 230.721 59.3782C230.797 59.2517 230.898 59.1416 231.017 59.0547C231.137 58.9677 231.272 58.9055 231.416 58.8717C231.572 58.858 231.728 58.8756 231.877 58.9234C232.026 58.9713 232.163 59.0485 232.282 59.1505C232.4 59.2524 232.497 59.3771 232.566 59.5171C232.636 59.657 232.676 59.8095 232.686 59.9654Z" fill="black"/>
<path d="M232.688 59.9654C232.718 60.0859 232.724 60.2112 232.705 60.334C232.687 60.4569 232.644 60.5748 232.58 60.6811C232.516 60.7874 232.431 60.88 232.331 60.9535C232.231 61.027 232.117 61.08 231.996 61.1094C231.743 61.1072 231.5 61.0107 231.314 60.8387C231.128 60.6667 231.012 60.4315 230.991 60.1791C230.961 60.0594 230.955 59.9349 230.974 59.813C230.992 59.691 231.035 59.5739 231.099 59.4686C231.164 59.3633 231.248 59.2719 231.348 59.1996C231.449 59.1273 231.562 59.0757 231.682 59.0477C231.935 59.0438 232.18 59.1366 232.367 59.3071C232.554 59.4777 232.669 59.7131 232.688 59.9654Z" fill="#E3B005"/>
<path opacity="0.2" d="M216.806 62.2911C216.374 62.2632 215.965 62.0821 215.654 61.7803C215.343 61.4785 215.15 61.0757 215.109 60.6443C215.062 60.3889 215.069 60.1268 215.127 59.8739C215.185 59.621 215.295 59.3827 215.448 59.1734C215.565 59.0125 215.713 58.877 215.884 58.7754C216.055 58.6738 216.244 58.6082 216.441 58.5826H216.63C217.062 58.613 217.469 58.7949 217.779 59.0962C218.09 59.3976 218.284 59.7989 218.327 60.2294C218.373 60.4848 218.366 60.7468 218.308 60.9995C218.25 61.2523 218.141 61.4907 217.988 61.7003C217.868 61.8611 217.718 61.9963 217.545 62.0978C217.372 62.1993 217.181 62.265 216.982 62.2911H216.806Z" fill="black"/>
<path d="M216.632 62.1528C216.24 62.1249 215.872 61.9594 215.591 61.6855C215.31 61.4117 215.135 61.0472 215.098 60.6568C215.058 60.425 215.065 60.1875 215.119 59.9585C215.173 59.7295 215.273 59.5138 215.412 59.3243C215.517 59.1793 215.651 59.0567 215.804 58.9639C215.957 58.8711 216.127 58.8098 216.305 58.7837H216.468C216.858 58.8087 217.227 58.9717 217.508 59.2434C217.789 59.5152 217.964 59.8781 218.002 60.2671C218.042 60.4982 218.036 60.7348 217.984 60.9634C217.932 61.1921 217.836 61.4083 217.7 61.5997C217.593 61.7451 217.457 61.8677 217.302 61.9605C217.146 62.0533 216.974 62.1144 216.795 62.1403L216.632 62.1528Z" fill="#E3B005"/>
<path opacity="0.6" d="M216.632 62.1528C216.24 62.1249 215.872 61.9594 215.591 61.6855C215.31 61.4117 215.135 61.0472 215.098 60.6568C215.058 60.425 215.065 60.1875 215.119 59.9585C215.173 59.7295 215.273 59.5138 215.412 59.3243C215.517 59.1793 215.651 59.0567 215.804 58.9639C215.957 58.8711 216.127 58.8098 216.305 58.7837H216.468C216.858 58.8087 217.227 58.9717 217.508 59.2434C217.789 59.5152 217.964 59.8781 218.002 60.2671C218.042 60.4982 218.036 60.7348 217.984 60.9634C217.932 61.1921 217.836 61.4083 217.7 61.5997C217.593 61.7451 217.457 61.8677 217.302 61.9605C217.146 62.0533 216.974 62.1144 216.795 62.1403L216.632 62.1528Z" fill="white"/>
<path opacity="0.5" d="M217.6 60.33C217.638 60.4728 217.646 60.6217 217.625 60.7679C217.604 60.9141 217.554 61.0546 217.478 61.1812C217.402 61.3077 217.301 61.4177 217.182 61.5047C217.062 61.5917 216.927 61.6539 216.783 61.6877C216.628 61.6997 216.473 61.6807 216.326 61.6321C216.178 61.5834 216.042 61.5059 215.925 61.4041C215.808 61.3023 215.713 61.1783 215.644 61.0392C215.576 60.9001 215.535 60.7488 215.526 60.594C215.488 60.4503 215.48 60.3005 215.502 60.1536C215.524 60.0068 215.575 59.8658 215.653 59.7391C215.73 59.6124 215.832 59.5026 215.953 59.4162C216.074 59.3298 216.211 59.2686 216.356 59.2363C216.509 59.226 216.663 59.2462 216.809 59.2957C216.955 59.3452 217.089 59.423 217.205 59.5246C217.321 59.6262 217.415 59.7497 217.483 59.8879C217.551 60.0261 217.591 60.1763 217.6 60.33Z" fill="black"/>
<path d="M217.6 60.33C217.632 60.4506 217.639 60.5763 217.621 60.6997C217.603 60.8231 217.561 60.9417 217.497 61.0485C217.432 61.1552 217.347 61.2479 217.246 61.321C217.145 61.3941 217.03 61.4461 216.908 61.474C216.656 61.4745 216.412 61.3785 216.227 61.2057C216.043 61.0328 215.931 60.7961 215.915 60.5437C215.885 60.4248 215.879 60.3012 215.897 60.1798C215.915 60.0585 215.956 59.942 216.019 59.8368C216.082 59.7317 216.166 59.64 216.264 59.5672C216.363 59.4943 216.475 59.4416 216.594 59.4123C216.848 59.4052 217.095 59.497 217.282 59.6681C217.47 59.8393 217.584 60.0766 217.6 60.33Z" fill="#E3B005"/>
<path opacity="0.3" d="M223.281 73.7311C223.198 73.7311 223.118 73.698 223.059 73.6391C223 73.5801 222.967 73.5002 222.967 73.4168C222.967 73.3335 223 73.2535 223.059 73.1946C223.118 73.1357 223.198 73.1025 223.281 73.1025L227.883 73.0397C227.966 73.0397 228.046 73.0728 228.105 73.1317C228.164 73.1907 228.197 73.2706 228.197 73.354C228.199 73.3947 228.192 73.4352 228.178 73.4733C228.164 73.5114 228.142 73.5461 228.113 73.5755C228.085 73.6049 228.051 73.6282 228.014 73.6442C227.976 73.6601 227.936 73.6683 227.895 73.6683L223.281 73.7311Z" fill="black"/>
<path opacity="0.3" d="M223.75 75.2774C223.667 75.2774 223.587 75.2443 223.528 75.1854C223.469 75.1264 223.436 75.0465 223.436 74.9631C223.436 74.8798 223.469 74.7998 223.528 74.7409C223.587 74.6819 223.667 74.6488 223.75 74.6488H228.352C228.435 74.6488 228.515 74.6819 228.574 74.7409C228.633 74.7998 228.666 74.8798 228.666 74.9631C228.668 75.0038 228.661 75.0444 228.647 75.0825C228.632 75.1205 228.61 75.1553 228.582 75.1847C228.554 75.214 228.52 75.2374 228.483 75.2533C228.445 75.2693 228.405 75.2775 228.364 75.2774H223.762H223.75Z" fill="black"/>
<path opacity="0.3" d="M224.213 76.8237C224.129 76.8237 224.049 76.7906 223.991 76.7316C223.932 76.6727 223.898 76.5928 223.898 76.5094C223.898 76.4261 223.932 76.3461 223.991 76.2872C224.049 76.2282 224.129 76.1951 224.213 76.1951L228.815 76.1323C228.897 76.1354 228.975 76.1695 229.033 76.2278C229.092 76.2861 229.126 76.3642 229.129 76.4465C229.129 76.5299 229.096 76.6098 229.037 76.6688C228.978 76.7277 228.898 76.7608 228.815 76.7608L224.213 76.8237Z" fill="black"/>
<path opacity="0.3" d="M224.68 78.37C224.597 78.3669 224.519 78.3328 224.461 78.2745C224.402 78.2162 224.368 78.1381 224.365 78.0557C224.365 77.9723 224.398 77.8924 224.457 77.8335C224.516 77.7745 224.596 77.7414 224.68 77.7414L229.281 77.6785C229.364 77.6817 229.442 77.7158 229.5 77.7741C229.558 77.8323 229.593 77.9105 229.596 77.9928C229.596 78.0762 229.563 78.1561 229.504 78.2151C229.445 78.274 229.365 78.3071 229.281 78.3071L224.68 78.37Z" fill="black"/>
<path opacity="0.3" d="M225.144 79.9163C225.062 79.9132 224.984 79.879 224.926 79.8208C224.867 79.7625 224.833 79.6844 224.83 79.602C224.83 79.5186 224.863 79.4387 224.922 79.3797C224.981 79.3208 225.061 79.2877 225.144 79.2877H229.746C229.83 79.2877 229.909 79.3208 229.968 79.3797C230.027 79.4387 230.06 79.5186 230.06 79.602C230.06 79.6853 230.027 79.7653 229.968 79.8242C229.909 79.8832 229.83 79.9163 229.746 79.9163H225.144Z" fill="black"/>
<path d="M209.107 122.471C214.021 120.435 216.355 114.802 214.319 109.889C212.284 104.975 206.65 102.642 201.736 104.677C196.822 106.712 194.488 112.345 196.524 117.259C198.559 122.172 204.193 124.506 209.107 122.471Z" fill="#E3B005"/>
<path opacity="0.5" d="M209.107 122.471C214.021 120.435 216.355 114.802 214.319 109.889C212.284 104.975 206.65 102.642 201.736 104.677C196.822 106.712 194.488 112.345 196.524 117.259C198.559 122.172 204.193 124.506 209.107 122.471Z" fill="white"/>
<path opacity="0.2" d="M213.325 113.57C213.325 115.131 212.862 116.658 211.994 117.956C211.127 119.254 209.894 120.266 208.451 120.864C207.008 121.461 205.42 121.618 203.889 121.313C202.357 121.009 200.95 120.257 199.846 119.152C198.742 118.048 197.99 116.642 197.685 115.11C197.38 113.579 197.537 111.991 198.134 110.549C198.732 109.106 199.744 107.873 201.042 107.006C202.341 106.138 203.867 105.675 205.429 105.675C207.523 105.675 209.532 106.507 211.012 107.987C212.493 109.468 213.325 111.476 213.325 113.57Z" fill="black"/>
<path d="M288.369 122.465C293.283 120.43 295.616 114.797 293.581 109.883C291.545 104.97 285.912 102.636 280.997 104.672C276.083 106.707 273.75 112.34 275.785 117.253C277.821 122.167 283.455 124.5 288.369 122.465Z" fill="#E3B005"/>
<path opacity="0.5" d="M288.369 122.465C293.283 120.43 295.616 114.797 293.581 109.883C291.545 104.97 285.912 102.636 280.997 104.672C276.083 106.707 273.75 112.34 275.785 117.253C277.821 122.167 283.455 124.5 288.369 122.465Z" fill="white"/>
<path opacity="0.2" d="M292.585 113.57C292.585 115.131 292.122 116.658 291.254 117.956C290.386 119.254 289.153 120.266 287.71 120.864C286.268 121.461 284.68 121.618 283.148 121.313C281.617 121.009 280.21 120.257 279.106 119.152C278.001 118.048 277.249 116.642 276.945 115.11C276.64 113.579 276.796 111.991 277.394 110.549C277.992 109.106 279.004 107.873 280.302 107.006C281.601 106.138 283.127 105.675 284.689 105.675C286.783 105.675 288.791 106.507 290.272 107.987C291.753 109.468 292.585 111.476 292.585 113.57Z" fill="black"/>
<path d="M220.152 191.349L237.717 199.056L242.784 210.986H253.232L256.966 201.168L275.059 191.349L278.353 200.3L264.422 207.013L255.47 229.642H237.717L233.832 208.61L216.242 199.797L220.152 191.349Z" fill="#263238"/>
<path d="M208.293 210.496L214.605 205.027L221.734 220.276L233.502 229.642L210.205 305.485H194.375L208.293 210.496Z" fill="#263238"/>
<path d="M259.695 232.207L267.315 227.568L278.354 208.61L284.691 212.985L275.839 305.485H263.681L259.695 232.207Z" fill="#263238"/>
<path d="M263.342 313.77L259.695 329.019L263.342 404.284H272.193L275.839 315.09L263.342 313.77Z" fill="#263238"/>
<path d="M192.568 313.644L186.558 328.127L178.234 403.015L186.973 404.41L204.701 316.925L192.568 313.644Z" fill="#263238"/>
<path d="M188.317 394.001L209.892 404.284L238.081 405.944L234.762 411.111H173.078L178.56 394.001H188.317Z" fill="#263238"/>
<path d="M266.636 295.039L265.002 324.632H279.298C279.298 324.632 284.05 302.003 282.064 295.039H266.636Z" fill="#263238"/>
<path opacity="0.2" d="M266.636 295.039L265.002 324.632H279.298C279.298 324.632 284.05 302.003 282.064 295.039H266.636Z" fill="white"/>
<path d="M271.73 299.278L270.535 299.68L277.701 320.95L278.895 320.548L271.73 299.278Z" fill="#263238"/>
<path d="M279.71 298.585L268.441 319.802L269.552 320.392L280.821 299.174L279.71 298.585Z" fill="#263238"/>
<path d="M199.996 293.605L191.521 322.205L206.043 323.827C206.043 323.827 216.102 302.355 215.649 295.353L199.996 293.605Z" fill="#263238"/>
<path opacity="0.2" d="M199.996 293.605L191.521 322.205L206.043 323.827C206.043 323.827 216.102 302.355 215.649 295.353L199.996 293.605Z" fill="white"/>
<path d="M201.797 298.715L200.568 298.98L204.714 318.2L205.943 317.935L201.797 298.715Z" fill="#263238"/>
<path d="M213.5 299.543L195.633 317.608L196.527 318.492L214.394 300.427L213.5 299.543Z" fill="#263238"/>
<path d="M185.589 385H192.555V392.203L209.088 402.562L201.507 405.944L183.1 398.3L185.589 385Z" fill="#263238"/>
<path opacity="0.2" d="M185.589 385H192.555V392.203L209.088 402.562L201.507 405.944L183.1 398.3L185.589 385Z" fill="white"/>
<path d="M259.569 412.519L260.801 413.751L262.045 412.519L263.278 413.751L264.51 412.519L265.755 413.751L266.987 412.519L268.219 413.751L269.464 412.519L270.696 413.751L271.928 412.519L273.16 413.751L274.405 412.519L275.637 413.751L276.869 412.519L278.114 413.751L279.346 412.519L280.578 413.751L281.81 412.519L283.055 413.751L284.287 412.519L285.519 413.751L286.752 412.519L287.996 413.751L289.228 412.519L290.461 413.751L291.705 412.519L292.938 413.751L294.17 412.519L295.414 413.751L296.647 412.519L297.879 413.751L299.111 412.519L300.356 413.751L301.588 412.519L302.82 413.751L304.052 412.519L305.297 413.751L306.529 412.519L307.761 413.751L309.006 412.519L310.238 413.751L311.47 412.519L312.715 413.751L313.947 412.519L315.179 413.751L316.424 412.519L317.656 413.751L318.888 412.519L318.964 412.581L322.371 405.944L257.381 411.111L258.651 413.436L259.569 412.519Z" fill="#263238"/>
<path opacity="0.2" d="M259.569 412.519L260.801 413.751L262.045 412.519L263.278 413.751L264.51 412.519L265.755 413.751L266.987 412.519L268.219 413.751L269.464 412.519L270.696 413.751L271.928 412.519L273.16 413.751L274.405 412.519L275.637 413.751L276.869 412.519L278.114 413.751L279.346 412.519L280.578 413.751L281.81 412.519L283.055 413.751L284.287 412.519L285.519 413.751L286.752 412.519L287.996 413.751L289.228 412.519L290.461 413.751L291.705 412.519L292.938 413.751L294.17 412.519L295.414 413.751L296.647 412.519L297.879 413.751L299.111 412.519L300.356 413.751L301.588 412.519L302.82 413.751L304.052 412.519L305.297 413.751L306.529 412.519L307.761 413.751L309.006 412.519L310.238 413.751L311.47 412.519L312.715 413.751L313.947 412.519L315.179 413.751L316.424 412.519L317.656 413.751L318.888 412.519L318.964 412.581L322.371 405.944L257.381 411.111L258.651 413.436L259.569 412.519Z" fill="white"/>
<path d="M272.619 394.001L294.182 404.284L322.371 405.944L319.052 411.111H257.381L262.85 394.001H272.619Z" fill="#263238"/>
<path d="M269.878 385H276.844V392.203L293.377 402.562L285.796 405.944L267.389 398.3L269.878 385Z" fill="#263238"/>
<path opacity="0.2" d="M269.878 385H276.844V392.203L293.377 402.562L285.796 405.944L267.389 398.3L269.878 385Z" fill="white"/>
</g>
<defs>
<clipPath id="clip0_249_2225">
<rect width="481" height="440" fill="white" transform="translate(0 0.628269)"/>
</clipPath>
</defs>
</svg>
