<svg width="32" height="33" viewBox="0 0 32 33" fill="none" xmlns="http://www.w3.org/2000/svg">
<path d="M29.2604 4.39536C28.6747 3.9096 27.8696 3.7846 27.1641 4.06984L3.27475 13.7144C2.22389 14.1469 1.72267 15.3495 2.15521 16.4002C2.37892 16.9437 2.82423 17.3655 3.37892 17.5594L8.53257 19.3511L11.3255 28.5855C11.3312 28.6043 11.3484 28.6157 11.3556 28.6338C11.3845 28.7074 11.4268 28.7752 11.4801 28.8337C11.4999 28.8572 11.5216 28.8792 11.5447 28.8996C11.6143 28.9574 11.6951 29.0001 11.782 29.025C11.7953 29.0289 11.8041 29.0407 11.8176 29.0438L11.8255 29.0435L11.8294 29.0451C11.8739 29.055 11.9193 29.0598 11.9648 29.0594C12.0243 29.0573 12.0833 29.047 12.1399 29.0289C12.1509 29.0259 12.162 29.0267 12.1727 29.0231C12.2695 28.989 12.3569 28.933 12.4281 28.8592C12.4364 28.8509 12.449 28.8495 12.457 28.8407L16.4752 24.4071L22.3372 28.9461C22.6934 29.2246 23.1325 29.3759 23.5846 29.3758C24.5624 29.3757 25.4065 28.6907 25.608 27.7339L29.9583 6.37713C30.1091 5.63836 29.8408 4.87664 29.2604 4.39536ZM12.7839 21.1024L11.8409 25.6847L9.87444 19.181L19.6276 14.1023L12.9649 20.7651C12.8727 20.8574 12.8098 20.9746 12.7839 21.1024ZM24.3021 27.4657C24.251 27.7111 24.0759 27.9124 23.8399 27.9969C23.6092 28.0856 23.3488 28.0461 23.155 27.8928L16.8034 22.9748C16.5284 22.7619 16.1359 22.7965 15.9024 23.0542L13.1082 26.1371L14.0495 21.5672L23.6341 11.9813C23.8946 11.7213 23.895 11.2994 23.635 11.039C23.4294 10.8329 23.1137 10.7842 22.8555 10.9188L9.03769 18.1144L3.81512 16.299C3.53045 16.2053 3.33685 15.9411 3.33335 15.6415C3.31959 15.3397 3.49822 15.0623 3.77866 14.95L27.6641 5.30682C27.9136 5.20094 28.2015 5.24529 28.4076 5.4214C28.6126 5.58693 28.7069 5.85393 28.6511 6.1115L24.3021 27.4657Z" fill="#F0F0F0"/>
</svg>
