<svg width="23" height="16" viewBox="0 0 23 16" fill="none" xmlns="http://www.w3.org/2000/svg">
<g clip-path="url(#clip0_18_329)">
<path d="M0.0498047 10.56H22.0498V15.84H0.0498047V10.56Z" fill="#1EB53A"/>
<path d="M0.0499268 0H22.0499V5.28H0.0499268V0Z" fill="#0099B5"/>
<path d="M0.0498047 5.06879H22.0498V10.7712H0.0498047V5.06879Z" fill="#CE1126"/>
<path d="M0.0498047 5.38559H22.0498V10.4544H0.0498047V5.38559Z" fill="white"/>
<path d="M4.66994 4.4352C5.76346 4.4352 6.64994 3.58419 6.64994 2.53441C6.64994 1.48462 5.76346 0.633606 4.66994 0.633606C3.57642 0.633606 2.68994 1.48462 2.68994 2.53441C2.68994 3.58419 3.57642 4.4352 4.66994 4.4352Z" fill="white"/>
<path d="M5.32985 4.4352C6.42338 4.4352 7.30985 3.58419 7.30985 2.53441C7.30985 1.48462 6.42338 0.633606 5.32985 0.633606C4.23633 0.633606 3.34985 1.48462 3.34985 2.53441C3.34985 3.58419 4.23633 4.4352 5.32985 4.4352Z" fill="#0099B5"/>
<path d="M9.02518 3.67554L8.89978 4.03669L9.09118 4.10005" fill="white"/>
<path d="M9.02536 3.67554L9.15076 4.03669L8.95936 4.10005" fill="white"/>
<path d="M9.40134 3.93981L9.00514 3.93321L9.00351 4.12963" fill="white"/>
<path d="M9.40066 3.93883L9.08424 4.16444L8.96085 4.00644" fill="white"/>
<path d="M8.64975 3.93907L8.96617 4.16468L9.08957 4.00668" fill="white"/>
<path d="M8.64932 3.93984L9.04552 3.93324L9.04715 4.12966" fill="white"/>
<path d="M9.25888 4.36381L9.13727 4.00067L8.94471 4.05617" fill="white"/>
<path d="M9.25845 4.36397L8.93563 4.14093L9.05021 3.98258" fill="white"/>
<path d="M8.79301 4.36265L9.11535 4.14255L8.99809 3.98252" fill="white"/>
<path d="M8.79342 4.36293L8.91151 4.00017L9.10605 4.05792" fill="white"/>
<path d="M9.02518 2.15491L8.89978 2.51606L9.09118 2.57942" fill="white"/>
<path d="M9.02536 2.15491L9.15076 2.51606L8.95936 2.57942" fill="white"/>
<path d="M9.40134 2.41918L9.00514 2.41258L9.00351 2.609" fill="white"/>
<path d="M9.40066 2.4182L9.08424 2.64381L8.96085 2.48581" fill="white"/>
<path d="M8.64975 2.41844L8.96617 2.64405L9.08957 2.48605" fill="white"/>
<path d="M8.64932 2.41921L9.04552 2.41261L9.04715 2.60903" fill="white"/>
<path d="M9.25888 2.84318L9.13727 2.48004L8.94471 2.53554" fill="white"/>
<path d="M9.25845 2.84334L8.93563 2.6203L9.05021 2.46195" fill="white"/>
<path d="M8.79301 2.84202L9.11535 2.62192L8.99809 2.46189" fill="white"/>
<path d="M8.79342 2.8423L8.91151 2.47954L9.10605 2.53729" fill="white"/>
<path d="M9.02518 0.634277L8.89978 0.995429L9.09118 1.05879" fill="white"/>
<path d="M9.02536 0.634277L9.15076 0.995429L8.95936 1.05879" fill="white"/>
<path d="M9.40134 0.898515L9.00514 0.891917L9.00351 1.08834" fill="white"/>
<path d="M9.40066 0.897536L9.08424 1.12315L8.96085 0.965147" fill="white"/>
<path d="M8.64975 0.897811L8.96617 1.12342L9.08957 0.965421" fill="white"/>
<path d="M8.64932 0.898576L9.04552 0.891978L9.04715 1.0884" fill="white"/>
<path d="M9.25888 1.32255L9.13727 0.959415L8.94471 1.01491" fill="white"/>
<path d="M9.25857 1.32271L8.93575 1.09967L9.05033 0.941322" fill="white"/>
<path d="M8.79301 1.32139L9.11535 1.10129L8.99809 0.941263" fill="white"/>
<path d="M8.79342 1.32167L8.91151 0.958908L9.10605 1.01666" fill="white"/>
<path d="M10.6094 3.67554L10.484 4.03669L10.6754 4.10005" fill="white"/>
<path d="M10.6095 3.67554L10.7349 4.03669L10.5435 4.10005" fill="white"/>
<path d="M10.9854 3.93962L10.5892 3.93302L10.5876 4.12945" fill="white"/>
<path d="M10.9853 3.93907L10.6688 4.16468L10.5454 4.00668" fill="white"/>
<path d="M10.234 3.93907L10.5504 4.16468L10.6738 4.00668" fill="white"/>
<path d="M10.2333 3.93984L10.6295 3.93324L10.6311 4.12966" fill="white"/>
<path d="M10.8432 4.36381L10.7216 4.00067L10.5291 4.05617" fill="white"/>
<path d="M10.8428 4.36397L10.52 4.14093L10.6346 3.98258" fill="white"/>
<path d="M10.377 4.36265L10.6993 4.14255L10.5821 3.98252" fill="white"/>
<path d="M10.3777 4.36293L10.4957 4.00017L10.6903 4.05792" fill="white"/>
<path d="M10.6094 2.15491L10.484 2.51606L10.6754 2.57942" fill="white"/>
<path d="M10.6095 2.15491L10.7349 2.51606L10.5435 2.57942" fill="white"/>
<path d="M10.9854 2.41899L10.5892 2.41239L10.5876 2.60882" fill="white"/>
<path d="M10.9853 2.41844L10.6688 2.64405L10.5454 2.48605" fill="white"/>
<path d="M10.234 2.41844L10.5504 2.64405L10.6738 2.48605" fill="white"/>
<path d="M10.2333 2.41921L10.6295 2.41261L10.6311 2.60903" fill="white"/>
<path d="M10.8432 2.84318L10.7216 2.48004L10.5291 2.53554" fill="white"/>
<path d="M10.8428 2.84334L10.52 2.6203L10.6346 2.46195" fill="white"/>
<path d="M10.377 2.84202L10.6993 2.62192L10.5821 2.46189" fill="white"/>
<path d="M10.3777 2.8423L10.4957 2.47954L10.6903 2.53729" fill="white"/>
<path d="M10.6094 0.634277L10.484 0.995429L10.6754 1.05879" fill="white"/>
<path d="M10.6095 0.634277L10.7349 0.995429L10.5435 1.05879" fill="white"/>
<path d="M10.9854 0.898332L10.5892 0.891734L10.5876 1.08816" fill="white"/>
<path d="M10.9853 0.897811L10.6688 1.12342L10.5454 0.965421" fill="white"/>
<path d="M10.234 0.897811L10.5504 1.12342L10.6738 0.965421" fill="white"/>
<path d="M10.2333 0.898576L10.6295 0.891978L10.6311 1.0884" fill="white"/>
<path d="M10.8432 1.32255L10.7216 0.959415L10.5291 1.01491" fill="white"/>
<path d="M10.8428 1.32271L10.52 1.09967L10.6346 0.941322" fill="white"/>
<path d="M10.377 1.32139L10.6993 1.10129L10.5821 0.941263" fill="white"/>
<path d="M10.3777 1.32167L10.4957 0.958908L10.6903 1.01666" fill="white"/>
<path d="M12.1933 3.67554L12.0679 4.03669L12.2593 4.10005" fill="white"/>
<path d="M12.1932 3.67554L12.3186 4.03669L12.1272 4.10005" fill="white"/>
<path d="M12.5698 3.93984L12.1736 3.93324L12.172 4.12966" fill="white"/>
<path d="M12.569 3.9388L12.2526 4.16441L12.1292 4.00641" fill="white"/>
<path d="M11.8178 3.93907L12.1343 4.16468L12.2577 4.00668" fill="white"/>
<path d="M11.8174 3.93984L12.2136 3.93324L12.2152 4.12966" fill="white"/>
<path d="M12.427 4.36381L12.3054 4.00067L12.1128 4.05617" fill="white"/>
<path d="M12.4268 4.36397L12.104 4.14093L12.2185 3.98258" fill="white"/>
<path d="M11.961 4.36265L12.2833 4.14255L12.1661 3.98252" fill="white"/>
<path d="M11.9613 4.36293L12.0794 4.00017L12.2739 4.05792" fill="white"/>
<path d="M12.1933 2.15491L12.0679 2.51606L12.2593 2.57942" fill="white"/>
<path d="M12.1932 2.15491L12.3186 2.51606L12.1272 2.57942" fill="white"/>
<path d="M12.5698 2.41921L12.1736 2.41261L12.172 2.60903" fill="white"/>
<path d="M12.5689 2.41817L12.2525 2.64378L12.1291 2.48578" fill="white"/>
<path d="M11.8178 2.41844L12.1343 2.64405L12.2577 2.48605" fill="white"/>
<path d="M11.8174 2.41921L12.2136 2.41261L12.2152 2.60903" fill="white"/>
<path d="M12.427 2.84318L12.3054 2.48004L12.1128 2.53554" fill="white"/>
<path d="M12.4268 2.84334L12.104 2.6203L12.2185 2.46195" fill="white"/>
<path d="M11.961 2.84202L12.2833 2.62192L12.1661 2.46189" fill="white"/>
<path d="M11.9613 2.8423L12.0794 2.47954L12.2739 2.53729" fill="white"/>
<path d="M12.1933 0.634277L12.0679 0.995429L12.2593 1.05879" fill="white"/>
<path d="M12.1932 0.634277L12.3186 0.995429L12.1272 1.05879" fill="white"/>
<path d="M12.5692 0.898576L12.173 0.891978L12.1714 1.0884" fill="white"/>
<path d="M12.5685 0.897536L12.2521 1.12315L12.1287 0.965147" fill="white"/>
<path d="M11.8178 0.897811L12.1343 1.12342L12.2577 0.965421" fill="white"/>
<path d="M11.8174 0.898576L12.2136 0.891978L12.2152 1.0884" fill="white"/>
<path d="M12.427 1.32255L12.3054 0.959415L12.1128 1.01491" fill="white"/>
<path d="M12.4268 1.32271L12.104 1.09967L12.2185 0.941322" fill="white"/>
<path d="M11.961 1.32139L12.2833 1.10129L12.1661 0.941263" fill="white"/>
<path d="M11.9613 1.32167L12.0794 0.958908L12.2739 1.01666" fill="white"/>
<path d="M5.85697 3.67554L5.73157 4.03669L5.92297 4.10005" fill="white"/>
<path d="M5.85714 3.67554L5.98254 4.03669L5.79114 4.10005" fill="white"/>
<path d="M6.23337 3.94011L5.83717 3.93351L5.83555 4.12994" fill="white"/>
<path d="M6.23282 3.9391L5.9164 4.16471L5.793 4.00671" fill="white"/>
<path d="M5.48166 3.93907L5.79808 4.16468L5.92148 4.00668" fill="white"/>
<path d="M5.48123 3.93984L5.87743 3.93324L5.87905 4.12966" fill="white"/>
<path d="M6.09079 4.36381L5.96918 4.00067L5.77662 4.05617" fill="white"/>
<path d="M6.09036 4.36397L5.76753 4.14093L5.88212 3.98258" fill="white"/>
<path d="M5.62467 4.36265L5.94701 4.14255L5.82976 3.98252" fill="white"/>
<path d="M5.62521 4.36293L5.7433 4.00017L5.93784 4.05792" fill="white"/>
<path d="M7.44132 3.67554L7.31592 4.03669L7.50732 4.10005" fill="white"/>
<path d="M7.44137 3.67554L7.56677 4.03669L7.37537 4.10005" fill="white"/>
<path d="M7.81723 3.93959L7.42103 3.93299L7.41941 4.12942" fill="white"/>
<path d="M7.81692 3.93852L7.5005 4.16413L7.37711 4.00613" fill="white"/>
<path d="M7.06589 3.93916L7.38231 4.16477L7.5057 4.00677" fill="white"/>
<path d="M7.06509 3.93984L7.46129 3.93324L7.46292 4.12966" fill="white"/>
<path d="M7.67502 4.36381L7.55341 4.00067L7.36085 4.05617" fill="white"/>
<path d="M7.67459 4.36397L7.35176 4.14093L7.46635 3.98258" fill="white"/>
<path d="M7.20878 4.36265L7.53112 4.14255L7.41386 3.98252" fill="white"/>
<path d="M7.20944 4.36293L7.32753 4.00017L7.52206 4.05792" fill="white"/>
<path d="M7.44132 2.15491L7.31592 2.51606L7.50732 2.57942" fill="white"/>
<path d="M7.44137 2.15491L7.56677 2.51606L7.37537 2.57942" fill="white"/>
<path d="M7.81699 2.41893L7.42079 2.41233L7.41916 2.60876" fill="white"/>
<path d="M7.81692 2.41789L7.5005 2.6435L7.37711 2.4855" fill="white"/>
<path d="M7.06589 2.41853L7.38231 2.64414L7.5057 2.48614" fill="white"/>
<path d="M7.06509 2.41921L7.46129 2.41261L7.46292 2.60903" fill="white"/>
<path d="M7.67502 2.84318L7.55341 2.48004L7.36085 2.53554" fill="white"/>
<path d="M7.67459 2.84334L7.35176 2.6203L7.46635 2.46195" fill="white"/>
<path d="M7.20878 2.84202L7.53112 2.62192L7.41386 2.46189" fill="white"/>
<path d="M7.20944 2.8423L7.32753 2.47954L7.52206 2.53729" fill="white"/>
</g>
<defs>
<clipPath id="clip0_18_329">
<rect x="0.0499268" width="22" height="15.84" rx="1.76" fill="white"/>
</clipPath>
</defs>
</svg>
