<svg width="32" height="33" viewBox="0 0 32 33" fill="none" xmlns="http://www.w3.org/2000/svg">
<g clip-path="url(#clip0_8_36)">
<path d="M29.398 6.63708C28.531 6.01308 26.115 5.18408 15.9915 5.18408C5.143 5.18408 3.5335 6.13608 3.01697 6.44758C0.26797 8.09905 0.00697046 15.4106 -0.0169983 16.8931C0.0160017 18.8511 0.332502 25.3656 3.015 26.9771C3.53053 27.2876 5.131 28.2341 15.9915 28.2341C26.1215 28.2341 28.5345 27.4091 29.398 26.7876C31.741 25.1021 32.0105 19.2976 32.017 16.8676C32.011 14.9136 31.806 8.37161 29.398 6.63711L29.398 6.63708ZM28.23 25.1646C27.8815 25.4156 25.8804 26.234 15.9914 26.234C6.43094 26.234 4.42494 25.492 4.04594 25.2635C3.08094 24.6845 2.06244 21.611 1.98247 16.8875C2.06147 12.1746 3.09397 8.73405 4.048 8.16205C4.428 7.93255 6.44147 7.18455 15.9914 7.18455C25.8724 7.18455 27.8789 8.00858 28.23 8.26058C29.0865 8.87758 30.0035 12.1256 30.017 16.8741C30.0035 21.6971 29.0805 24.5526 28.23 25.1646ZM22.513 15.9225L13.515 10.401C13.3633 10.3095 13.1901 10.26 13.013 10.2574C12.8359 10.2549 12.6613 10.2994 12.507 10.3865C12.3526 10.4736 12.2241 10.6001 12.1347 10.7531C12.0453 10.9062 11.9981 11.0802 11.998 11.2575V22.3025C11.9981 22.5677 12.1035 22.8219 12.291 23.0094C12.4785 23.197 12.7328 23.3024 12.998 23.3025C13.18 23.3025 13.3586 23.2529 13.5145 23.159L22.5125 17.6355C22.8125 17.454 22.996 17.1295 22.996 16.779C22.996 16.4285 22.813 16.103 22.513 15.9225H22.513ZM13.9985 20.531V13.028L20.061 16.779L13.9985 20.531Z" fill="#F0F0F0"/>
</g>
<defs>
<clipPath id="clip0_8_36">
<rect width="32" height="32" fill="white" transform="translate(0 0.708984)"/>
</clipPath>
</defs>
</svg>
